<svg xmlns="http://www.w3.org/2000/svg" viewBox="0 0 303.88 122.61"><defs><style>.cls-1{fill:#fff;}.cls-2{fill:#bcfec3;}</style></defs><title>bg_contact_form</title><g id="Layer_1" data-name="Layer 1"><path class="cls-1" d="M201.43,5.28c1.61.07,3.22.18,4.83.2,3,0,6,0,9,0,3.63,0,7.26.14,10.89.24l11.27.33c4.18.13,8.36.27,12.54.36,2,0,4,0,6,0,4.42.12,8.84.32,13.27.43,2.86.07,5.72,0,8.58.05,3.69.06,7.38.15,11.08.25,1.31,0,2.62.17,3.93.21a2.54,2.54,0,0,0,2.45-.79,2.18,2.18,0,0,1,2.09,0,1.4,1.4,0,0,1,0,2.12,1.76,1.76,0,0,0-.31,1.12c.05,1.74.19,3.47.25,5.21.1,2.87.11,5.74.27,8.61.1,1.68.44,3.36.63,5,0,.34-.13.71-.1,1.06.25,4.27.55,8.54.78,12.81.11,2,.08,4.09.15,6.13,0,1.07.15,2.14.22,3.21.15,2.35.31,4.7.45,7.05.24,4,.49,8,.71,12,.18,3.36.31,6.73.5,10.08.19,3.19.49,6.37.65,9.55s.2,6.41.32,9.62c0,.83.16,1.66.21,2.49.1,1.61.18,3.22.26,4.84.1,2.14.19,4.29.28,6.49.62.36,1.77.34,1.2,1.64-.42,1-1.15,1.24-2.31,1.18-2-.12-4,0-6.06,0-1.79,0-3.58.08-5.37.14-2.46.09-4.92.21-7.38.31-1.14,0-2.27.06-3.41.08l-9.68.25q-8.36.23-16.69.48c-2.59.07-5.18.14-7.77.24-3.3.13-6.6.33-9.9.43-4.09.13-8.19.17-12.28.29-5.16.14-10.32.31-15.48.48l-15.22.48-14.83.48c-.67,0-1.34.25-2,.22-2.27-.12-4.5-.17-6.05,1.93h-1.2c-1.16-1.69-1.06-2.4.49-3.72a1.49,1.49,0,0,0,.46-.76q2.34-9.59,4.65-19.18,1.5-6.24,3-12.49c.25-1-.18-1.54-1.36-1.52-3.07,0-6.14.16-9.21.19-4.93,0-9.86,0-14.79.05-2.89,0-5.78.17-8.66.2-4.82,0-9.63,0-14.44,0-6.27.06-12.54.16-18.81.23L90,85.89l-23.67.25-18,.23-21.37.25c-7.14.08-14.27.13-21.41.27-1.22,0-2.43.57-3.66.72a2.36,2.36,0,0,1-1.67-.43c-.24-.2,0-1,0-1.47a10.62,10.62,0,0,0,.56-2c0-4.63-.08-9.27-.1-13.9,0-2.81.11-5.62.11-8.43q0-8.13,0-16.26Q.68,24.18.54,3.21c0-.47-.34-.93-.42-1.42S-.1.72.12.41A.88.88,0,0,1,1.56.33,1.73,1.73,0,0,0,2.64.68c3,.11,6,.16,9,.27s6.24.34,9.36.41c3.57.08,7.14,0,10.71.07,3.84.05,7.68.15,11.52.23l10.89.24c3.87.08,7.74.15,11.61.24,3.63.08,7.27.13,10.9.25,3.25.11,6.49.35,9.73.43s6.35,0,9.52.06c3.88.05,7.77.13,11.65.22,2.66.06,5.31.17,8,.23,3.79.09,7.58.15,11.37.24,3.13.07,6.26.18,9.39.23,3.73.06,7.47,0,11.2.1s7.32.28,11,.42c1.85.07,3.69.15,5.54.18,4.18.07,8.37.09,12.55.18,1.55,0,3.1.21,4.64.23s3.31-.1,5-.08c1.51,0,3,.14,4.53.19l7.41.22,2.4,0Zm-18.71.45c-2.74-.07-5.47-.16-8.21-.21l-22.23-.37c-3.21-.05-6.42-.05-9.63-.14-4.25-.13-8.5-.35-12.75-.46-3.18-.08-6.36,0-9.55-.11-3-.07-6-.29-9.06-.37-4.19-.12-8.38-.17-12.57-.26-3.15-.06-6.3-.16-9.45-.23-4.1-.09-8.19-.18-12.28-.23-2.87-.05-5.73,0-8.59-.07-3.78-.1-7.56-.3-11.35-.42-3.57-.11-7.15-.17-10.73-.24-4.51-.09-9-.15-13.53-.25-2.83-.05-5.66-.16-8.49-.22Q17.9,2,11.48,1.9c-2.84,0-5.68,0-8.52,0-.54,0-1.08,0-1.68.08,0,.6,0,1,0,1.48.07,4.23.2,8.46.2,12.7,0,4.47-.18,8.94-.18,13.4,0,3.31.15,6.62.21,9.93,0,1-.15,2-.12,2.93.06,1.65.3,3.29.31,4.94,0,2.39-.18,4.77-.17,7.16,0,3.35.17,6.71.2,10.06,0,3.82,0,7.64,0,11.46,0,.61,0,1.23,0,1.85q0,2.63.12,5.25c0,.27.15.56.1.81a1.62,1.62,0,0,0,1.73,2.2c2.19,0,4.38-.19,6.57-.22,4.77,0,9.55,0,14.33-.06,3.17,0,6.35-.15,9.52-.18,4.43,0,8.85,0,13.28,0,2.71,0,5.42-.19,8.13-.21,5.23-.06,10.47-.05,15.7-.09,3,0,6-.12,9.07-.16,3.35-.05,6.7,0,10.05-.1,5.55-.1,11.09-.25,16.64-.34,1.86,0,3.73.14,5.6.11,5.14-.09,10.29-.26,15.43-.36,3-.06,5.94,0,8.91,0,3.5,0,7-.16,10.48-.2,9.25-.1,18.5-.17,27.75-.29a12.62,12.62,0,0,0,1.6-.48,2,2,0,0,1,1.38.14c.3.24.56,1,.39,1.28a8.17,8.17,0,0,0-1.2,3.21c-.35,1.92-1,3.77-1.49,5.67s-.91,4.09-1.42,6.13c-.77,3.07-1.61,6.12-2.37,9.19-.67,2.68-1.23,5.39-1.92,8.08-.39,1.53.33,2.83,1.62,2.76,3.38-.17,6.76-.31,10.14-.44,2.44-.1,4.88-.16,7.32-.24,4.65-.16,9.29-.33,13.94-.48,3.07-.1,6.13-.17,9.2-.24,1.17,0,2.34,0,3.52-.1,2.22-.11,4.44-.31,6.66-.36,2.61-.07,5.21,0,7.82,0s5-.13,7.56-.23c3.22-.14,6.44-.35,9.66-.46,3.68-.13,7.36-.15,11.05-.27s7.33-.28,11-.44c5.09-.2,10.18-.44,15.27-.62,2.7-.1,5.41-.07,8.11-.14,2.23,0,4.46-.15,6.69-.23a3.47,3.47,0,0,0,2.09-2.21c-.24-3.16-.49-6.33-.67-9.49s-.28-6.61-.46-9.92c-.31-5.75-.66-11.5-1-17.25-.25-4.33-.48-8.66-.72-13-.16-2.86-.3-5.72-.46-8.58q-.36-6.3-.74-12.59c-.16-2.66-.34-5.32-.48-8-.24-4.65-.46-9.3-.69-14-.18-3.58-.33-7.17-.54-10.75a1.52,1.52,0,0,0-.54-.88c-1.32-1.17-3-.82-4.52-.89-3-.14-6-.07-9-.15-3.67-.09-7.33-.24-11-.35-2.8-.09-5.59-.16-8.38-.23-3.79-.09-7.58-.16-11.37-.24-3.51-.08-7-.17-10.53-.23-6.13-.11-12.26-.19-18.38-.28l-5.76-.06-2.38-.2c-2-.06-4-.14-5.94-.18L193,6c-.55,0-1.09,0-1.64,0h-.44l-7.48-.23Z"/><path class="cls-2" d="M201.43,5.28h0Z"/><path class="cls-2" d="M216.55,6.62l-2.38-.2Z"/><path class="cls-2" d="M183.42,5.7l-.7,0Z"/><path class="cls-2" d="M191.34,5.94h0Z"/></g></svg>