<svg id="Layer_1" data-name="Layer 1" xmlns="http://www.w3.org/2000/svg" viewBox="0 0 321.56 178.35"><defs><style>.cls-1{fill:#aea6ac;}.cls-2{fill:#ada5ab;}.cls-3{fill:#afa7ad;}.cls-4{fill:#aea7ac;}.cls-5{fill:#776973;}.cls-6{fill:#ada6ab;}.cls-7{fill:#786b74;}.cls-8{fill:#7c7078;}.cls-9{fill:#867a82;}.cls-10{fill:#afa8ad;}.cls-11{fill:#7d717a;}.cls-12{fill:#796c75;}.cls-13{fill:#7b6e77;}.cls-14{fill:#776a73;}.cls-15{fill:#786b75;}.cls-16{fill:#7b6f77;}.cls-17{fill:#7c6f78;}.cls-18{fill:#b0a9ae;}.cls-19{fill:#7e727b;}.cls-20{fill:#b0a8ae;}.cls-21{fill:#7d7079;}.cls-22{fill:#7b6f78;}.cls-23{fill:#7a6d76;}.cls-24{fill:#edeced;}.cls-25{fill:#f7f7f7;}.cls-26{fill:#857982;}.cls-27{fill:#7d7179;}.cls-28{fill:#7e717a;}.cls-29{fill:#756871;}.cls-30{fill:#796c76;}.cls-31{fill:#766972;}.cls-32{fill:#80737c;}.cls-33{fill:#83777f;}.cls-34{fill:#7c7079;}.cls-35{fill:#81757d;}.cls-36{fill:#776a74;}.cls-37{fill:#f1eff0;}.cls-38{fill:#857981;}.cls-39{fill:#eceaec;}.cls-40{fill:#83767f;}.cls-41{fill:#80747d;}.cls-42{fill:#7f737c;}.cls-43{fill:#7f737b;}.cls-44{fill:#8b8087;}.cls-45{fill:#746770;}.cls-46{fill:#7e727a;}.cls-47{fill:#82767e;}.cls-48{fill:#7f727b;}.cls-49{fill:#81747d;}.cls-50{fill:#f4f3f4;}.cls-51{fill:#f0eff0;}.cls-52{fill:#f5f4f4;}.cls-53{fill:#7a6e77;}.cls-54{fill:#d2cdd0;}.cls-55{fill:#dfdcde;}.cls-56{fill:#82757e;}.cls-57{fill:#766872;}.cls-58{fill:#8f848b;}.cls-59{fill:#7a6e76;}.cls-60{fill:#867b83;}.cls-61{fill:#837780;}.cls-62{fill:#7a6d75;}.cls-63{fill:#73666f;}.cls-64{fill:#73656f;}.cls-65{fill:#796d76;}.cls-66{fill:#e9e7e8;}.cls-67{fill:#e7e5e6;}.cls-68{fill:#82767f;}.cls-69{fill:#746771;}.cls-70{fill:#81757e;}.cls-71{fill:#e8e5e7;}.cls-72{fill:#887d85;}.cls-73{fill:#756771;}.cls-74{fill:#887c85;}.cls-75{fill:#5a4a55;}.cls-76{fill:#4d3c48;}.cls-77{fill:#675862;}.cls-78{fill:#4a3844;}.cls-79{fill:#43313d;}.cls-80{fill:#584753;}.cls-81{fill:#8c8189;}.cls-82{fill:#fdfdfd;}.cls-83{fill:#584752;}.cls-84{fill:#897e86;}.cls-85{fill:#8f848c;}.cls-86{fill:#42303c;}.cls-87{fill:#55444f;}.cls-88{fill:#877b83;}.cls-89{fill:#6e606a;}.cls-90{fill:#695a64;}.cls-91{fill:#5f4f5a;}.cls-92{fill:#756770;}.cls-93{fill:#493743;}.cls-94{fill:#afa7ac;}.cls-95{fill:#c5bfc3;}.cls-96{fill:#fcf5fa;}.cls-97{fill:#fdf6fb;}.cls-98{fill:#fbf4f9;}.cls-99{fill:#faf3f8;}.cls-100{fill:#f3f2f3;}.cls-101{fill:#f2f1f2;}.cls-102{fill:#fdf6fa;}.cls-103{fill:#e8e1e6;}.cls-104{fill:#f9f2f7;}.cls-105{fill:#fbfbfb;}.cls-106{fill:#f8f1f6;}.cls-107{fill:#f7f1f5;}.cls-108{fill:#eeeced;}.cls-109{fill:#f9f8f9;}.cls-110{fill:#f9f3f7;}.cls-111{fill:#f9f2f6;}.cls-112{fill:#fcf5f9;}.cls-113{fill:#efeeef;}.cls-114{fill:#cec6cb;}.cls-115{fill:#f6eff4;}.cls-116{fill:#ebeaeb;}.cls-117{fill:#f6f6f6;}.cls-118{fill:#dedbdd;}.cls-119{fill:#f8f7f7;}.cls-120{fill:#f8f8f8;}.cls-121{fill:#fafafa;}.cls-122{fill:#efedee;}.cls-123{fill:#f2f0f1;}.cls-124{fill:#e8e6e7;}.cls-125{fill:#eeedee;}.cls-126{fill:#f0e9ee;}.cls-127{fill:#f3f1f2;}.cls-128{fill:#e4e2e4;}.cls-129{fill:#f8f7f8;}.cls-130{fill:#f9f9f9;}.cls-131{fill:#cfc7cc;}.cls-132{fill:#f7f6f7;}.cls-133{fill:#f6f5f6;}.cls-134{fill:#ccc4c9;}.cls-135{fill:#f3f2f2;}.cls-136{fill:#e4e1e3;}.cls-137{fill:#dcd8db;}.cls-138{fill:#f7f6f6;}.cls-139{fill:#f0eeef;}.cls-140{fill:#f5f4f5;}.cls-141{fill:#dcd9db;}.cls-142{fill:#edebed;}.cls-143{fill:#eceaeb;}.cls-144{fill:#f6f5f5;}.cls-145{fill:#e5e3e4;}.cls-146{fill:#fbfafb;}.cls-147{fill:#faf9f9;}.cls-148{fill:#f4f3f3;}.cls-149{fill:#e6e4e6;}.cls-150{fill:#e1dee0;}.cls-151{fill:#f2f1f1;}.cls-152{fill:#d7d3d6;}.cls-153{fill:#fcfcfc;}.cls-154{fill:#e3e1e3;}.cls-155{fill:#eae8e9;}.cls-156{fill:#edebec;}.cls-157{fill:#e0dddf;}.cls-158{fill:#d9d6d8;}.cls-159{fill:#a8a0a6;}.cls-160{fill:#e2dbe0;}.cls-161{fill:#f2ebf0;}.cls-162{fill:#d1c9ce;}</style></defs><title>stars-pre</title><path class="cls-1" d="M182.48,153.82a7.83,7.83,0,0,1-2.32-1.09,1.71,1.71,0,0,1-.18-2.92,2.31,2.31,0,0,1,2.21-.48,4.36,4.36,0,0,1,2.71,2.07v1.44a3.06,3.06,0,0,1-1,1Zm.35-.76a1.12,1.12,0,0,0,1.21-1.43c-.33-1-1.25-1.36-2.13-1.64a1.65,1.65,0,0,0-1.72,1.21.32.32,0,0,0,0,.2A5.25,5.25,0,0,0,182.83,153.06Z" transform="translate(-2.06 -2.1)"/><path class="cls-2" d="M156.28,156.44a3.23,3.23,0,0,1,2.22.6,1.86,1.86,0,0,1,.56,2.26c-.05.11-.19.17-.22.28-.52,1.63-1.8,1.79-3.22,1.66a2.58,2.58,0,0,1-2.14-2.78,4.47,4.47,0,0,1,1-1.68,1.65,1.65,0,0,1,1.44-.34Zm.11.74a1.4,1.4,0,0,0-1.77,1,1,1,0,0,1-.21.29c-.37.36-.29.7,0,1,.17.16.33.34.51.5a2.22,2.22,0,0,0,2.32.39c.84-.27,1-1.09,1.17-1.75s0-1-.71-1.22A2.28,2.28,0,0,0,156.39,157.18Z" transform="translate(-2.06 -2.1)"/><path class="cls-1" d="M315.44,144.66c.18.15.37.3.56.43,1.18.8,1.29,1.33.92,2.69a1.23,1.23,0,0,1-1.29,1,2.81,2.81,0,0,1-2.83-2.32,1,1,0,0,1,0-.24c-.13-1.13-.13-1.13,1-1.53Zm-1.68,1.48a2.07,2.07,0,0,0,1.77,1.84,1,1,0,0,0,.77-.87,1.57,1.57,0,0,0-1.85-1.72C313.76,145.41,313.75,145.42,313.76,146.14Z" transform="translate(-2.06 -2.1)"/><path class="cls-1" d="M301.52,156.12a2.12,2.12,0,0,1,1.71-2.22,2.36,2.36,0,0,1,2.65,1l.07.1c.92,1.35.72,2.05-.78,2.74a3.72,3.72,0,0,1-1.94.39A1.86,1.86,0,0,1,301.52,156.12Zm.72,0c0,.62.17.84.8,1.07a2.68,2.68,0,0,0,2.64-.7.51.51,0,0,0,.09-.64c-.35-.56-.67-1.11-1.43-1.26A1.86,1.86,0,0,0,302.24,156.11Z" transform="translate(-2.06 -2.1)"/><path class="cls-1" d="M307.29,40.78c-1.23-1-1.33-1.74-.43-3.08.09-.12.14-.27.22-.4a1.8,1.8,0,0,1,3.1,0,3.85,3.85,0,0,1,.24.4v1.43a6,6,0,0,1-1.95,1.7Zm2.4-2.58a.94.94,0,0,0-.64-1,.86.86,0,0,0-1.12.41,11.31,11.31,0,0,0-.66,1.24c-.1.23-.35.45-.07.74a1,1,0,0,0,.91.44A2.12,2.12,0,0,0,309.69,38.2Z" transform="translate(-2.06 -2.1)"/><path class="cls-3" d="M14.17,115.64c1-.13,1.58.61,2.16,1.31.19.24-.19,1.26-.55,1.58a2.46,2.46,0,0,1-3.54-.23,1.39,1.39,0,0,1-.09-1.38A2.31,2.31,0,0,1,14.17,115.64Zm-1.32,1.81c.72.77.72.77,1.35.93a1.13,1.13,0,0,0,1.24-.86c0-.4,0-.78-.42-.89s-1-.5-1.55,0A7.05,7.05,0,0,0,12.85,117.45Z" transform="translate(-2.06 -2.1)"/><path class="cls-1" d="M73.74,18.44c-.14-.71.45-.92.88-1.22a1.19,1.19,0,0,1,1.51.07,6.73,6.73,0,0,1,1.34.88,1.24,1.24,0,0,1,.28,1.4A2.1,2.1,0,0,1,75.67,21a2.13,2.13,0,0,1-1.93-1.34Zm2.17,1.68a1.13,1.13,0,0,0,1.2-.75,1.08,1.08,0,0,0-.64-1.15c-.23-.14-.51-.2-.73-.36s-.41-.09-.63,0c-.64.34-.67.5-.66,1.46,0,.63.53.46.79.67S75.7,20.11,75.91,20.12Z" transform="translate(-2.06 -2.1)"/><path class="cls-1" d="M5,153.32a1.74,1.74,0,0,1-1.81-1.75,1.84,1.84,0,0,1,1.86-2.09,1.61,1.61,0,0,1,1.74,1.64A2.17,2.17,0,0,1,5,153.32Zm1.08-2.17a1,1,0,0,0-1-1,1.55,1.55,0,0,0-1.17,1.3,1.51,1.51,0,0,0,1.23,1.1C5.51,152.59,6.08,151.7,6.09,151.15Z" transform="translate(-2.06 -2.1)"/><path class="cls-4" d="M234.8,142.37c0-1.29.22-1.57,1.42-1.87.9-.21,2.36.69,2.38,1.57s-.59,1.26-1.13,1.71a1.53,1.53,0,0,1-1.64.33C235,143.73,234.8,143.44,234.8,142.37Zm.72,0a1.47,1.47,0,0,0,1,1.13c.39.05,1.39-.91,1.39-1.32s-.94-1-1.35-1A1.11,1.11,0,0,0,235.52,142.34Z" transform="translate(-2.06 -2.1)"/><path class="cls-1" d="M25.28,126.31a2.39,2.39,0,0,1-1.77,1.81A1.77,1.77,0,0,1,21.69,127a2.62,2.62,0,0,1,1-2.13C23.49,124.5,25.42,125.08,25.28,126.31Zm-1.71,1.06c.35,0,1-.77,1-1.19s-.6-.69-1-.7a1.35,1.35,0,0,0-1,1.14C22.51,126.87,23.25,127.38,23.57,127.37Z" transform="translate(-2.06 -2.1)"/><path class="cls-4" d="M99,140.36a1.29,1.29,0,0,1-1.38-1,2.4,2.4,0,0,1,.44-2,1.68,1.68,0,0,1,1.82-.57c.58.09.8.64,1,1.11A2.1,2.1,0,0,1,99,140.36Zm1.17-2.09a.64.64,0,0,0-.33-.71.79.79,0,0,0-.89.08,1.87,1.87,0,0,0-.6.86,1.12,1.12,0,0,0,.5,1.09.81.81,0,0,0,1-.33C100,139,100.26,138.65,100.16,138.27Z" transform="translate(-2.06 -2.1)"/><path class="cls-5" d="M110.92,133.41c0-.19.39-.32.07-.59s-.22-.78,0-1.17.81-.46,1.27-.39a.85.85,0,0,1,.83.86c0,.57.18.75.64.92a.62.62,0,0,1,.3.82,2,2,0,0,1-1.16,1.42,1.65,1.65,0,0,1-2-.69Zm1.48-.23c-.41,0-.8,0-1,.48a.86.86,0,0,0,.32.94c.4.36.63.09.92-.13.09-.07.22-.08.31-.15s.62-.38.52-.71-.46-.36-.76-.43A1.44,1.44,0,0,0,112.4,133.18Zm-1.16-1a.58.58,0,0,0,.54.5c.41.07.82-.13.83-.44s-.23-.48-.52-.52A.72.72,0,0,0,111.24,132.17Z" transform="translate(-2.06 -2.1)"/><path class="cls-3" d="M188.49,115.1c-.15-.63.33-1,.8-1.27a1.24,1.24,0,0,1,1.54.2,6.24,6.24,0,0,0,.65.5,1,1,0,0,1,.25,1.59c-.77,1.18-1.21,1.27-2.36.47A1.56,1.56,0,0,1,188.49,115.1Zm2.81.5c-.12-.51-.49-.69-.79-.92-.5-.36-.69-.3-1.1.14s-.06.63.19.88a2.15,2.15,0,0,0,.68.46A.74.74,0,0,0,191.3,115.6Z" transform="translate(-2.06 -2.1)"/><path class="cls-1" d="M305.59,22.52c1,0,1.68.55,1.69,1.4s-.77,1.95-1.56,1.9a2.57,2.57,0,0,1-1.55-1.76A1.45,1.45,0,0,1,305.59,22.52Zm1,1.46c0-.44-.4-.72-1-.75s-.42.49-.55.75.55.89.87.94S306.54,24.55,306.56,24Z" transform="translate(-2.06 -2.1)"/><path class="cls-6" d="M202,40.52c1.19,0,1.59.38,1.6,1.52s-.38,1.59-1.41,1.6a1.73,1.73,0,0,1-1.65-1.78A1.36,1.36,0,0,1,202,40.52Zm.89,1.64c0-.86,0-.9-.55-.92s-.87.15-.9.65a1,1,0,0,0,1,1C203,42.9,202.83,42.45,202.89,42.16Z" transform="translate(-2.06 -2.1)"/><path class="cls-1" d="M134,8.35a1.5,1.5,0,0,1-1.68-1.55,1.91,1.91,0,0,1,1.42-1.53A1.7,1.7,0,0,1,135.44,7,1.35,1.35,0,0,1,134,8.35Zm.71-1.59a.69.69,0,0,0-.74-.7,1.65,1.65,0,0,0-.91.83c0,.31.54.75,1,.74S134.73,7.39,134.72,6.76Z" transform="translate(-2.06 -2.1)"/><path class="cls-1" d="M320.56,132c-1.34,0-1.9-.77-1.49-1.94a.88.88,0,0,1,.38-.43,2.76,2.76,0,0,1,2.05-.21c.65.14.91,1.31.48,1.9A1.33,1.33,0,0,1,320.56,132Zm0-.72c.61,0,.84-.15.9-.65s-.11-.57-.53-.56c-.63,0-1.09.22-1.14.57S320,131.22,320.54,131.24Z" transform="translate(-2.06 -2.1)"/><path class="cls-1" d="M136.88,108.67c-.09-.66.33-1,.92-1.29a1,1,0,0,1,1.35.33c.19.21.41.38.59.6a.81.81,0,0,1-.12,1.32,2.45,2.45,0,0,1-1.89.43C137,109.9,136.87,109.59,136.88,108.67Zm2.4.42a1.58,1.58,0,0,0-.65-.93c-.2-.19-.76,0-.95.36s0,.52.31.72C138.54,109.57,138.81,109,139.28,109.09Z" transform="translate(-2.06 -2.1)"/><path class="cls-1" d="M134.48,146.4a1.2,1.2,0,0,1,1.34-1.24,1.87,1.87,0,0,1,1.54,1.51,1.47,1.47,0,0,1-1.47,1.37A1.91,1.91,0,0,1,134.48,146.4Zm2.16.35c0-.34-.49-.9-.75-.83s-.56.12-.65.43.68,1,.83.88S136.67,147.12,136.64,146.75Z" transform="translate(-2.06 -2.1)"/><path class="cls-1" d="M15,32.18a2,2,0,0,1-1.24,1.29c-.52.28-.94-.09-1.3-.29s-.41-1.26-.1-1.73.83-.42,1.42-.32a3.5,3.5,0,0,1,.87.34A.58.58,0,0,1,15,32.18Zm-1.88.35.46-.15c.22-.07.67.14.62-.26s-.47-.5-.81-.45C12.8,31.77,13.08,32.19,13.08,32.53Z" transform="translate(-2.06 -2.1)"/><path class="cls-3" d="M234.8,16.61c0-1,.24-1.35,1.14-1.6a1.18,1.18,0,0,1,1.3.48.83.83,0,0,1-.05,1.17,6.88,6.88,0,0,1-.81.81,1.15,1.15,0,0,1-1.22.17C234.68,17.48,234.83,17,234.8,16.61Zm1.89-.72c-.09-.07-.2-.24-.33-.25-.42,0-1,.8-.8,1.19a.22.22,0,0,0,.17.12C236,17,236.73,16.23,236.69,15.89Z" transform="translate(-2.06 -2.1)"/><path class="cls-7" d="M52.18,11.48a2.08,2.08,0,0,1-2.56.49A1.28,1.28,0,0,1,49,10.24a1.5,1.5,0,0,1,2.42-.84c.3.19.65.3.83.65Zm-.47-.85A1.39,1.39,0,0,0,50.5,9.57a1.29,1.29,0,0,0-1.11,1.2c0,.42.71,1,1.32,1A1,1,0,0,0,51.71,10.63Z" transform="translate(-2.06 -2.1)"/><path class="cls-4" d="M320,69.36a1.47,1.47,0,0,1,1.48,1.1A2,2,0,0,1,320,72.08c-.6.08-1.16-.59-1.2-1.43A1.07,1.07,0,0,1,320,69.36Zm.18.74c-.18.18-.65.11-.57.47s.11.66.53.67.49-.4.57-.64S320.31,70.29,320.14,70.1Z" transform="translate(-2.06 -2.1)"/><path class="cls-1" d="M296.38,29.72a1.34,1.34,0,0,1-1.33-1.34,1.18,1.18,0,0,1,1.31-1.3c.54,0,1.49.83,1.5,1.31S296.92,29.71,296.38,29.72Zm.74-1.33a1.13,1.13,0,0,0-.82-.58.54.54,0,0,0-.44.57c.08.27.29.61.64.58S297,28.64,297.12,28.39Z" transform="translate(-2.06 -2.1)"/><path class="cls-3" d="M303.44,108.08c0-.89.35-1.25,1.26-1.3a1.9,1.9,0,0,1,1.54,1.27c0,.56-.94,1.33-1.7,1.35S303.43,109,303.44,108.08Zm2.16-.11c-.13-.1-.32-.22-.49-.36-.36-.29-.58.08-.82.19s-.17.41,0,.62a.43.43,0,0,0,.69.09C305.14,108.38,305.39,108.35,305.6,108Z" transform="translate(-2.06 -2.1)"/><path class="cls-3" d="M211.05,158.14c-.3-.06-.67.06-.85-.29a2.32,2.32,0,0,1-.09-1.4c.07-.52,1-.87,1.56-.65a2.63,2.63,0,0,1,.61.34c.83.62.85.88.15,1.68a1.81,1.81,0,0,0-.19.29Zm.4-.72a1.26,1.26,0,0,0,.41-.07.69.69,0,0,0,.3-.33s-.13-.19-.22-.25-.23-.09-.32-.15-.41-.23-.63,0a.53.53,0,0,0-.17.53C210.9,157.49,211.19,157.37,211.45,157.42Z" transform="translate(-2.06 -2.1)"/><path class="cls-3" d="M33.56,133.16a1.33,1.33,0,0,1,1.25,1.05,1.55,1.55,0,0,1-.33,1.63.83.83,0,0,1-.77.18,1.83,1.83,0,0,1-.88-2.58C33,133.18,33.1,133.16,33.56,133.16Zm.6,2.13c0-.29,0-.45,0-.6a.7.7,0,0,0-.41-.78.22.22,0,0,0-.28.15c0,.33-.17.71.16,1A3,3,0,0,0,34.16,135.29Z" transform="translate(-2.06 -2.1)"/><path class="cls-8" d="M116,27.8c0-.2-.06-.42.14-.53a2.34,2.34,0,0,1,1.3-.42,2.75,2.75,0,0,1,1.19.39,1.19,1.19,0,0,1,.25,1.86,3.63,3.63,0,0,0-.52.64c-.41.84-1.19.37-1.8.43-.34,0-1-.65-1-1,0-.2.24-.38.22-.63.27-.07.42.16.63.24.06.37.19.7.64.73s1,.11,1.33-.49c.32-.3.63-.64.4-1.09a1,1,0,0,0-1.17-.57c-.43,0-.93-.11-1.14.46Z" transform="translate(-2.06 -2.1)"/><path class="cls-1" d="M307.64,86.6c-1,0-1.33-.3-1.32-1.23s.37-1.19,1.25-1.17A1.38,1.38,0,0,1,309,85.5C309,86.27,308.57,86.6,307.64,86.6Zm.58-.93a.59.59,0,0,0-.45-.73.53.53,0,0,0-.67.34c-.14.34.16.52.41.57S308.07,86,308.22,85.67Z" transform="translate(-2.06 -2.1)"/><path class="cls-3" d="M5.33,67.4c.79,0,1.26.35,1.22,1a1.42,1.42,0,0,1-1.42,1.42c-.78,0-1.22-.43-1.2-1.24S4.29,67.38,5.33,67.4Zm0,.71a.55.55,0,0,0-.63.45c-.05.37.36.37.58.43s.6-.35.57-.6S5.6,68.12,5.32,68.11Z" transform="translate(-2.06 -2.1)"/><path class="cls-7" d="M159.63,39.31c1.05,0,1.5.43,1.49,1.38a1.58,1.58,0,0,1-1.51,1.51A1.49,1.49,0,0,1,158,40.69C158,39.75,158.51,39.31,159.63,39.31Zm0,.49c-.66,0-1.17.43-1.15.94a1.52,1.52,0,0,0,1.09,1,1.24,1.24,0,0,0,1-1.12C160.6,40.05,160.29,39.79,159.67,39.8Z" transform="translate(-2.06 -2.1)"/><path class="cls-3" d="M19.52,22.64c0-.76.33-1.11,1-1.07s1.64.87,1.62,1.34S21.3,24,20.61,24,19.52,23.58,19.52,22.64Zm1.85.21a.84.84,0,0,0-.46-.35c-.11,0-.2-.12-.3-.16s-.24-.06-.3.07a.65.65,0,0,0-.06.33C20.37,23.23,20.65,23.26,21.37,22.85Z" transform="translate(-2.06 -2.1)"/><path class="cls-3" d="M203.74,14.84c-1,0-1.09-.1-1.1-1.08s.35-1.27,1.14-1.32a1.62,1.62,0,0,1,1.44,1.32C205.22,14.29,204.47,14.84,203.74,14.84Zm.75-1.08c-.15-.16-.12-.46-.36-.56s-.75.31-.76.54a.32.32,0,0,0,.33.38A.7.7,0,0,0,204.49,13.76Z" transform="translate(-2.06 -2.1)"/><path class="cls-3" d="M166.64,127.68c0-.67,0-1,.53-1.28s.8,0,1.17.19a.67.67,0,0,1,.25.25c.28.38.95.59.57,1.25a1.75,1.75,0,0,1-1.52.64C167,128.52,166.65,128.11,166.64,127.68Zm1.88.08a2,2,0,0,0-.33-.36c-.2-.13-.27-.57-.63-.29a.39.39,0,0,0-.17.29.75.75,0,0,0,.61.62C168.15,128.05,168.33,127.86,168.52,127.76Z" transform="translate(-2.06 -2.1)"/><path class="cls-1" d="M230.24,45c0-.92.21-1.12,1.22-1.12.75,0,1.16.36,1.18,1a1.4,1.4,0,0,1-1.2,1.38C230.66,46.27,230.25,45.84,230.24,45Zm1.67,0c0-.27,0-.46-.37-.45s-.55-.05-.58.36.32.43.54.49S231.86,45.27,231.91,45.05Z" transform="translate(-2.06 -2.1)"/><path class="cls-3" d="M128,28.46c.08-.24-.2-.62.2-.89a2,2,0,0,1,1.48-.23,1.06,1.06,0,0,1,.68,1.23,2.1,2.1,0,0,1-1.87,1.14.58.58,0,0,1-.48-.47A4,4,0,0,1,128,28.46Zm.7.49a4.39,4.39,0,0,0,.62-.25c.17-.09.36-.22.29-.46s-.39-.21-.59-.18C128.54,28.14,128.77,28.53,128.72,29Z" transform="translate(-2.06 -2.1)"/><path class="cls-9" d="M272.51,58a1.22,1.22,0,0,1-1.44-1.18,1.38,1.38,0,0,1,1.38-1.45,1.54,1.54,0,0,1,1.71,1.43C274.14,57.53,273.43,58.05,272.51,58Zm.09-.5c.54,0,1-.36,1-.74s-.6-.9-1.2-.89a2.86,2.86,0,0,0-.81,1C271.6,57.19,272.13,57.54,272.6,57.54Z" transform="translate(-2.06 -2.1)"/><path class="cls-4" d="M207.2,19.14c0-.85.37-1.2,1.25-1.18.67,0,1.13.38,1.15.92a1.72,1.72,0,0,1-1.43,1.47C207.56,20.36,207.2,19.92,207.2,19.14Zm1.66-.16a.26.26,0,0,0-.17-.28.58.58,0,0,0-.73.39.34.34,0,0,0,.27.44C208.56,19.53,208.71,19.23,208.86,19Z" transform="translate(-2.06 -2.1)"/><path class="cls-3" d="M301.28,93.68c0-.73.4-1.09,1.22-1.08s1.46.64,1.41,1.14a2.08,2.08,0,0,1-1.49,1.18A1.34,1.34,0,0,1,301.28,93.68Zm1.4-.35a.53.53,0,0,0-.64.42c-.06.24.18.28.38.3s.61,0,.67-.33S302.89,93.35,302.68,93.33Z" transform="translate(-2.06 -2.1)"/><path class="cls-3" d="M169.26,20.84c-.86,0-1.19-.34-1.18-1.23a1.07,1.07,0,0,1,1-1.16c.53,0,1.34.61,1.35,1C170.49,20.4,170.1,20.84,169.26,20.84Zm0-1.65c-.23.1-.47.23-.41.49a.51.51,0,0,0,.6.43c.25,0,.33-.17.32-.39A.54.54,0,0,0,169.25,19.19Z" transform="translate(-2.06 -2.1)"/><path class="cls-1" d="M54.31,107.24l.49-.73h1.68c.51.2.47.63.49,1.07a1.34,1.34,0,0,1-.4,1.05,1.5,1.5,0,0,1-2.26-.18Zm1.31-.24a.8.8,0,0,0-.8.89c.09.49.62.32.93.5s.76-.61.69-.93S56,107,55.62,107Z" transform="translate(-2.06 -2.1)"/><path class="cls-10" d="M90.08,109c0-.85.32-1.25,1.06-1.26a1.45,1.45,0,0,1,1.31,1.16c0,.54-.77,1.32-1.42,1.37C90.62,110.28,90.09,109.57,90.08,109Zm1.17.41a.49.49,0,0,0,.46-.44.42.42,0,0,0-.41-.47.43.43,0,0,0-.46.42C90.81,109.16,91,109.3,91.25,109.39Z" transform="translate(-2.06 -2.1)"/><path class="cls-1" d="M126.64,125.72a1,1,0,0,1,1.12,1.06,1.43,1.43,0,0,1-1.27,1.32,1.07,1.07,0,0,1-1.13-1.08C125.33,126.16,125.74,125.74,126.64,125.72Zm-.09.74a.5.5,0,0,0-.44.48.42.42,0,0,0,.48.41.52.52,0,0,0,.45-.59C127,126.52,126.89,126.42,126.55,126.46Z" transform="translate(-2.06 -2.1)"/><path class="cls-11" d="M118.28,140.15c.73,0,1.45.52,1.46,1.09a1.67,1.67,0,0,1-1.55,1.51c-.91,0-1.33-.38-1.4-1.31C116.76,140.94,117.65,140.16,118.28,140.15Zm1,1.08c0-.22-.67-.62-1-.59a1.05,1.05,0,0,0-.89,1,.88.88,0,0,0,.95.65A1.48,1.48,0,0,0,119.27,141.23Z" transform="translate(-2.06 -2.1)"/><path class="cls-1" d="M7.76,40.22c0-.89.3-1.36.93-1.38a1.39,1.39,0,0,1,1.23,1.34c0,.68-.39,1-1.13,1.06S7.77,41.12,7.76,40.22ZM9.18,40a.47.47,0,0,0-.48-.39c-.26,0-.21.28-.22.47s.07.46.39.44S9.21,40.37,9.18,40Z" transform="translate(-2.06 -2.1)"/><path class="cls-12" d="M205.8,70.75c-.22.32-.59.38-.9.52a1.19,1.19,0,0,1-1.43-.33,1.73,1.73,0,0,1,0-2,1.24,1.24,0,0,1,1.5-.15,1.9,1.9,0,0,1,.87.76Zm-.55-.25c0-.19,0-.39.05-.59.1-.49-.31-.64-.61-.72s-.69.11-.91.5,0,.65.3.84C204.67,71,204.67,71,205.25,70.5Z" transform="translate(-2.06 -2.1)"/><path class="cls-4" d="M316.4,85.91c0-.88.18-1,1.07-1,.6,0,1.35.66,1.32,1.12s-.84,1.06-1.51,1S316.38,86.9,316.4,85.91Zm1.05.44c.3,0,.55-.15.55-.35s-.25-.37-.52-.36-.36.12-.36.35S317.24,86.35,317.45,86.35Z" transform="translate(-2.06 -2.1)"/><path class="cls-7" d="M285,105.34a1.09,1.09,0,0,1-1.21,1.11,2.29,2.29,0,0,1-1.87-1,.54.54,0,0,1,0-.45c.32-.5.46-1.17,1.16-1.35h1.38l.54.52C285,104.56,285,105,285,105.34Zm-1.23.46a.93.93,0,0,0,1-1,.94.94,0,0,0-1-.92,1.44,1.44,0,0,0-1.14,1.18C282.55,105.52,283,105.81,283.74,105.8Z" transform="translate(-2.06 -2.1)"/><path class="cls-12" d="M251.85,35.27c-.89-.53-1-1-.47-1.88A1.45,1.45,0,0,1,253.3,33c.73.53,1.09,1.16.19,1.9l-.46.37Zm.55-.5c.57,0,1.1-.36,1.11-.8s-.37-.61-.85-.65a1,1,0,0,0-1,.91C251.66,34.66,252,34.8,252.4,34.77Z" transform="translate(-2.06 -2.1)"/><path class="cls-13" d="M95.37,65a1.47,1.47,0,0,1-1.48,1.5,1.44,1.44,0,0,1-1.17-1.55,1.4,1.4,0,0,1,1.39-1.32A1.18,1.18,0,0,1,95.37,65Zm-.49-.11a.82.82,0,0,0-.71-.76,1.21,1.21,0,0,0-1,1,1,1,0,0,0,.85.82A1,1,0,0,0,94.88,64.84Z" transform="translate(-2.06 -2.1)"/><path class="cls-12" d="M250.89,108.38a1.43,1.43,0,0,1-1.4,1.44,1.77,1.77,0,0,1-1.5-1.35,1.16,1.16,0,0,1,1.22-1.24C250.4,107.21,250.88,107.53,250.89,108.38Zm-.5.09a1,1,0,0,0-1.08-1c-.27,0-.59.44-.62.85a.85.85,0,1,0,1.7.11Z" transform="translate(-2.06 -2.1)"/><path class="cls-14" d="M185.09,104.37c0,.39.2.83-.14,1.13a2.74,2.74,0,0,1-1.34.69c-.67.11-1.6-.79-1.74-1.6a1.47,1.47,0,0,1,1.66-1.5,1.68,1.68,0,0,1,.86.35.28.28,0,0,1-.27.22c-.4,0-.72-.51-1.2-.11a1.2,1.2,0,0,0-.41,1.26c.07.42.59.72,1.07.77s.85-.31,1.09-.74C185,104.81,184.8,104.4,185.09,104.37Z" transform="translate(-2.06 -2.1)"/><path class="cls-15" d="M249.92,90.44c-.4-.5-.78-1-.44-1.7a1.2,1.2,0,0,1,1.24-.71c.65,0,1.4.37,1.54.89a1.36,1.36,0,0,1-.22,1.44c-.33.31-.59.8-1.18.59,0-.33.49-.19.5-.51a3.37,3.37,0,0,0,.29-.37c.32-.55.28-.91-.1-1.26a1.13,1.13,0,0,0-1.22-.22c-.36.12-.41.71-.15,1.34Z" transform="translate(-2.06 -2.1)"/><path class="cls-13" d="M322.84,33.08a1.33,1.33,0,0,1-1.37-1.88,1,1,0,0,1,1.51-.29,2,2,0,0,1,.61,1.83C323.53,33.23,323.12,33,322.84,33.08ZM323.1,32c-.12-.27-.11-.73-.5-.76-.23,0-.66.07-.66.49a.59.59,0,0,0,.66.64C322.83,32.38,323.08,32.36,323.1,32Z" transform="translate(-2.06 -2.1)"/><path class="cls-13" d="M116,119.24a3,3,0,0,1,.47,1.49c.07.38-.38.85-.78.91s-.84,0-.88-.54c0-.32-.23-.35-.41-.49-.89-.72-.83-1.2.18-1.76a1.8,1.8,0,0,1,.22-.06v.42c-.24.18-.6.3-.38.7a.66.66,0,0,0,.83.25.55.55,0,0,0,.49-.67A.27.27,0,0,0,116,119.24Zm-.65,1.61c0,.2.06.25.17.28a.53.53,0,0,0,.64-.34s-.13-.23-.21-.24A.6.6,0,0,0,115.35,120.85Z" transform="translate(-2.06 -2.1)"/><path class="cls-16" d="M88.63,95.93c-.52.28-1,.61-1.66.3s-.93-.45-1-1.12a1.19,1.19,0,0,1,.87-1.35,1.29,1.29,0,0,1,1.52,0,.29.29,0,0,1-.28.26,1.36,1.36,0,0,0-1.42.61c-.3.44-.27.71.21.91a1.3,1.3,0,0,0,1.5-.1C88.67,95.54,88.64,95.74,88.63,95.93Z" transform="translate(-2.06 -2.1)"/><path class="cls-3" d="M62.72,123.16c0-.82.18-1.07.76-1a1.25,1.25,0,0,1,1.16,1.21,1,1,0,0,1-1.11.94C62.85,124.27,62.72,124.09,62.72,123.16Zm1-.28c-.21,0-.23.17-.22.32s0,.32.23.32.23-.17.23-.32S63.88,122.89,63.67,122.88Z" transform="translate(-2.06 -2.1)"/><path class="cls-17" d="M185.12,109.38c0-.76.36-1.12,1.18-1.14a1.12,1.12,0,0,1,1.14.82,1.49,1.49,0,0,1-1.18,1.51A1.07,1.07,0,0,1,185.12,109.38Zm1.06-.49c-.26,0-.57,0-.57.41s.48.82.75.76.46-.36.46-.71S186.5,108.9,186.18,108.89Z" transform="translate(-2.06 -2.1)"/><path class="cls-8" d="M148.16,130.75a1.6,1.6,0,0,1-1.47,1.36c-.35,0-1-.73-.94-1.16a1.08,1.08,0,0,1,1.17-1.15C147.67,129.79,148.16,130.16,148.16,130.75Zm-1.41.72c.44,0,.7-.29.71-.78,0-.23-.06-.37-.31-.4a.87.87,0,0,0-.85.65A.48.48,0,0,0,146.75,131.47Z" transform="translate(-2.06 -2.1)"/><path class="cls-18" d="M107.36,107.82a1.54,1.54,0,0,1-1.22,1.09,1.05,1.05,0,0,1-.92-1,1.07,1.07,0,0,1,1-1.12A1.29,1.29,0,0,1,107.36,107.82Zm-.74-.1c0-.2-.17-.23-.33-.24s-.4.08-.31.33.22.33.29.32A.46.46,0,0,0,106.62,107.72Z" transform="translate(-2.06 -2.1)"/><path class="cls-19" d="M316.15,34.3c-.64-.47-.42-1.17-.38-1.78,0-.24.33-.5.57-.68.71-.52,2.11-.12,2.25.71.09.58.24,1.33-.51,1.74a.27.27,0,0,0-.26-.26,1.74,1.74,0,0,0,.29-.87c.06-.64-.12-.95-.7-1-.82-.12-1.29.64-1,1.66C316.1,33.87,316.18,34.11,316.15,34.3Z" transform="translate(-2.06 -2.1)"/><path class="cls-20" d="M25.28,40.15c0,.62-.3.86-1.13.85-.58,0-.77-.19-.79-.77a1,1,0,1,1,1.92-.08Z" transform="translate(-2.06 -2.1)"/><path class="cls-21" d="M179.11,138.46c-1.38-.45-1.67-.88-1.32-2a1.28,1.28,0,0,1,1.86-.92,1.44,1.44,0,0,1,1.12,1.22c-.29,0-.14.43-.41.47a1.17,1.17,0,0,0-.56-1.1,1,1,0,0,0-1.48.36c-.3.46-.17.88.39,1.23l.41.23Z" transform="translate(-2.06 -2.1)"/><path class="cls-12" d="M218.66,170.91c0-1,0-1,.89-1,.24,0,.48,0,.72,0a.58.58,0,0,1,.49.29,2,2,0,0,1-.84,2.1,1.37,1.37,0,0,1-1.34-1.17C218.57,171.05,218.63,171,218.66,170.91Zm1.78-.54c-.53,0-1-.26-1.22.22a.94.94,0,0,0,.18,1c.2.25.44.23.57,0A8.74,8.74,0,0,0,220.44,170.37Z" transform="translate(-2.06 -2.1)"/><path class="cls-22" d="M212.48,90.45l.23.23c.81.81.61,1.62-.45,1.91a1.31,1.31,0,0,1-1.7-1c-.12-.62.3-.93.73-1.22Zm0,1.4c.4-.22.41-.45,0-.69-.27-.44-.7-.24-1-.19s-.45.45-.17.78A.73.73,0,0,0,212.47,91.85Z" transform="translate(-2.06 -2.1)"/><path class="cls-23" d="M212,17.67a.82.82,0,0,1-.72-.8,2.36,2.36,0,0,1,.1-1.29,1.53,1.53,0,0,1,1.6-.49,1.41,1.41,0,0,1,.77,1.43c-.07.37-.06.83-.56,1S212.36,17.3,212,17.67Zm-.24-1.3c0,.63.17.86.71.86a.88.88,0,0,0,.86-.81.86.86,0,0,0-.8-.86C212,15.55,211.79,15.78,211.77,16.37Z" transform="translate(-2.06 -2.1)"/><path class="cls-24" d="M78.8,46a.24.24,0,0,1-.24-.24c0-.65-.35-1.34.29-1.89l.47,0a.86.86,0,0,1,.88.65,1,1,0,0,1-.42,1.13A2,2,0,0,1,78.8,46Z" transform="translate(-2.06 -2.1)"/><path class="cls-3" d="M232.16,155.19a1.15,1.15,0,0,1-1.22,1.23,1.42,1.42,0,0,1-.94-1,1.57,1.57,0,0,1,1.22-1.09A.84.84,0,0,1,232.16,155.19Zm-.76-.18c-.3,0-.54.08-.58.38,0,.09.18.27.31.3s.43-.17.51-.38S231.61,155,231.4,155Z" transform="translate(-2.06 -2.1)"/><path class="cls-10" d="M243.44,42.72c0-.8.14-1,.79-1a1,1,0,0,1,1.12.81,1.26,1.26,0,0,1-1.15,1.11C243.66,43.67,243.45,43.42,243.44,42.72Z" transform="translate(-2.06 -2.1)"/><path class="cls-23" d="M163.76,44.44c0-.69.31-1,1-1,.81,0,1.42.37,1.44.91a1.45,1.45,0,0,1-1.47,1.23C163.9,45.55,163.75,45.38,163.76,44.44Zm1.88-.12a.74.74,0,0,0-.73-.38c-.26,0-.65.1-.66.52a.53.53,0,0,0,.56.61A1,1,0,0,0,165.64,44.32Z" transform="translate(-2.06 -2.1)"/><path class="cls-13" d="M46.88,77.25a1.6,1.6,0,0,1,.74,1.45,1,1,0,0,1-.67.89,1.1,1.1,0,0,1-1.12-.14,2.28,2.28,0,0,1-.76-1.52c0-.34.35-.55.62-.75Zm.45,1.22c0-.28-.51-.75-.92-.74-.26,0-.67-.15-.72.35a1,1,0,0,0,.75,1A1.06,1.06,0,0,0,47.33,78.47Z" transform="translate(-2.06 -2.1)"/><path class="cls-25" d="M253.26,12.93c.44,0,.81-.41,1.29-.22.56.5.27,1.24.5,1.83a1.52,1.52,0,0,1-1.07.29c-.17-.51-.77-.68-1-1.19C253.11,13.41,253.37,13.23,253.26,12.93Z" transform="translate(-2.06 -2.1)"/><path class="cls-23" d="M268.87,39.05c1,.84,1,.89.25,1.94l-1.19,0c-.77-.11-.62-.88-.88-1.34-.08-.13.2-.63.64-.64Zm-.56.48c-.24,0-.61-.09-.61.35a.64.64,0,0,0,.68.67c.36,0,.67-.09.69-.47S268.7,39.55,268.31,39.53Z" transform="translate(-2.06 -2.1)"/><path class="cls-23" d="M28.89,83.6A1,1,0,0,1,30,82.52c.51,0,1.25.64,1.26,1.07s-.73,1.08-1.24,1.09A1,1,0,0,1,28.89,83.6Zm1.32.59a.53.53,0,0,0,.48-.58A.68.68,0,0,0,30,83c-.27,0-.71.41-.61.58S29.81,84.2,30.21,84.19Z" transform="translate(-2.06 -2.1)"/><path class="cls-26" d="M24,66c-.59,0-1.2-.45-1.13-.93a3.48,3.48,0,0,1,.48-1c.17-.32.49-.19.74-.19a1,1,0,0,1,1.14.92A1.13,1.13,0,0,1,24,66Zm.73-1.21c-.09-.33-.28-.51-.61-.47s-.55.37-.56.77.26.43.56.42C24.65,65.45,24.62,65,24.77,64.75Z" transform="translate(-2.06 -2.1)"/><path class="cls-23" d="M4.4,86.28c0,.78-.42,1.28-1.06,1.26a1.46,1.46,0,0,1-1.28-1c0-.49.76-1.13,1.39-1.13S4.41,85.62,4.4,86.28Zm-.94-.41a.63.63,0,0,0-.69.51c0,.27.49.76.71.65a.87.87,0,0,0,.43-.76C3.93,86,3.74,85.86,3.46,85.87Z" transform="translate(-2.06 -2.1)"/><path class="cls-6" d="M250.15,164.12l-.94.48a5.22,5.22,0,0,0-.4-.52c-.67-.72-.71-.86-.31-1.48.3-.47.59-.53,1.44-.25l.21.09Zm-.48-.28V163a.25.25,0,0,0-.18-.26c-.15,0-.2.05-.27.15C248.83,163.42,249.23,163.6,249.67,163.84Z" transform="translate(-2.06 -2.1)"/><path class="cls-27" d="M6.8,105.9A1.14,1.14,0,0,1,5.66,107a1.55,1.55,0,0,1-1-1.41,1,1,0,0,1,1-1A1.12,1.12,0,0,1,6.8,105.9Zm-.48-.12c.06-.51-.38-.58-.68-.64s-.5.18-.51.51.44.84.71.81S6.33,106.12,6.32,105.78Z" transform="translate(-2.06 -2.1)"/><path class="cls-28" d="M81.64,39.57a1.26,1.26,0,0,1,1.16,1.24A1.35,1.35,0,0,1,81.69,42a1.27,1.27,0,0,1-1.19-1A1.25,1.25,0,0,1,81.64,39.57Zm-.56,1.17c0,.35.47.82.68.69s.64-.36.62-.8a.55.55,0,0,0-.62-.57A.78.78,0,0,0,81.08,40.74Z" transform="translate(-2.06 -2.1)"/><path class="cls-14" d="M62.27,84.55c0-.84.26-1.09,1-1.07a1.05,1.05,0,0,1,1.08,1c0,.61-.86,1.43-1.37,1.38S62.25,85.28,62.27,84.55Zm1.6-.14a.62.62,0,0,0-.6-.46c-.26,0-.58.62-.53.94s.33.34.53.41S63.9,84.69,63.87,84.41Z" transform="translate(-2.06 -2.1)"/><path class="cls-29" d="M220.44,15.56c.74,0,1.16.39,1.16,1a1,1,0,0,1-1.1,1.11,1.12,1.12,0,0,1-1.06-1.16C219.5,15.87,219.82,15.55,220.44,15.56Zm.16.48c-.32-.08-.47.11-.46.46s-.1.68.37.75.61-.26.63-.7S221,16,220.6,16Z" transform="translate(-2.06 -2.1)"/><path class="cls-15" d="M51.07,135.32a1,1,0,0,1,1.09,1.08,1.17,1.17,0,0,1-1,1.08c-.44,0-1.07-.63-1.11-1.14A1.12,1.12,0,0,1,51.07,135.32Zm.1,1.45c.3,0,.52-.08.53-.45s-.05-.48-.36-.5a.52.52,0,0,0-.62.54C50.7,136.67,50.87,136.78,51.17,136.77Z" transform="translate(-2.06 -2.1)"/><path class="cls-22" d="M305.8,137.73a1.49,1.49,0,0,1,.3,1.49c-.25.58-.87,1.18-1.35,1.08-.29-.06-.53-.32-.81-.43s-.19-.48-.33-.69c-.3-.42-.12-.82.09-1.22a.27.27,0,0,1,.23.27,1.49,1.49,0,0,0,.15.8c.26.45.93.81,1.26.56a.9.9,0,0,0,.3-1.11,3.31,3.31,0,0,1-.07-.47A.29.29,0,0,1,305.8,137.73Z" transform="translate(-2.06 -2.1)"/><path class="cls-22" d="M151.24,98.36c.81,0,1,.17,1,.94s-.18,1-.87,1-1.33-.37-1.3-.87A1.12,1.12,0,0,1,151.24,98.36Zm.54.93c0-.27-.08-.47-.4-.44a.56.56,0,0,0-.59.6c0,.31.27.32.51.33S151.79,99.62,151.78,99.29Z" transform="translate(-2.06 -2.1)"/><path class="cls-7" d="M253.68,85.64c.76,0,1.23.35,1.27.94s-.47,1-1.2,1a1.05,1.05,0,0,1-1.14-1.06C252.6,86,253,85.63,253.68,85.64Zm-.05.47a.31.31,0,0,0-.35.39.63.63,0,0,0,.74.58c.26,0,.47-.1.43-.4S254.13,86.08,253.63,86.11Z" transform="translate(-2.06 -2.1)"/><path class="cls-7" d="M78.8,46a2,2,0,0,0,1-.37,1,1,0,0,0,.42-1.13.86.86,0,0,0-.88-.65l-.47,0c-.19,0-.45.05-.52-.24,1.2-.5,1.62-.43,2.42.46v1.18a3.7,3.7,0,0,1-1.08,1C79.17,46.61,79,46.44,78.8,46Z" transform="translate(-2.06 -2.1)"/><path class="cls-22" d="M48.07,107c.79,0,1,.17,1,.95s-.35,1.16-1,1.17a1,1,0,0,1-.92-1.1C47.15,107.25,47.37,107,48.07,107Zm.13,1.59a.57.57,0,0,0,.38-.66c0-.27-.08-.47-.4-.45a.56.56,0,0,0-.56.62C47.63,108.48,48,108.46,48.2,108.6Z" transform="translate(-2.06 -2.1)"/><path class="cls-23" d="M167.32,87.07a1.68,1.68,0,0,1-2,.41c-.81-.41-1.07-.89-.45-1.77.15-.22.29-.49.62-.48l.24.45a3.7,3.7,0,0,1-.29.6c-.25.49,0,.59.35.74.51.24.9-.11,1.34-.25A.3.3,0,0,0,167.32,87.07Z" transform="translate(-2.06 -2.1)"/><path class="cls-7" d="M28.16,127.4A1,1,0,0,1,27,126.28c0-.54.69-1.28,1.15-1.27s1.19.67,1.2,1C29.38,127,29,127.4,28.16,127.4Zm.72-1.06c0-.63-.17-.81-.72-.85s-.47.39-.47.71c0,.66,0,.69.6.72S28.94,126.76,28.88,126.34Z" transform="translate(-2.06 -2.1)"/><path class="cls-27" d="M32.62,86.56c-.22,0-.84-.83-.85-1.13a1.08,1.08,0,0,1,2.13-.18A1.59,1.59,0,0,1,32.62,86.56Zm.77-1.27c-.15-.15-.25-.35-.53-.36s-.38.2-.38.46,0,.49.35.5S33.22,85.56,33.39,85.29Z" transform="translate(-2.06 -2.1)"/><path class="cls-30" d="M5.85,91.66a1.15,1.15,0,0,1-1,.42,1.2,1.2,0,0,1-1.11-1.29c.17-1,.55-1.17,1.53-.86.21.06.49-.06.61.24a.29.29,0,0,1-.23.27.7.7,0,0,0-1.1,0,.62.62,0,0,0,0,.85.7.7,0,0,0,1.16-.13C5.9,91.25,5.82,91.48,5.85,91.66Z" transform="translate(-2.06 -2.1)"/><path class="cls-31" d="M121.72,142c.73,0,1.24.38,1.24,1a1,1,0,0,1-1.12,1c-.83,0-1-.14-1-.9S121,142.06,121.72,142Zm.12,1.44c.22,0,.56.09.61-.3a.58.58,0,0,0-1.15-.15C121.25,143.4,121.5,143.49,121.84,143.48Z" transform="translate(-2.06 -2.1)"/><path class="cls-32" d="M91,96c.68,0,1.25.39,1.27.82a1.63,1.63,0,0,1-1.29,1.32c-.38,0-.83-.72-.84-1.29S90.32,95.94,91,96Zm.76.82c0-.17-.48-.55-.67-.52a.52.52,0,0,0-.39.52c0,.29.12.64.53.65S91.53,97,91.71,96.77Z" transform="translate(-2.06 -2.1)"/><path class="cls-19" d="M40.56,93.33c-.67,0-.88-.18-.89-.82s.41-1.39.88-1.32,1.35.59,1.3,1.18A1.22,1.22,0,0,1,40.56,93.33Zm.78-.93c0-.31-.52-.77-.75-.71s-.42.41-.42.76.2.37.46.38A.67.67,0,0,0,41.34,92.4Z" transform="translate(-2.06 -2.1)"/><path class="cls-23" d="M43.56,96c-.3,0-.67.06-.85-.27a2.67,2.67,0,0,1-.36-1c0-.36.66-.71,1.3-.71s1.07.31,1.06.76A1.12,1.12,0,0,1,43.56,96Zm.16-1.65c-.21.21-.69.11-.68.55a.57.57,0,0,0,.6.61.56.56,0,0,0,.59-.61C44.24,94.54,44,94.39,43.72,94.32Z" transform="translate(-2.06 -2.1)"/><path class="cls-15" d="M20.54,66.25a1.4,1.4,0,0,1,1.14,1.18,1.54,1.54,0,0,1-1.17,1.16.52.52,0,0,1-.22-.07,1.42,1.42,0,0,1-.17-2.08C20.24,66.34,20.36,66.22,20.54,66.25Zm0,.51a3.53,3.53,0,0,0-.28.5c-.08.23-.1.48.18.6a.56.56,0,0,0,.56,0,.46.46,0,0,0,.09-.63A.87.87,0,0,0,20.57,66.76Z" transform="translate(-2.06 -2.1)"/><path class="cls-12" d="M48.78,27.07A1.28,1.28,0,0,1,50,25.89c.72-.08,1.14.44,1.61.83a.54.54,0,0,1,.16.62c-.17.4.06,1-.56,1.18-.14,0-.22-.07-.23-.21a4.93,4.93,0,0,0,.22-.53,1,1,0,0,0-.57-1.32c-.45-.24-.79-.09-1.21.55l-.17.31Z" transform="translate(-2.06 -2.1)"/><path class="cls-33" d="M219,92.74c0,.62-.42,1.3-.78,1.29s-1.34-.71-1.36-1.09.67-1.07,1.3-1.07S219,92.14,219,92.74Zm-.27.06c-.11-.14-.2-.37-.47-.41a.56.56,0,0,0-.69.48c0,.29.11.42.41.45A.64.64,0,0,0,218.7,92.8Z" transform="translate(-2.06 -2.1)"/><path class="cls-23" d="M289.76,106.51c.9-.34,1.41-.28,1.76.24a1.33,1.33,0,0,1-.22,1.63,1.91,1.91,0,0,1-2,.21c0-.18,0-.35.24-.39s.69,0,1,0,.6-.3.63-.68-.1-.69-.55-.72c-.19,0-.39,0-.58,0A.33.33,0,0,1,289.76,106.51Z" transform="translate(-2.06 -2.1)"/><path class="cls-17" d="M49,76.75c.83,0,1.24.35,1.23,1.09s-.23.86-1,.84c-.22,0-.5.08-.64-.19a4.77,4.77,0,0,1-.49-1C48,77.16,48.62,76.76,49,76.75Zm.74,1a.55.55,0,0,0-.48-.67c-.32,0-.48.22-.46.53a.56.56,0,0,0,.56.6C49.7,78.21,49.77,78,49.76,77.73Z" transform="translate(-2.06 -2.1)"/><path class="cls-34" d="M168.69,42.19c.73,0,1.33.43,1.29.9a1.07,1.07,0,0,1-1.06,1,1.09,1.09,0,0,1-1.09-1.23C167.84,42.37,168.07,42.19,168.69,42.19Zm.78,1c-.07-.38-.32-.49-.68-.48s-.48,0-.45.38.39.48.67.54S169.39,43.38,169.47,43.16Z" transform="translate(-2.06 -2.1)"/><path class="cls-22" d="M115,84.46c.68,0,1.26.45,1.24,1s-.6.9-1.21.87a1.49,1.49,0,0,1-.92-.79A1.11,1.11,0,0,1,115,84.46Zm.72.93a.5.5,0,0,0-.48-.43.42.42,0,0,0-.41.36c0,.34.23.35.47.35S115.69,85.65,115.72,85.39Z" transform="translate(-2.06 -2.1)"/><path class="cls-12" d="M283.36,47.24a1.15,1.15,0,0,1,1.11,1.11,1.08,1.08,0,0,1-1,.81c-.67,0-.88-.21-.9-.93S282.71,47.25,283.36,47.24Zm.63.91c-.15-.14-.22-.43-.56-.42s-.37.11-.38.34a.52.52,0,0,0,.46.57C283.76,48.68,283.91,48.48,284,48.15Z" transform="translate(-2.06 -2.1)"/><path class="cls-35" d="M307.26,65.24a5,5,0,0,1,0,1,1.24,1.24,0,0,1-1.14,1,1.26,1.26,0,0,1-1.2-.92,2.48,2.48,0,0,1,0-1c.07-.23.39-.34.65-.42l0,.28a1.13,1.13,0,0,0,.05,1.31c.38.45.9.4,1.1-.16a2.49,2.49,0,0,1,.22-.65A.36.36,0,0,1,307.26,65.24Z" transform="translate(-2.06 -2.1)"/><path class="cls-36" d="M111.32,84.44c.63,0,.85.23.84.86a1,1,0,0,1-1,1,1.2,1.2,0,0,1-.91-1.06C110.23,84.84,110.74,84.44,111.32,84.44Zm.12.49c-.26,0-.43.06-.48.29a.51.51,0,0,0,.4.62c.22.06.31-.17.33-.38S111.73,85,111.44,84.93Z" transform="translate(-2.06 -2.1)"/><path class="cls-23" d="M108.81,120.74a1.83,1.83,0,0,1,1.59.21c.51.44.68.89.47,1.34-.4.84-.83,1.13-1.54,1a2.16,2.16,0,0,1-.52-.27l.23-.42c.35.14.72.46,1,0,.19-.28.48-.51.3-1s-.59-.46-1-.47H109Z" transform="translate(-2.06 -2.1)"/><path class="cls-17" d="M278,111.74c-.72-.53-.86-.85-.63-1.51s.4-.82,1.08-.84c1,0,1.11.07,1.44,1-.28,0-.14.42-.4.47,0-.51-.13-.94-.78-1a.82.82,0,0,0-.84.5c-.32.54.2.65.4.94C278,111.35,278,111.54,278,111.74Z" transform="translate(-2.06 -2.1)"/><path class="cls-22" d="M117.45,121a.82.82,0,0,1-.48-.5,1.24,1.24,0,0,1,.35-1.18,2.27,2.27,0,0,1,1.58.1c.37.39.24.78,0,1.18-.08.14-.12.29-.28.37Zm1.17-1a.5.5,0,0,0-.52-.48.54.54,0,0,0-.63.53.33.33,0,0,0,.31.4A.68.68,0,0,0,118.62,120Z" transform="translate(-2.06 -2.1)"/><path class="cls-21" d="M249.41,66.93c.05.21.35.36.19.63a2.49,2.49,0,0,1-.59.87,1.53,1.53,0,0,1-1.55-.08.94.94,0,0,1-.35-1.24c.08-.2,0-.58.42-.61l.24.44c-.2.31-.35.58,0,.89.64.51.93.39,1.36-.61A.29.29,0,0,1,249.41,66.93Z" transform="translate(-2.06 -2.1)"/><path class="cls-13" d="M87,167.72a1.89,1.89,0,0,1-2.42.46.85.85,0,0,1-.39-.56,1.62,1.62,0,0,1,.21-1.57c.27.08.18.32.22.5s.17.25.14.31c-.27.55,0,.69.48.93.65.36,1-.16,1.51-.31A.25.25,0,0,1,87,167.72Z" transform="translate(-2.06 -2.1)"/><path class="cls-34" d="M263.6,155.64c-.76-.52-.86-.7-.69-1.23s.51-.83,1.31-.87a1.25,1.25,0,0,1,1.21.54c.16.24.22.51-.11.69h-.27c0-.34.06-.65-.48-.75-.36-.07-.58-.08-.79.18a.6.6,0,0,0,.05.93.44.44,0,0,1,.06.1C263.64,155.26,263.6,155.43,263.6,155.64Z" transform="translate(-2.06 -2.1)"/><path class="cls-7" d="M87.68,133.25c0-.64.21-.83.87-.81a1,1,0,0,1,1,.91,1.09,1.09,0,0,1-1.09,1A1,1,0,0,1,87.68,133.25Zm1,.64a.69.69,0,0,0,.46-.56c0-.3-.16-.41-.43-.41s-.48,0-.51.31S88.32,133.73,88.65,133.89Z" transform="translate(-2.06 -2.1)"/><path class="cls-5" d="M198.57,143c-.28.64-.83.44-1.32.45a.6.6,0,0,1-.61-.45c-.2-.42-.46-.83,0-1.28a1.72,1.72,0,0,1,1.52-.5l.44.13c0,.15-.13.21-.27.23-.39,0-.79-.06-1.09.3-.14.18-.4.31-.19.59s.12.54.54.53a2.43,2.43,0,0,0,.78-.22A.24.24,0,0,0,198.57,143Z" transform="translate(-2.06 -2.1)"/><path class="cls-23" d="M42.09,22.35c.35-.06.72-.15,1,.14a2.82,2.82,0,0,1,.62.72c.19.36-.27,1.49-.65,1.8a.37.37,0,0,1-.52,0c-.23-.15-.48-.27-.72-.4,0-.21,0-.42.27-.46.31.14.6.43,1,.08a.88.88,0,0,0,.16-1,.8.8,0,0,0-.86-.48C42.12,22.74,42.07,22.57,42.09,22.35Z" transform="translate(-2.06 -2.1)"/><path class="cls-5" d="M237.92,108.21a1.72,1.72,0,0,1-.29-2.21,1.58,1.58,0,0,1,2.21-.44.28.28,0,0,1-.28.26c-1.56,0-1.94.49-1.4,1.9Z" transform="translate(-2.06 -2.1)"/><path class="cls-13" d="M261.67,40.3c0,.62-.35.74-.84.7s-1.06-.61-1.06-1a1.46,1.46,0,0,1,.77-.95c.57-.14.83,0,1.12.66a.69.69,0,0,1-.55-.13.4.4,0,0,0-.53,0,.41.41,0,0,0,0,.54c.13.19.3.4.57.23A.69.69,0,0,1,261.67,40.3Z" transform="translate(-2.06 -2.1)"/><path class="cls-22" d="M10.42,46.29c.64,0,.9.18.95.75s-.26,1-1,1c-.34,0-.66-.35-.7-.86S9.85,46.31,10.42,46.29Zm-.22.94a.31.31,0,0,0,.35.26.32.32,0,0,0,.34-.37c0-.21-.11-.39-.37-.31A.43.43,0,0,0,10.2,47.23Z" transform="translate(-2.06 -2.1)"/><path class="cls-37" d="M109.79,13.17c-.94-.3-1-.41-.21-1.24.31-.28.6-.12.89,0,.31,0,.53.07.49.45,0,.19,0,.39,0,.58A1.8,1.8,0,0,1,109.79,13.17Z" transform="translate(-2.06 -2.1)"/><path class="cls-17" d="M305.89,129.43a1.28,1.28,0,0,1,1.39-.61c.31,0,.56.1.67.38a.85.85,0,0,1-.12.89,1,1,0,0,1-1.69-.13C306.05,129.79,306,129.61,305.89,129.43Zm1.1-.32c-.17.13-.43.22-.42.56s.1.36.34.36.54-.11.58-.43S307.27,129.22,307,129.11Z" transform="translate(-2.06 -2.1)"/><path class="cls-38" d="M83.84,41.72a3.28,3.28,0,0,0,.27.38.59.59,0,0,1,0,.93.89.89,0,0,1-1.06.3c-.35-.16-.42-.66-.44-1s.47-.5.59-.81C83.44,41.41,83.6,41.67,83.84,41.72Zm-.37.49c-.26,0-.35.13-.34.35s0,.34.23.32a.45.45,0,0,0,.43-.44C83.79,42.23,83.6,42.23,83.47,42.21Z" transform="translate(-2.06 -2.1)"/><path class="cls-23" d="M307.93,132.44a.83.83,0,0,1-.85-.87,1,1,0,0,1,.89-.8,1,1,0,0,1,1,1C308.93,132.25,308.63,132.45,307.93,132.44Zm.54-.77a.34.34,0,0,0-.32-.42.46.46,0,0,0-.53.36c0,.14.19.34.43.35S308.44,131.92,308.47,131.67Z" transform="translate(-2.06 -2.1)"/><path class="cls-7" d="M257.14,93.59c-.34.52-.64.55-1.25.47s-.67-.45-.67-.9c0-.91.38-1.22,1.41-1.25l-.23.41c-.37.29-.92.56-.61,1.09.19.31.7.26,1.06,0a.26.26,0,0,0,.07-.1A.3.3,0,0,1,257.14,93.59Z" transform="translate(-2.06 -2.1)"/><path class="cls-12" d="M107.15,87.55c-.31-.3-.64-.59-.46-1.09.26-.73.66-.88,1.58-.56.56.19.74.71.5,1.41a.3.3,0,0,1-.24-.29c0-.77-.63-.67-1.14-.73,0,.38-.2.77.21,1.06C107.53,87.6,107.33,87.55,107.15,87.55Z" transform="translate(-2.06 -2.1)"/><path class="cls-7" d="M268.88,160.27c.86-.35,1-.32,1.53.22a.93.93,0,0,1,.24,1.27,1.65,1.65,0,0,1-1.25.91c-.16,0-.34-.17-.51-.26a.22.22,0,0,1,.24-.21,1,1,0,0,0,.87-.28c.29-.27.49-.53.23-.93s-.57-.5-1.15-.23C268.83,160.67,268.89,160.46,268.88,160.27Z" transform="translate(-2.06 -2.1)"/><path class="cls-23" d="M315.21,55.9c-.91.81-2,.66-2-.32,0-.48-.19-1.29.55-1.63a.32.32,0,0,1,.28.29c0,.24-.18.42-.22.64s-.14.65.16.85a.67.67,0,0,0,1-.09A.27.27,0,0,1,315.21,55.9Z" transform="translate(-2.06 -2.1)"/><path class="cls-21" d="M52.41,110.67c0,.72-.47,1.17-1,1.12a1,1,0,0,1-.88-.83c0-.51.58-.84,1.33-.86C52.34,110.09,52.46,110.3,52.41,110.67Zm-.29,0c0-.2-.09-.26-.21-.27a.59.59,0,0,0-.7.56c0,.15,0,.35.22.32A.87.87,0,0,0,52.12,110.66Z" transform="translate(-2.06 -2.1)"/><path class="cls-13" d="M111.56,122.83c.47,0,1,.39,1.07.72a1.13,1.13,0,0,1-1,1c-.49,0-1.1-.35-1.1-.66A1,1,0,0,1,111.56,122.83Zm.58.71c-.08-.26-.26-.43-.5-.4a.49.49,0,0,0-.43.58.31.31,0,0,0,.39.31A.55.55,0,0,0,112.14,123.54Z" transform="translate(-2.06 -2.1)"/><path class="cls-39" d="M5.59,21.57c.4-.11.71.13,1,.27.32.35,0,.79.16,1.16-.49.58-.49.58-1.21,0A2.51,2.51,0,0,1,5.59,21.57Z" transform="translate(-2.06 -2.1)"/><path class="cls-35" d="M272.24,137.73c.34.12.55.38.44.71-.16.48-.35,1.06-.9,1.16-.33.05-.64.53-1.06.11a1.42,1.42,0,0,1-.38-1.51.27.27,0,0,1,.23.27,3.63,3.63,0,0,0,.27.52c.3.44.64.5,1,.12s.52-.7.16-1.13A.29.29,0,0,0,272.24,137.73Z" transform="translate(-2.06 -2.1)"/><path class="cls-40" d="M8.72,108.45c-.39-.26-.74-.55-.52-1.07a1,1,0,0,1,1.33-.6,1,1,0,0,1,.54,1.37c-.08.19-.1.48-.38.56.05-.29-.15-.49-.25-.72.28-.11.26-.34.21-.55s-.26-.19-.45-.17c-.82-.07-.24.44-.28.7C8.66,108.05,8.73,108.27,8.72,108.45Z" transform="translate(-2.06 -2.1)"/><path class="cls-33" d="M6.8,87.82c.64,0,1,.2,1,.58a1.05,1.05,0,0,1-1.09.84c-.46,0-.78-.29-.77-.66A.83.83,0,0,1,6.8,87.82Zm.13.44a.28.28,0,0,0-.33.21.19.19,0,0,0,.16.25.35.35,0,0,0,.42-.3C7.21,88.3,7.07,88.26,6.93,88.26Z" transform="translate(-2.06 -2.1)"/><path class="cls-41" d="M28.64,130.05c-.6-.57-.63-.77-.17-1.17a1.1,1.1,0,0,1,1.49,0,1.12,1.12,0,0,1-.35,1.42c-.41.29-.78.35-1-.24l.26,0c.29,0,.76.22.66-.42s-.27-.61-.58-.43S28.67,129.72,28.64,130.05Z" transform="translate(-2.06 -2.1)"/><path class="cls-42" d="M115.76,148c-.4-.27-.24-.75-.39-1.12s.26-.47.49-.61a1.19,1.19,0,0,1,1.4.31c.4.38.68.79.19,1.3a.27.27,0,0,0-.25-.27c-.11-.64-.39-1-.87-.94s-.31.43-.36.7C115.64,147.44,115.8,147.73,115.76,148Z" transform="translate(-2.06 -2.1)"/><path class="cls-43" d="M50.49,140.82a1.06,1.06,0,0,1,.08,1.39c-.34.53-.91.56-1.66.37-.49-.12-.88-.28-1-.78a.29.29,0,0,0,.24-.27c.24.07.35.32.54.43.4.22.84.47,1.31.19s.27-.69.29-1.07A.27.27,0,0,0,50.49,140.82Z" transform="translate(-2.06 -2.1)"/><path class="cls-33" d="M93.47,40.77c.42,0,.84.37.81.66a.86.86,0,0,1-.88.76c-.42,0-.69-.32-.65-.67A.79.79,0,0,1,93.47,40.77Z" transform="translate(-2.06 -2.1)"/><path class="cls-13" d="M65.61,121.67c-.23.51-.67.48-1.11.43s-.58-.38-.57-.77-.1-.93.47-1.09a2.8,2.8,0,0,1,.71,0l-.23.41c-.22.19-.63.32-.37.72s.56.43.87,0A.28.28,0,0,1,65.61,121.67Z" transform="translate(-2.06 -2.1)"/><path class="cls-44" d="M92,41.46a1,1,0,0,1-.9-.9.68.68,0,0,1,.69-.76.83.83,0,0,1,.88.74A.93.93,0,0,1,92,41.46Zm-.12-1.17c-.19,0-.31.13-.26.29s.22.34.31.32a.35.35,0,0,0,.31-.41C92.16,40.29,92,40.28,91.83,40.29Z" transform="translate(-2.06 -2.1)"/><path class="cls-11" d="M271,156.25c.33.72.24,1.35-.23,1.61a1.1,1.1,0,0,1-1.72-.45.31.31,0,0,0,.27-.39.3.3,0,0,1,.21-.34c.05.32-.09.73.49.76s.8-.22.77-.76C271.06,156.62,271,156.43,271,156.25Z" transform="translate(-2.06 -2.1)"/><path class="cls-12" d="M50.49,140.82a.27.27,0,0,1-.25.26c-1.21-.78-1.45-.73-2.14.45a.29.29,0,0,1-.24.27,1.21,1.21,0,0,1,1-1.67A1.62,1.62,0,0,1,50.49,140.82Z" transform="translate(-2.06 -2.1)"/><path class="cls-45" d="M130.87,72.42c.52-.49,1-.6,1.41-.33a2.07,2.07,0,0,1,.47,1.6c-.1.23-.14.54-.41.68a.28.28,0,0,1-.27-.27,2,2,0,0,1,.26-.53c.34-.41-.59-.48-.23-.94.12-.16-.21-.25-.94.07A.32.32,0,0,1,130.87,72.42Z" transform="translate(-2.06 -2.1)"/><path class="cls-34" d="M186.31,107.27a.69.69,0,0,1-.46-.73,1.53,1.53,0,0,1,.46-1,2.33,2.33,0,0,1,1.07-.39.6.6,0,0,1,.63.43.27.27,0,0,1-.26.26c-.91-.3-1.32,0-1.19,1Z" transform="translate(-2.06 -2.1)"/><path class="cls-17" d="M97.78,83.72a1.35,1.35,0,0,1,1.54-.65c.31,0,.81.2.83.69s.21,1.12-.45,1.44l0-.34a2.5,2.5,0,0,0,0-.47c0-.3.17-.69-.19-.86a.94.94,0,0,0-1,.21,3.71,3.71,0,0,0-.47.5C98,84.05,98.07,83.8,97.78,83.72Z" transform="translate(-2.06 -2.1)"/><path class="cls-46" d="M10.89,104.42c.33,0,.58-.37,1-.15s.7.32.69.81a1,1,0,0,1-.64.9,1.28,1.28,0,0,1-.8,0c0-.21,0-.4.27-.44s.69-.07.63-.48-.41-.23-.66-.24a1.6,1.6,0,0,0-.23,0Z" transform="translate(-2.06 -2.1)"/><path class="cls-47" d="M219.41,18.69a.49.49,0,0,1-.25.59,1.12,1.12,0,0,1-.91.08,1,1,0,0,1-.55-1.19c.11-.27.14-.62.55-.65l.22.42c-.06.29-.45.54-.15.85s.57,0,.86-.09A.87.87,0,0,1,219.41,18.69Z" transform="translate(-2.06 -2.1)"/><path class="cls-48" d="M83.84,41.72c-.24,0-.4-.31-.67-.24a3.82,3.82,0,0,1,0-.58.61.61,0,0,1,.57-.62.68.68,0,0,1,.71.27c.25.33.1.59-.12.83A3.9,3.9,0,0,1,83.84,41.72Z" transform="translate(-2.06 -2.1)"/><path class="cls-49" d="M130.87,72.42a.32.32,0,0,0,.29.28,1.42,1.42,0,0,0-.3.75c0,.41.31.62.59.83s.4-.14.62-.18a.28.28,0,0,0,.27.27,1.17,1.17,0,0,1-1.09.4,1.73,1.73,0,0,1-1-1.23A1.08,1.08,0,0,1,130.87,72.42Z" transform="translate(-2.06 -2.1)"/><path class="cls-50" d="M177.68,3.57c-.27.47-.69.16-1,.19-.24-.35-.11-.76-.16-1.15V2.39a2.14,2.14,0,0,1,1.22.15Z" transform="translate(-2.06 -2.1)"/><path class="cls-51" d="M5.58,26.81c.38.47.2.86-.16,1.22a1.52,1.52,0,0,1-1-.25c-.09-.24-.32-.44-.22-.74C4.61,26.72,5.12,26.94,5.58,26.81Z" transform="translate(-2.06 -2.1)"/><path class="cls-12" d="M87.7,136a.93.93,0,0,1,.38,1.31,1,1,0,0,1-1.14.62c-.32-.05-.72.21-1-.21a.29.29,0,0,1,.27-.28c.2,0,.4,0,.6,0,.86,0,1-.29.58-1.22A.27.27,0,0,1,87.7,136Z" transform="translate(-2.06 -2.1)"/><path class="cls-14" d="M26.73,132a.78.78,0,0,1-1.19.32,1.37,1.37,0,0,1-.42-1.37c.13-.27.27-.57.65-.59l.23.4c-.55.25-.46.65-.21,1.05s.47,0,.7-.06A.26.26,0,0,1,26.73,132Z" transform="translate(-2.06 -2.1)"/><path class="cls-52" d="M158.48,113v-.41c.39-.43,1-.17,1.41-.33l0,.25a1.43,1.43,0,0,1-.26,1c-.23.1-.42.31-.71.23C159,113.3,158.75,113.14,158.48,113Z" transform="translate(-2.06 -2.1)"/><path class="cls-13" d="M269.31,35.47c-.21.71-.76.73-1.37.74s-.71-.52-1-.87c-.09-.14,0-.29.19-.35l.47.25c.7.72.95.68,1.28-.24C269.19,35,269,35.42,269.31,35.47Z" transform="translate(-2.06 -2.1)"/><path class="cls-53" d="M99.65,84.86l0,.34a.68.68,0,0,1-.76.42,3.52,3.52,0,0,1-1.07-.34c-.41-.25-.41-.84-.09-1.56.29.08.2.33.24.52C98.38,85.1,98.82,85.26,99.65,84.86Z" transform="translate(-2.06 -2.1)"/><path class="cls-13" d="M108.81,120.74l.23.43a1.14,1.14,0,0,0,0,1.43l-.23.42A1.24,1.24,0,0,1,108.81,120.74Z" transform="translate(-2.06 -2.1)"/><path class="cls-19" d="M50,153.57c-.36-.16-.58-.45-.42-.83s.43-1,1-1.07c.29-.07.69-.22,1,.17l0,.32c-1.15,0-1.43.33-1.12,1.38Z" transform="translate(-2.06 -2.1)"/><path class="cls-14" d="M290,53.52c-.66.51-1.07.57-1.52.24s-.55-.85-.18-1.72a.33.33,0,0,1,.27.29c0,1.19.35,1.39,1.38.84Z" transform="translate(-2.06 -2.1)"/><path class="cls-28" d="M27,74.36c-.33.44-.79.25-1.18.19s-.33-.59-.39-.86a.85.85,0,0,1,.39-.93c.06.24.42.09.46.36-.45.79-.39.91.43,1A.29.29,0,0,1,27,74.36Z" transform="translate(-2.06 -2.1)"/><path class="cls-42" d="M168.59,82.28a.69.69,0,0,1,.84-.36c.35.11.75.11,1,.47s.37.73-.22,1.33a.27.27,0,0,0-.27-.25c.28-.59.23-.81-.24-.93a3.09,3.09,0,0,0-.68,0C169,82.26,168.8,82.28,168.59,82.28Z" transform="translate(-2.06 -2.1)"/><path class="cls-54" d="M129.37,161.3a2.78,2.78,0,0,1,.51-.27.58.58,0,0,1,.62.19c.21.23.06.39,0,.61-.19.38-.35.75-.84.81C129.37,162.22,129.53,161.73,129.37,161.3Z" transform="translate(-2.06 -2.1)"/><path class="cls-55" d="M152.9,14c0,.11.12.21.16.32.17.36.34.77-.19.93a.88.88,0,0,1-.9-.12.6.6,0,0,1-.17-.64A2,2,0,0,1,152.9,14Z" transform="translate(-2.06 -2.1)"/><path class="cls-17" d="M271,156.25c0,.18,0,.37-.21.43a.78.78,0,0,0-1.26,0,.3.3,0,0,0-.21.34.31.31,0,0,1-.27.39c-.38-1-.13-1.46.76-1.46C270.26,155.94,270.72,155.86,271,156.25Z" transform="translate(-2.06 -2.1)"/><path class="cls-56" d="M237.92,108.21l.24-.49c.64.4,1.28.7,1.92,0a.27.27,0,0,1,.25.26C239.47,108.89,239.1,108.92,237.92,108.21Z" transform="translate(-2.06 -2.1)"/><path class="cls-43" d="M61.75,127.9c-.66-.32-.5-.94-.41-1.44a.6.6,0,0,1,.82-.38c.19.08.48.06.57.35a.29.29,0,0,1-.27.26c-.19,0-.37-.27-.58,0s.06.48.12.71Z" transform="translate(-2.06 -2.1)"/><path class="cls-22" d="M315.21,55.9a.27.27,0,0,0-.24-.26c0-1.18,0-1.18-1-1.4a.32.32,0,0,0-.28-.29c.92-.39,1.65,0,1.69.89C315.44,55.19,315.64,55.62,315.21,55.9Z" transform="translate(-2.06 -2.1)"/><path class="cls-21" d="M168.59,82.28c.21,0,.42,0,.46.26-.21.35-.36.68,0,1s.53-.18.81-.11a.48.48,0,0,0,.12,0,.27.27,0,0,1,.27.25L170,84l-1.18,0C168.17,83.4,168.14,83.17,168.59,82.28Z" transform="translate(-2.06 -2.1)"/><path class="cls-46" d="M86.26,137.47a.29.29,0,0,0-.27.28c-1.07-.53-1.23-1.09-.22-2.13L86,136c-.12.4-.56.8,0,1.18Z" transform="translate(-2.06 -2.1)"/><path class="cls-56" d="M50,153.57l.33,0c1.15-.07,1.35-.31,1.12-1.38l0-.32a.94.94,0,0,1,.55,1,1.68,1.68,0,0,1-1,1.14A.75.75,0,0,1,50,153.57Z" transform="translate(-2.06 -2.1)"/><path class="cls-41" d="M27,74.36a.29.29,0,0,0-.29-.26c.32-.89.32-.89-.43-1,0-.27-.4-.12-.46-.36.33,0,.53-.38,1-.19C27.57,73,27.65,73.33,27,74.36Z" transform="translate(-2.06 -2.1)"/><path class="cls-28" d="M288.59,52.33a.33.33,0,0,0-.27-.29c0-.19,0-.45.25-.45.42,0,.87-.19,1.24.16a1.46,1.46,0,0,1,.21,1.77l0-.35C289.77,52,289.5,51.86,288.59,52.33Z" transform="translate(-2.06 -2.1)"/><path class="cls-13" d="M278,111.74c0-.2,0-.39.27-.43s.46,0,.69,0,.47-.18.53-.47c.26,0,.12-.44.4-.47,0,.23,0,.47,0,.7a.66.66,0,0,1-.74.72C278.78,111.79,278.39,111.76,278,111.74Z" transform="translate(-2.06 -2.1)"/><path class="cls-57" d="M48.78,27.07l.46.25c-.11.64.34.91.78,1.19-.21,0-.45,0-.51.27C48.6,28.35,48.42,27.93,48.78,27.07Z" transform="translate(-2.06 -2.1)"/><path class="cls-27" d="M240.33,108a.27.27,0,0,0-.25-.26c.39-1,.37-1.1-.52-1.9a.28.28,0,0,0,.28-.26C241,106.25,241.09,106.8,240.33,108Z" transform="translate(-2.06 -2.1)"/><path class="cls-58" d="M78.33,43.67c.07.29.33.19.52.24-.64.55-.34,1.24-.29,1.89-.45.1-.47-.28-.61-.53-.28-.47.11-.92,0-1.39C78,43.82,78.15,43.65,78.33,43.67Z" transform="translate(-2.06 -2.1)"/><path class="cls-5" d="M180.36,137.24c.27,0,.12-.44.41-.47.08.45.08.82-.43,1.09a1.72,1.72,0,0,0-.87.76c0,.1-.29,0-.36-.16V138C179.52,137.7,180.05,137.66,180.36,137.24Z" transform="translate(-2.06 -2.1)"/><path class="cls-27" d="M289.52,108.2c-.23,0-.24.21-.24.39-.69-.58-.21-1.28-.15-1.91,0-.23.41-.11.63-.17a.33.33,0,0,0,.3.28C289.36,107.06,289.55,107.67,289.52,108.2Z" transform="translate(-2.06 -2.1)"/><path class="cls-59" d="M268.88,160.27c0,.19-.05.4.2.49-.45.49,0,1,.05,1.44a.22.22,0,0,0-.24.21C268.09,161.64,268.08,161.13,268.88,160.27Z" transform="translate(-2.06 -2.1)"/><path class="cls-60" d="M42.09,22.35c0,.22,0,.39.28.44-.41.41-.74.83-.26,1.4-.28,0-.27.25-.27.46C41.13,23.61,41.19,23.09,42.09,22.35Z" transform="translate(-2.06 -2.1)"/><path class="cls-17" d="M303.93,138.23a.27.27,0,0,0-.23-.27c0-.18.12-.28.23-.38.7-.7,1.08-.67,1.87.15a.29.29,0,0,0-.23.28c-.79-.49-.78-.49-1.43.1A.88.88,0,0,1,303.93,138.23Z" transform="translate(-2.06 -2.1)"/><path class="cls-22" d="M267.64,35.24l-.47-.25c.68-1.34.78-1.36,1.95-.47a.27.27,0,0,0-.25.25c-.75-.47-.78-.47-1.2.36A.35.35,0,0,0,267.64,35.24Z" transform="translate(-2.06 -2.1)"/><path class="cls-43" d="M62.46,126.69a.29.29,0,0,0,.27-.26c.58.42.35,1,.1,1.4s-.69.41-1.08.07l.25-.5c.31.24.48.19.59-.21C62.66,127,62.48,126.86,62.46,126.69Z" transform="translate(-2.06 -2.1)"/><path class="cls-61" d="M88.63,95.93c0-.19,0-.39-.22-.45.41-.58.15-1-.29-1.42a.29.29,0,0,0,.28-.26C89.36,94.59,89.38,94.85,88.63,95.93Z" transform="translate(-2.06 -2.1)"/><path class="cls-47" d="M247.77,66.94l-.24-.44c1-.49,1.18-.45,1.88.43a.29.29,0,0,0-.24.29A1,1,0,0,0,247.77,66.94Z" transform="translate(-2.06 -2.1)"/><path class="cls-62" d="M86,136l-.23-.41c.21-.09.36-.26.61-.29.63-.1,1.11,0,1.32.7a.27.27,0,0,0-.26.23.74.74,0,0,1-.21,0c-.49-.57-.52-.58-1-.22H86Z" transform="translate(-2.06 -2.1)"/><path class="cls-63" d="M316.15,34.3c0-.19,0-.43.23-.5.42.47,1,.17,1.44.23a.27.27,0,0,1,.26.26l-.25.26h-1.18C316.48,34.47,316.21,34.59,316.15,34.3Z" transform="translate(-2.06 -2.1)"/><path class="cls-48" d="M117.2,147.56a.27.27,0,0,1,.25.27c-.66.59-.84.6-1.69.12,0-.22-.12-.51.21-.63C116.49,147.9,116.49,147.9,117.2,147.56Z" transform="translate(-2.06 -2.1)"/><path class="cls-64" d="M272.24,137.73a.29.29,0,0,1-.28.25,1.55,1.55,0,0,0-1.39.49.27.27,0,0,0-.23-.27C271.07,137.37,271.28,137.32,272.24,137.73Z" transform="translate(-2.06 -2.1)"/><path class="cls-33" d="M80,88.08c1.12-.52,1.4-.34,1.41.92H81c-.09-.76-.09-.76-.75-.5Z" transform="translate(-2.06 -2.1)"/><path class="cls-45" d="M80,88.08l.24.42a.58.58,0,0,0,0,1l-.24.42C79.19,89.15,79.19,88.84,80,88.08Z" transform="translate(-2.06 -2.1)"/><path class="cls-13" d="M92.89,39c0,.17-.55.6-.71.53a.55.55,0,0,1-.39-.63.51.51,0,0,1,.44-.47C92.42,38.37,92.9,38.82,92.89,39Z" transform="translate(-2.06 -2.1)"/><path class="cls-32" d="M87,167.72a.25.25,0,0,0-.25-.24c.46-.59.15-1-.28-1.41a.32.32,0,0,0,.29-.27C87.66,166.59,87.7,166.91,87,167.72Z" transform="translate(-2.06 -2.1)"/><path class="cls-65" d="M26,130.73l-.23-.4a1.06,1.06,0,0,1,1.3.45c.34.53-.13.82-.34,1.19a.26.26,0,0,0-.24-.25C26.85,130.86,26.85,130.86,26,130.73Z" transform="translate(-2.06 -2.1)"/><path class="cls-33" d="M257.14,93.59a.3.3,0,0,0-.22-.27c.25-.71.22-.76-.52-1l.23-.41C257.72,92.28,257.79,92.51,257.14,93.59Z" transform="translate(-2.06 -2.1)"/><path class="cls-66" d="M219.41,18.69a.87.87,0,0,0-.23,0c-.29.09-.57.4-.86.09s.09-.56.15-.85c.31,0,.64-.07.78.36.06.18.26.12.42.11A.26.26,0,0,1,219.41,18.69Z" transform="translate(-2.06 -2.1)"/><path class="cls-55" d="M136.64,178.76a.63.63,0,0,1,.48.73h-.48a.62.62,0,0,0-.48.44h-.24c0-.2,0-.42-.25-.48.2-.2.16-.59.5-.68C136.35,179.12,136.5,179.09,136.64,178.76Z" transform="translate(-2.06 -2.1)"/><path class="cls-67" d="M261.67,40.3a.69.69,0,0,0-.55.14c-.27.17-.44,0-.57-.23a.41.41,0,0,1,0-.54.4.4,0,0,1,.53,0,.69.69,0,0,0,.55.13Z" transform="translate(-2.06 -2.1)"/><path class="cls-68" d="M198.28,141.58c.14,0,.25-.08.27-.23.62,1,.62,1,0,1.65a.24.24,0,0,1-.25-.22A1.61,1.61,0,0,0,198.28,141.58Z" transform="translate(-2.06 -2.1)"/><path class="cls-30" d="M263.6,155.64c0-.21,0-.38.29-.42a1.19,1.19,0,0,0,1.16-.46h.27C264.87,155.75,264.84,155.77,263.6,155.64Z" transform="translate(-2.06 -2.1)"/><path class="cls-35" d="M186.31,107.27l.25-.51a.94.94,0,0,0,1.2,0,.26.26,0,0,0,.25.25C187.54,107.74,186.94,107.57,186.31,107.27Z" transform="translate(-2.06 -2.1)"/><path class="cls-69" d="M49.51,28.78c.06-.31.3-.25.51-.27a1.65,1.65,0,0,0,.95-.2c0,.14.09.2.23.21C50.73,29.23,50.14,29.1,49.51,28.78Z" transform="translate(-2.06 -2.1)"/><path class="cls-70" d="M80,89.92l.24-.42c.37,0,.74,0,.75-.5h.42c0,.58-.41.81-.77,1.09S80.22,90,80,89.92Z" transform="translate(-2.06 -2.1)"/><path class="cls-47" d="M219.67,18.41c-.16,0-.36.07-.42-.11-.14-.43-.47-.34-.78-.36l-.22-.42a2.73,2.73,0,0,1,.57,0C219.51,17.53,219.53,17.55,219.67,18.41Z" transform="translate(-2.06 -2.1)"/><path class="cls-32" d="M10.89,104.42l.24.44c-.07.28.13.47.26.69-.26,0-.27.23-.27.44-.64,0-.32-.74-.67-1C10.61,104.82,10.55,104.46,10.89,104.42Z" transform="translate(-2.06 -2.1)"/><path class="cls-47" d="M65.61,121.67a.28.28,0,0,0-.23-.27c0-.36.06-.76-.5-.76l.23-.41C66,120.49,66.05,120.75,65.61,121.67Z" transform="translate(-2.06 -2.1)"/><path class="cls-71" d="M154.41,11.73c-.25-.4-.36-.77.23-1a.74.74,0,0,1,.53.73C155,11.84,154.67,11.66,154.41,11.73Z" transform="translate(-2.06 -2.1)"/><path class="cls-42" d="M107.15,87.55c.18,0,.38,0,.45-.2.33,0,.7,0,.93-.33a.3.3,0,0,0,.24.29c-.08.6-.69.42-1,.65C107.66,88,107.26,87.84,107.15,87.55Z" transform="translate(-2.06 -2.1)"/><path class="cls-72" d="M249.92,90.44l.26-.51a1.4,1.4,0,0,0,1.18.51c0,.32-.5.18-.5.51C250.5,90.87,250.06,90.93,249.92,90.44Z" transform="translate(-2.06 -2.1)"/><path class="cls-73" d="M8.72,108.45c0-.18-.06-.4.2-.48.09.16.17.31.28,0l.12,0,.12,0c.1.23.3.43.25.72C9.21,109.21,9,108.59,8.72,108.45Z" transform="translate(-2.06 -2.1)"/><path class="cls-41" d="M84.58,166.55c0-.18,0-.42-.22-.5,0-.28.24-.39.44-.51l.24,0c.08.41.62,0,.72.42C85.22,165.86,85,166.35,84.58,166.55Z" transform="translate(-2.06 -2.1)"/><path class="cls-23" d="M167.32,87.07a.3.3,0,0,1-.23-.3.8.8,0,0,0-.45-.92.27.27,0,0,1,.27-.22C167.71,86.32,167.71,86.32,167.32,87.07Z" transform="translate(-2.06 -2.1)"/><path class="cls-31" d="M114.8,119.21v-.42c.48-.06,1-.11,1.2.45a.27.27,0,0,1-.26.25A1.43,1.43,0,0,0,114.8,119.21Z" transform="translate(-2.06 -2.1)"/><path class="cls-74" d="M188,107a.26.26,0,0,1-.25-.25c0-.31.26-.63,0-1a.27.27,0,0,0,.26-.26A.94.94,0,0,1,188,107Z" transform="translate(-2.06 -2.1)"/><path class="cls-48" d="M85.76,166c-.1-.38-.64,0-.72-.42l.95-.07c.24.12.59-.06.73.29a.32.32,0,0,1-.29.27Z" transform="translate(-2.06 -2.1)"/><path class="cls-75" d="M129.37,161.3c.16.43,0,.92.25,1.34C128.73,162.27,128.68,162,129.37,161.3Z" transform="translate(-2.06 -2.1)"/><path class="cls-13" d="M166.91,85.63a.27.27,0,0,0-.27.22,1.18,1.18,0,0,0-.95-.17l-.24-.45C166,85.13,166.56,85,166.91,85.63Z" transform="translate(-2.06 -2.1)"/><path class="cls-33" d="M253,13.64c.19.51.79.68,1,1.19-.7.08-1-.35-1.19-.93A.27.27,0,0,1,253,13.64Z" transform="translate(-2.06 -2.1)"/><path class="cls-49" d="M184.12,103.66a.28.28,0,0,0,.27-.22c.42.17.73.42.7.93-.29,0-.14.44-.42.47C184.77,104.32,184.37,104,184.12,103.66Z" transform="translate(-2.06 -2.1)"/><path class="cls-38" d="M307.26,65.24a.36.36,0,0,0-.27.31,1.67,1.67,0,0,0-1.37-.5l0-.28C306.21,64.74,306.84,64.61,307.26,65.24Z" transform="translate(-2.06 -2.1)"/><path class="cls-76" d="M255.05,14.54c-.23-.59.06-1.33-.5-1.83a.57.57,0,0,1,.63.57A1.63,1.63,0,0,1,255.05,14.54Z" transform="translate(-2.06 -2.1)"/><path class="cls-77" d="M5.59,21.57a2.51,2.51,0,0,0,0,1.41c-.2,0-.39,0-.44-.25C5.06,22.26,5,21.8,5.59,21.57Z" transform="translate(-2.06 -2.1)"/><path class="cls-70" d="M5.85,91.66c0-.18.05-.41-.21-.5a.86.86,0,0,0,0-.72.29.29,0,0,0,.23-.27C6.37,90.67,6.22,91.16,5.85,91.66Z" transform="translate(-2.06 -2.1)"/><path class="cls-48" d="M5.58,26.81c-.46.13-1-.09-1.4.23,0-.54.23-.82.82-.51C5.19,26.64,5.48,26.52,5.58,26.81Z" transform="translate(-2.06 -2.1)"/><path class="cls-78" d="M176.48,2.61c.05.39-.08.8.16,1.15C175.78,3.37,175.76,3.19,176.48,2.61Z" transform="translate(-2.06 -2.1)"/><path class="cls-28" d="M116,27.8h.47l-.06,1c-.21-.08-.36-.31-.63-.24C115.64,28.21,116,28,116,27.8Z" transform="translate(-2.06 -2.1)"/><path class="cls-79" d="M159.89,112.23c-.46.16-1-.1-1.41.33-.14-.07-.28-.16-.07-.3A1.22,1.22,0,0,1,159.89,112.23Z" transform="translate(-2.06 -2.1)"/><path class="cls-80" d="M109.79,13.17a1.8,1.8,0,0,0,1.14-.18C110.56,13.68,110.23,13.73,109.79,13.17Z" transform="translate(-2.06 -2.1)"/><path class="cls-47" d="M135.92,179.94h.24c.21.43.47.35.74.06h.15c.06.27,0,.46-.33.46s-.53,0-.79-.07Z" transform="translate(-2.06 -2.1)"/><path class="cls-81" d="M135.92,179.94v.44c-.58-.31-.61-.42-.26-.92C136,179.52,135.92,179.74,135.92,179.94Z" transform="translate(-2.06 -2.1)"/><path class="cls-82" d="M315.44,144.66h-1.67A1.69,1.69,0,0,1,315.44,144.66Z" transform="translate(-2.06 -2.1)"/><path class="cls-83" d="M177.7,2.54a2.14,2.14,0,0,0-1.22-.15l-.13-.16a1,1,0,0,1,1.32.26Z" transform="translate(-2.06 -2.1)"/><path class="cls-84" d="M158.48,113c.27.17.56.33.46.74C158.24,113.58,158.15,113.43,158.48,113Z" transform="translate(-2.06 -2.1)"/><path class="cls-85" d="M155.17,11.49a.74.74,0,0,0-.53-.73c0-.17.16-.3.31-.21s.58.32.56.72Z" transform="translate(-2.06 -2.1)"/><path class="cls-86" d="M6.8,23c-.19-.37.16-.81-.16-1.16C7.18,22.11,7.21,22.33,6.8,23Z" transform="translate(-2.06 -2.1)"/><path class="cls-82" d="M250.15,164.12v-1.68A1.48,1.48,0,0,1,250.15,164.12Z" transform="translate(-2.06 -2.1)"/><path class="cls-31" d="M155.17,11.49l.34-.22c-.16.78-.44.9-1.1.46C154.67,11.66,155,11.84,155.17,11.49Z" transform="translate(-2.06 -2.1)"/><path class="cls-82" d="M56.48,106.5H54.8A1.66,1.66,0,0,1,56.48,106.5Z" transform="translate(-2.06 -2.1)"/><path class="cls-87" d="M152.9,14a2,2,0,0,0-1.1.49C152.07,13.8,152.14,13.77,152.9,14Z" transform="translate(-2.06 -2.1)"/><path class="cls-88" d="M253,13.64a.27.27,0,0,0-.23.26c-.25-.5-.09-.83.47-1C253.37,13.23,253.11,13.41,253,13.64Z" transform="translate(-2.06 -2.1)"/><path class="cls-82" d="M310.42,39.08V37.65A1.25,1.25,0,0,1,310.42,39.08Z" transform="translate(-2.06 -2.1)"/><path class="cls-89" d="M268.87,34.77a.27.27,0,0,1,.25-.25c.42.24.2.62.19.95-.27,0-.12-.43-.39-.47A.64.64,0,0,1,268.87,34.77Z" transform="translate(-2.06 -2.1)"/><path class="cls-82" d="M184.9,152.84V151.4A1.25,1.25,0,0,1,184.9,152.84Z" transform="translate(-2.06 -2.1)"/><path class="cls-90" d="M4.4,27.78a1.52,1.52,0,0,0,1,.25c-.38.43-.75.34-1.12,0C4.19,27.92,4.28,27.83,4.4,27.78Z" transform="translate(-2.06 -2.1)"/><path class="cls-82" d="M52.18,11.48l0-1.43A1.28,1.28,0,0,1,52.18,11.48Z" transform="translate(-2.06 -2.1)"/><path class="cls-82" d="M182.48,153.82h1.44A1.26,1.26,0,0,1,182.48,153.82Z" transform="translate(-2.06 -2.1)"/><path class="cls-91" d="M159.65,113.48a1.43,1.43,0,0,0,.26-1c.43.35.34.72,0,1.07C159.81,113.67,159.72,113.58,159.65,113.48Z" transform="translate(-2.06 -2.1)"/><path class="cls-92" d="M110.47,12c-.29-.15-.58-.31-.89,0-.06-.27,0-.45.32-.46S110.51,11.53,110.47,12Z" transform="translate(-2.06 -2.1)"/><path class="cls-47" d="M284.42,103.65H283A1,1,0,0,1,284.42,103.65Z" transform="translate(-2.06 -2.1)"/><path class="cls-82" d="M211.05,158.14l1.19,0A.76.76,0,0,1,211.05,158.14Z" transform="translate(-2.06 -2.1)"/><path class="cls-47" d="M285,105.34c0-.39,0-.78,0-1.17A.76.76,0,0,1,285,105.34Z" transform="translate(-2.06 -2.1)"/><path class="cls-22" d="M212,17.67c.35-.37.79-.1,1.19-.19C212.86,17.91,212.41,17.66,212,17.67Z" transform="translate(-2.06 -2.1)"/><path class="cls-82" d="M212.48,90.45l-1.19-.07C211.7,90.13,212.11,90,212.48,90.45Z" transform="translate(-2.06 -2.1)"/><path class="cls-82" d="M54.31,107.24v1.2A.79.79,0,0,1,54.31,107.24Z" transform="translate(-2.06 -2.1)"/><path class="cls-82" d="M86,165.51l-.95.07-.24,0A.85.85,0,0,1,86,165.51Z" transform="translate(-2.06 -2.1)"/><path class="cls-82" d="M168.81,84,170,84A.85.85,0,0,1,168.81,84Z" transform="translate(-2.06 -2.1)"/><path class="cls-82" d="M46.88,77.25l-1.19-.07C46.1,76.93,46.51,76.81,46.88,77.25Z" transform="translate(-2.06 -2.1)"/><path class="cls-82" d="M205.8,70.75V69.57A.86.86,0,0,1,205.8,70.75Z" transform="translate(-2.06 -2.1)"/><path class="cls-82" d="M268.87,39.05h-1.18A.82.82,0,0,1,268.87,39.05Z" transform="translate(-2.06 -2.1)"/><path class="cls-82" d="M80.75,45.31V44.13A.82.82,0,0,1,80.75,45.31Z" transform="translate(-2.06 -2.1)"/><path class="cls-93" d="M177.7,2.54l0,0c.47.36.36.72,0,1.08Z" transform="translate(-2.06 -2.1)"/><path class="cls-82" d="M267.93,41l1.19,0C268.74,41.42,268.34,41.33,267.93,41Z" transform="translate(-2.06 -2.1)"/><path class="cls-82" d="M307.29,40.78h1.18A.79.79,0,0,1,307.29,40.78Z" transform="translate(-2.06 -2.1)"/><path class="cls-82" d="M316.65,34.56h1.18A.83.83,0,0,1,316.65,34.56Z" transform="translate(-2.06 -2.1)"/><path class="cls-82" d="M251.85,35.27H253A.84.84,0,0,1,251.85,35.27Z" transform="translate(-2.06 -2.1)"/><path class="cls-82" d="M117.45,121l1.18,0A.87.87,0,0,1,117.45,121Z" transform="translate(-2.06 -2.1)"/><path class="cls-94" d="M137.05,180h-.15l-.26-.5h.48Z" transform="translate(-2.06 -2.1)"/><path class="cls-95" d="M136.64,178.76c-.14.33-.29.36-.47,0Z" transform="translate(-2.06 -2.1)"/><path class="cls-96" d="M182.83,153.06a5.25,5.25,0,0,1-2.61-1.66.32.32,0,0,1,0-.2,1.65,1.65,0,0,1,1.72-1.21c.88.28,1.8.59,2.13,1.64A1.12,1.12,0,0,1,182.83,153.06Z" transform="translate(-2.06 -2.1)"/><path class="cls-97" d="M156.39,157.18a2.28,2.28,0,0,1,1.35.24c.74.23.94.48.71,1.22s-.33,1.48-1.17,1.75A2.22,2.22,0,0,1,155,160c-.18-.16-.34-.34-.51-.5-.33-.33-.41-.67,0-1a1,1,0,0,0,.21-.29A1.4,1.4,0,0,1,156.39,157.18Zm-.25,2.62c.62,0,.87-.16.9-.66a.65.65,0,0,0-.66-.78,1.06,1.06,0,0,0-1,.79C155.32,159.53,155.62,159.78,156.14,159.8Z" transform="translate(-2.06 -2.1)"/><path class="cls-96" d="M313.76,146.14c0-.72,0-.73.69-.75a1.57,1.57,0,0,1,1.85,1.72,1,1,0,0,1-.77.87A2.07,2.07,0,0,1,313.76,146.14Z" transform="translate(-2.06 -2.1)"/><path class="cls-97" d="M302.24,156.11a1.86,1.86,0,0,1,2.1-1.53c.76.15,1.08.7,1.43,1.26a.51.51,0,0,1-.09.64,2.68,2.68,0,0,1-2.64.7C302.41,157,302.24,156.73,302.24,156.11Z" transform="translate(-2.06 -2.1)"/><path class="cls-98" d="M309.69,38.2A2.12,2.12,0,0,1,308.11,40a1,1,0,0,1-.91-.44c-.28-.29,0-.51.07-.74a11.31,11.31,0,0,1,.66-1.24.86.86,0,0,1,1.12-.41A.94.94,0,0,1,309.69,38.2Z" transform="translate(-2.06 -2.1)"/><path class="cls-96" d="M12.85,117.45a7.05,7.05,0,0,1,.62-.82c.5-.5,1-.14,1.55,0s.46.49.42.89a1.13,1.13,0,0,1-1.24.86C13.57,118.22,13.57,118.22,12.85,117.45Z" transform="translate(-2.06 -2.1)"/><path class="cls-97" d="M75.91,20.12c-.21,0-.46.06-.67-.1s-.78,0-.79-.67c0-1,0-1.12.66-1.46.22-.12.39-.2.63,0s.5.22.73.36a1.08,1.08,0,0,1,.64,1.15A1.13,1.13,0,0,1,75.91,20.12Z" transform="translate(-2.06 -2.1)"/><path class="cls-97" d="M6.09,151.15c0,.55-.58,1.44-.94,1.45a1.51,1.51,0,0,1-1.23-1.1,1.55,1.55,0,0,1,1.17-1.3A1,1,0,0,1,6.09,151.15Z" transform="translate(-2.06 -2.1)"/><path class="cls-99" d="M235.52,142.34a1.11,1.11,0,0,1,1-1.18c.41,0,1.35.69,1.35,1s-1,1.37-1.39,1.32A1.47,1.47,0,0,1,235.52,142.34Zm1.68,0c-.06-.35-.25-.58-.62-.56a.59.59,0,1,0,0,1.18A.57.57,0,0,0,237.2,142.37Z" transform="translate(-2.06 -2.1)"/><path class="cls-97" d="M23.57,127.37c-.32,0-1.06-.5-1.07-.75a1.35,1.35,0,0,1,1-1.14c.45,0,1,.41,1,.7S23.92,127.36,23.57,127.37Z" transform="translate(-2.06 -2.1)"/><path class="cls-98" d="M100.16,138.27c.1.38-.14.69-.29,1a.81.81,0,0,1-1,.33,1.12,1.12,0,0,1-.5-1.09,1.87,1.87,0,0,1,.6-.86.79.79,0,0,1,.89-.08A.64.64,0,0,1,100.16,138.27Z" transform="translate(-2.06 -2.1)"/><path class="cls-100" d="M112.4,133.18a1.44,1.44,0,0,1,.36,0c.3.07.69.16.76.43s-.28.52-.52.71-.22.08-.31.15c-.29.22-.52.49-.92.13a.86.86,0,0,1-.32-.94C111.6,133.2,112,133.14,112.4,133.18Z" transform="translate(-2.06 -2.1)"/><path class="cls-101" d="M111.24,132.17a.72.72,0,0,1,.85-.46c.29,0,.53.18.52.52s-.42.51-.83.44A.58.58,0,0,1,111.24,132.17Z" transform="translate(-2.06 -2.1)"/><path class="cls-99" d="M191.3,115.6a.74.74,0,0,1-1,.56,2.15,2.15,0,0,1-.68-.46c-.25-.25-.57-.47-.19-.88s.6-.5,1.1-.14C190.81,114.91,191.18,115.09,191.3,115.6Z" transform="translate(-2.06 -2.1)"/><path class="cls-97" d="M306.56,24c0,.57-.33,1-.67.94s-1-.72-.87-.94,0-.77.55-.75S306.58,23.54,306.56,24Z" transform="translate(-2.06 -2.1)"/><path class="cls-97" d="M202.89,42.16c-.06.29.15.74-.44.76a1,1,0,0,1-1-1c0-.5.28-.67.9-.65S202.9,41.3,202.89,42.16Z" transform="translate(-2.06 -2.1)"/><path class="cls-99" d="M134.72,6.76c0,.63-.18.87-.7.87s-1-.43-1-.74a1.65,1.65,0,0,1,.91-.83A.69.69,0,0,1,134.72,6.76Z" transform="translate(-2.06 -2.1)"/><path class="cls-96" d="M320.54,131.24c-.52,0-.82-.27-.77-.64s.51-.55,1.14-.57c.42,0,.57.17.53.56S321.15,131.26,320.54,131.24Z" transform="translate(-2.06 -2.1)"/><path class="cls-102" d="M139.28,109.09c-.47-.1-.74.48-1.29.15-.34-.2-.5-.37-.31-.72s.75-.55.95-.36A1.58,1.58,0,0,1,139.28,109.09Z" transform="translate(-2.06 -2.1)"/><path class="cls-96" d="M136.64,146.75c0,.37-.36.36-.57.48s-.88-.7-.83-.88.41-.36.65-.43S136.63,146.41,136.64,146.75Z" transform="translate(-2.06 -2.1)"/><path class="cls-103" d="M13.08,32.53c0-.34-.28-.76.27-.86.34-.05.78.13.81.45s-.4.19-.62.26Z" transform="translate(-2.06 -2.1)"/><path class="cls-104" d="M236.69,15.89c0,.34-.67,1.1-1,1.06a.22.22,0,0,1-.17-.12c-.17-.39.38-1.22.8-1.19C236.49,15.65,236.6,15.82,236.69,15.89Z" transform="translate(-2.06 -2.1)"/><path class="cls-105" d="M51.71,10.63a1,1,0,0,1-1,1.09c-.61,0-1.34-.53-1.32-1a1.29,1.29,0,0,1,1.11-1.2A1.39,1.39,0,0,1,51.71,10.63Z" transform="translate(-2.06 -2.1)"/><path class="cls-106" d="M320.14,70.1c.17.19.66.12.53.5s-.14.66-.57.64-.47-.42-.53-.67S320,70.28,320.14,70.1Z" transform="translate(-2.06 -2.1)"/><path class="cls-98" d="M297.12,28.39c-.13.25-.31.55-.62.57s-.56-.31-.64-.58a.54.54,0,0,1,.44-.57A1.13,1.13,0,0,1,297.12,28.39Z" transform="translate(-2.06 -2.1)"/><path class="cls-106" d="M305.6,108c-.21.38-.46.41-.64.54a.43.43,0,0,1-.69-.09c-.15-.21-.21-.51,0-.62s.46-.48.82-.19C305.28,107.75,305.47,107.87,305.6,108Z" transform="translate(-2.06 -2.1)"/><path class="cls-107" d="M211.45,157.42c-.26,0-.55.07-.63-.27a.53.53,0,0,1,.17-.53c.22-.23.41-.16.63,0s.22.08.32.15.24.21.22.25a.69.69,0,0,1-.3.33A1.26,1.26,0,0,1,211.45,157.42Z" transform="translate(-2.06 -2.1)"/><path class="cls-106" d="M34.16,135.29a3,3,0,0,1-.53-.25c-.33-.27-.18-.65-.16-1a.22.22,0,0,1,.28-.15.7.7,0,0,1,.41.78C34.15,134.84,34.16,135,34.16,135.29Z" transform="translate(-2.06 -2.1)"/><path class="cls-108" d="M116.44,28.76l.06-1c.21-.57.71-.42,1.14-.46a1.34,1.34,0,0,1,.77,1.66c-.28.6-.82.52-1.33.49S116.5,29.13,116.44,28.76Z" transform="translate(-2.06 -2.1)"/><path class="cls-38" d="M118.41,29a1.34,1.34,0,0,0-.77-1.66,1,1,0,0,1,1.17.57C119,28.36,118.73,28.7,118.41,29Z" transform="translate(-2.06 -2.1)"/><path class="cls-96" d="M308.22,85.67c-.15.34-.47.23-.71.18s-.55-.23-.41-.57a.53.53,0,0,1,.67-.34A.59.59,0,0,1,308.22,85.67Z" transform="translate(-2.06 -2.1)"/><path class="cls-104" d="M5.32,68.11c.28,0,.48,0,.52.28s-.31.67-.57.6-.63-.06-.58-.43A.55.55,0,0,1,5.32,68.11Z" transform="translate(-2.06 -2.1)"/><path class="cls-109" d="M159.67,39.8c.62,0,.93.25,1,.78a1.24,1.24,0,0,1-1,1.12,1.52,1.52,0,0,1-1.09-1C158.5,40.23,159,39.81,159.67,39.8Z" transform="translate(-2.06 -2.1)"/><path class="cls-110" d="M21.37,22.85c-.72.41-1,.38-1.12-.11a.65.65,0,0,1,.06-.33c.06-.13.19-.11.3-.07s.19.14.3.16A.84.84,0,0,1,21.37,22.85Z" transform="translate(-2.06 -2.1)"/><path class="cls-104" d="M204.49,13.76a.7.7,0,0,1-.79.36.32.32,0,0,1-.33-.38c0-.23.55-.62.76-.54S204.34,13.6,204.49,13.76Z" transform="translate(-2.06 -2.1)"/><path class="cls-111" d="M168.52,127.76c-.19.1-.37.29-.52.26a.75.75,0,0,1-.61-.62.39.39,0,0,1,.17-.29c.36-.28.43.16.63.29A2,2,0,0,1,168.52,127.76Z" transform="translate(-2.06 -2.1)"/><path class="cls-96" d="M231.91,45.05c0,.22-.17.48-.41.4s-.56-.1-.54-.49.32-.35.58-.36S231.94,44.78,231.91,45.05Z" transform="translate(-2.06 -2.1)"/><path class="cls-112" d="M128.72,29c.05-.42-.18-.81.32-.89.2,0,.5-.14.59.18s-.12.37-.29.46A4.39,4.39,0,0,1,128.72,29Z" transform="translate(-2.06 -2.1)"/><path class="cls-113" d="M272.6,57.54c-.47,0-1-.35-1-.64a2.86,2.86,0,0,1,.81-1c.6,0,1.2.43,1.2.89S273.14,57.54,272.6,57.54Z" transform="translate(-2.06 -2.1)"/><path class="cls-98" d="M208.86,19c-.15.25-.3.55-.63.55a.34.34,0,0,1-.27-.44.58.58,0,0,1,.73-.39A.26.26,0,0,1,208.86,19Z" transform="translate(-2.06 -2.1)"/><path class="cls-104" d="M302.68,93.33c.21,0,.47.16.41.39s-.36.36-.67.33-.44-.06-.38-.3A.53.53,0,0,1,302.68,93.33Z" transform="translate(-2.06 -2.1)"/><path class="cls-104" d="M169.25,19.19a.54.54,0,0,1,.51.53c0,.22-.07.38-.32.39a.51.51,0,0,1-.6-.43C168.78,19.42,169,19.29,169.25,19.19Z" transform="translate(-2.06 -2.1)"/><path class="cls-114" d="M55.62,107c.38,0,.73,0,.82.46s-.49,1.05-.69.93-.84,0-.93-.5A.8.8,0,0,1,55.62,107Z" transform="translate(-2.06 -2.1)"/><path class="cls-104" d="M91.25,109.39c-.24-.09-.44-.23-.41-.49a.43.43,0,0,1,.46-.42.42.42,0,0,1,.41.47A.49.49,0,0,1,91.25,109.39Z" transform="translate(-2.06 -2.1)"/><path class="cls-115" d="M126.55,126.46c.34,0,.47.06.49.3a.52.52,0,0,1-.45.59.42.42,0,0,1-.48-.41A.5.5,0,0,1,126.55,126.46Z" transform="translate(-2.06 -2.1)"/><path class="cls-116" d="M119.27,141.23a1.48,1.48,0,0,1-.89,1,.88.88,0,0,1-.95-.65,1.05,1.05,0,0,1,.89-1C118.6,140.61,119.24,141,119.27,141.23Z" transform="translate(-2.06 -2.1)"/><path class="cls-99" d="M9.18,40c0,.37-.06.5-.31.52s-.4-.17-.39-.44,0-.45.22-.47A.47.47,0,0,1,9.18,40Z" transform="translate(-2.06 -2.1)"/><path class="cls-117" d="M204.08,70.53c-.34-.19-.55-.4-.3-.84s.52-.61.91-.5.71.23.61.72c0,.2,0,.4-.05.59A1.68,1.68,0,0,0,204.08,70.53Z" transform="translate(-2.06 -2.1)"/><path class="cls-118" d="M204.08,70.53a1.68,1.68,0,0,1,1.17,0C204.67,71,204.67,71,204.08,70.53Z" transform="translate(-2.06 -2.1)"/><path class="cls-99" d="M317.45,86.35c-.21,0-.32-.13-.33-.36s.12-.34.36-.35.52.17.52.36S317.75,86.38,317.45,86.35Z" transform="translate(-2.06 -2.1)"/><path class="cls-119" d="M283.74,105.8c-.7,0-1.19-.28-1.18-.71a1.44,1.44,0,0,1,1.14-1.18.94.94,0,0,1,1,.92A.93.93,0,0,1,283.74,105.8Z" transform="translate(-2.06 -2.1)"/><path class="cls-105" d="M252.4,34.77c-.4,0-.74-.11-.76-.54a1,1,0,0,1,1-.91c.48,0,.86.33.85.65S253,34.79,252.4,34.77Z" transform="translate(-2.06 -2.1)"/><path class="cls-25" d="M94.88,64.84a1,1,0,0,1-.81,1.1,1,1,0,0,1-.85-.82,1.21,1.21,0,0,1,1-1A.82.82,0,0,1,94.88,64.84Z" transform="translate(-2.06 -2.1)"/><path class="cls-120" d="M250.39,108.47a.85.85,0,1,1-1.7-.11c0-.41.35-.86.62-.85A1,1,0,0,1,250.39,108.47Z" transform="translate(-2.06 -2.1)"/><path class="cls-113" d="M184.12,103.66c.25.36.65.66.55,1.18s-.51.79-1.09.74-1-.35-1.07-.77a1.2,1.2,0,0,1,.41-1.26C183.4,103.15,183.72,103.71,184.12,103.66Z" transform="translate(-2.06 -2.1)"/><path class="cls-121" d="M251.36,90.44a1.4,1.4,0,0,1-1.18-.51c-.26-.63-.21-1.22.15-1.34a1.13,1.13,0,0,1,1.22.22c.38.35.42.71.1,1.26A3.37,3.37,0,0,1,251.36,90.44Z" transform="translate(-2.06 -2.1)"/><path class="cls-122" d="M323.1,32c0,.36-.27.38-.5.37a.59.59,0,0,1-.66-.64c0-.42.43-.51.66-.49C323,31.27,323,31.73,323.1,32Z" transform="translate(-2.06 -2.1)"/><path class="cls-123" d="M114.8,119.21a1.43,1.43,0,0,1,.94.28.55.55,0,0,1-.49.67.66.66,0,0,1-.83-.25C114.2,119.51,114.56,119.39,114.8,119.21Z" transform="translate(-2.06 -2.1)"/><path class="cls-124" d="M115.35,120.85a.6.6,0,0,1,.6-.3c.08,0,.23.2.21.24a.53.53,0,0,1-.64.34C115.41,121.1,115.3,121.05,115.35,120.85Z" transform="translate(-2.06 -2.1)"/><path class="cls-109" d="M88.12,94.06c.44.4.7.84.29,1.42a1.3,1.3,0,0,1-1.5.1c-.48-.2-.51-.47-.21-.91A1.36,1.36,0,0,1,88.12,94.06Z" transform="translate(-2.06 -2.1)"/><path class="cls-115" d="M63.67,122.88c.21,0,.24.17.24.32s0,.32-.23.32-.23-.17-.23-.32S63.46,122.89,63.67,122.88Z" transform="translate(-2.06 -2.1)"/><path class="cls-101" d="M186.18,108.89c.32,0,.63,0,.64.46s-.11.62-.46.71-.74-.43-.75-.76S185.92,108.93,186.18,108.89Z" transform="translate(-2.06 -2.1)"/><path class="cls-125" d="M146.75,131.47a.48.48,0,0,1-.45-.53.87.87,0,0,1,.85-.65c.25,0,.32.17.31.4C147.45,131.18,147.19,131.49,146.75,131.47Z" transform="translate(-2.06 -2.1)"/><path class="cls-126" d="M106.62,107.72a.46.46,0,0,1-.35.41c-.07,0-.25-.19-.29-.32s.1-.33.31-.33S106.6,107.52,106.62,107.72Z" transform="translate(-2.06 -2.1)"/><path class="cls-127" d="M317.82,34c-.48-.06-1,.24-1.44-.23-.26-1,.21-1.78,1-1.66.58.07.76.38.7,1A1.74,1.74,0,0,1,317.82,34Z" transform="translate(-2.06 -2.1)"/><path class="cls-128" d="M180.36,137.24c-.31.42-.84.46-1.24.72l-.41-.23c-.56-.35-.69-.77-.39-1.23a1,1,0,0,1,1.48-.36A1.17,1.17,0,0,1,180.36,137.24Z" transform="translate(-2.06 -2.1)"/><path class="cls-129" d="M220.44,170.37a8.74,8.74,0,0,1-.47,1.22c-.13.24-.37.26-.57,0a.94.94,0,0,1-.18-1C219.46,170.11,219.91,170.42,220.44,170.37Z" transform="translate(-2.06 -2.1)"/><path class="cls-105" d="M212.47,91.85a.73.73,0,0,1-1.19-.1c-.28-.33-.24-.72.17-.78s.77-.25,1,.19C211.93,91.37,212.47,91.62,212.47,91.85Z" transform="translate(-2.06 -2.1)"/><path class="cls-113" d="M212.47,91.85c0-.23-.54-.48,0-.69C212.88,91.4,212.87,91.63,212.47,91.85Z" transform="translate(-2.06 -2.1)"/><path class="cls-130" d="M211.77,16.37c0-.59.23-.82.77-.81a.86.86,0,0,1,.8.86.88.88,0,0,1-.86.81C211.94,17.23,211.76,17,211.77,16.37Z" transform="translate(-2.06 -2.1)"/><path class="cls-131" d="M231.4,155c.21,0,.3.16.24.3s-.24.43-.51.38-.33-.21-.31-.3C230.86,155.09,231.1,155,231.4,155Z" transform="translate(-2.06 -2.1)"/><path class="cls-25" d="M165.64,44.32a1,1,0,0,1-.83.75.53.53,0,0,1-.56-.61c0-.42.4-.49.66-.52A.74.74,0,0,1,165.64,44.32Z" transform="translate(-2.06 -2.1)"/><path class="cls-108" d="M47.33,78.47a1.06,1.06,0,0,1-.89.65,1,1,0,0,1-.75-1c.05-.5.46-.34.72-.35C46.82,77.72,47.35,78.19,47.33,78.47Z" transform="translate(-2.06 -2.1)"/><path class="cls-132" d="M268.31,39.53c.39,0,.79,0,.76.55s-.33.49-.69.47a.64.64,0,0,1-.68-.67C267.7,39.44,268.07,39.58,268.31,39.53Z" transform="translate(-2.06 -2.1)"/><path class="cls-133" d="M30.21,84.19c-.4,0-.61-.28-.78-.59S29.77,83,30,83a.68.68,0,0,1,.65.59A.53.53,0,0,1,30.21,84.19Z" transform="translate(-2.06 -2.1)"/><path class="cls-108" d="M24.77,64.75c-.15.27-.12.7-.61.72-.3,0-.56,0-.56-.42s.13-.71.56-.77S24.68,64.42,24.77,64.75Z" transform="translate(-2.06 -2.1)"/><path class="cls-100" d="M3.46,85.87c.28,0,.47.09.45.4a.87.87,0,0,1-.43.76c-.22.11-.76-.38-.71-.65A.63.63,0,0,1,3.46,85.87Z" transform="translate(-2.06 -2.1)"/><path class="cls-134" d="M249.67,163.84c-.44-.24-.84-.42-.45-1,.07-.1.12-.19.27-.15a.25.25,0,0,1,.18.26Z" transform="translate(-2.06 -2.1)"/><path class="cls-135" d="M6.32,105.78c0,.34-.1.64-.48.68s-.73-.52-.71-.81.24-.56.51-.51S6.38,105.27,6.32,105.78Z" transform="translate(-2.06 -2.1)"/><path class="cls-113" d="M81.08,40.74a.78.78,0,0,1,.68-.68.55.55,0,0,1,.62.57c0,.44-.33.63-.62.8S81.12,41.09,81.08,40.74Z" transform="translate(-2.06 -2.1)"/><path class="cls-136" d="M63.87,84.41c0,.28-.4,1-.6.89s-.47-.12-.53-.41.27-.9.53-.94A.62.62,0,0,1,63.87,84.41Z" transform="translate(-2.06 -2.1)"/><path class="cls-137" d="M220.6,16c.42,0,.55.17.54.51s-.29.75-.63.7-.36-.45-.37-.75S220.28,16,220.6,16Z" transform="translate(-2.06 -2.1)"/><path class="cls-138" d="M51.17,136.77c-.3,0-.47-.1-.45-.41a.52.52,0,0,1,.62-.54c.31,0,.36.25.36.5S51.47,136.79,51.17,136.77Z" transform="translate(-2.06 -2.1)"/><path class="cls-139" d="M303.93,138.23a.88.88,0,0,0,.21-.12c.65-.59.64-.59,1.43-.1a3.31,3.31,0,0,0,.07.47.9.9,0,0,1-.3,1.11c-.33.25-1-.11-1.26-.56A1.49,1.49,0,0,1,303.93,138.23Z" transform="translate(-2.06 -2.1)"/><path class="cls-100" d="M151.78,99.29c0,.33-.11.52-.48.49s-.51,0-.51-.33a.56.56,0,0,1,.59-.6C151.7,98.82,151.78,99,151.78,99.29Z" transform="translate(-2.06 -2.1)"/><path class="cls-133" d="M253.63,86.11c.5,0,.77.15.82.57s-.17.39-.43.4a.63.63,0,0,1-.74-.58A.31.31,0,0,1,253.63,86.11Z" transform="translate(-2.06 -2.1)"/><path class="cls-24" d="M48.2,108.6c-.2-.14-.57-.12-.58-.49a.56.56,0,0,1,.56-.62c.32,0,.39.18.4.45A.57.57,0,0,1,48.2,108.6Z" transform="translate(-2.06 -2.1)"/><path class="cls-120" d="M165.69,85.68a1.18,1.18,0,0,1,.95.17.8.8,0,0,1,.45.92c-.44.14-.83.49-1.34.25-.31-.15-.6-.25-.35-.74A3.7,3.7,0,0,0,165.69,85.68Z" transform="translate(-2.06 -2.1)"/><path class="cls-101" d="M28.88,126.34c.06.42-.13.6-.59.58s-.62-.06-.6-.72c0-.32-.1-.74.47-.71S28.89,125.71,28.88,126.34Z" transform="translate(-2.06 -2.1)"/><path class="cls-140" d="M33.39,85.29c-.17.27-.18.61-.56.6s-.35-.25-.35-.5,0-.47.38-.46S33.24,85.14,33.39,85.29Z" transform="translate(-2.06 -2.1)"/><path class="cls-141" d="M5.63,90.44a.86.86,0,0,1,0,.72.7.7,0,0,1-1.16.13.62.62,0,0,1,0-.85A.7.7,0,0,1,5.63,90.44Z" transform="translate(-2.06 -2.1)"/><path class="cls-50" d="M121.84,143.48c-.34,0-.59-.08-.54-.45a.58.58,0,0,1,1.15.15C122.4,143.57,122.06,143.45,121.84,143.48Z" transform="translate(-2.06 -2.1)"/><path class="cls-142" d="M91.71,96.77c-.18.21-.09.66-.53.65s-.51-.36-.53-.65a.52.52,0,0,1,.39-.52C91.23,96.22,91.71,96.6,91.71,96.77Z" transform="translate(-2.06 -2.1)"/><path class="cls-66" d="M41.34,92.4a.67.67,0,0,1-.71.43c-.26,0-.46,0-.46-.38s.06-.65.42-.76S41.33,92.09,41.34,92.4Z" transform="translate(-2.06 -2.1)"/><path class="cls-25" d="M43.72,94.32c.3.07.52.22.51.55a.56.56,0,0,1-.59.61.57.57,0,0,1-.6-.61C43,94.43,43.51,94.53,43.72,94.32Z" transform="translate(-2.06 -2.1)"/><path class="cls-100" d="M20.57,66.76a.87.87,0,0,1,.55.43.46.46,0,0,1-.09.63.56.56,0,0,1-.56,0c-.28-.12-.26-.37-.18-.6A3.53,3.53,0,0,1,20.57,66.76Z" transform="translate(-2.06 -2.1)"/><path class="cls-51" d="M51,28.31a1.65,1.65,0,0,1-.95.2c-.44-.28-.89-.55-.78-1.19l.17-.31c.42-.64.76-.79,1.21-.55a1,1,0,0,1,.57,1.32A4.93,4.93,0,0,1,51,28.31Z" transform="translate(-2.06 -2.1)"/><path class="cls-143" d="M218.7,92.8a.64.64,0,0,1-.75.52c-.3,0-.46-.16-.41-.45a.56.56,0,0,1,.69-.48C218.5,92.43,218.59,92.66,218.7,92.8Z" transform="translate(-2.06 -2.1)"/><path class="cls-144" d="M289.52,108.2c0-.53-.16-1.14.54-1.41.19,0,.39,0,.58,0,.45,0,.59.31.55.72s-.2.67-.63.68S289.87,108.2,289.52,108.2Z" transform="translate(-2.06 -2.1)"/><path class="cls-50" d="M49.76,77.73c0,.27-.06.48-.38.46a.56.56,0,0,1-.56-.6c0-.31.14-.57.46-.53A.55.55,0,0,1,49.76,77.73Z" transform="translate(-2.06 -2.1)"/><path class="cls-133" d="M169.47,43.16c-.08.22-.2.49-.46.44s-.64-.12-.67-.54.19-.37.45-.38S169.4,42.78,169.47,43.16Z" transform="translate(-2.06 -2.1)"/><path class="cls-139" d="M115.72,85.39c0,.26-.24.27-.42.28s-.51,0-.47-.35a.42.42,0,0,1,.41-.36A.5.5,0,0,1,115.72,85.39Z" transform="translate(-2.06 -2.1)"/><path class="cls-113" d="M284,48.15c-.08.33-.23.53-.48.49a.52.52,0,0,1-.46-.57c0-.23.15-.33.38-.34S283.84,48,284,48.15Z" transform="translate(-2.06 -2.1)"/><path class="cls-133" d="M305.62,65.05a1.67,1.67,0,0,1,1.37.5,2.49,2.49,0,0,0-.22.65c-.2.56-.72.61-1.1.16A1.13,1.13,0,0,1,305.62,65.05Z" transform="translate(-2.06 -2.1)"/><path class="cls-51" d="M111.44,84.93c.29,0,.27.29.25.53s-.11.44-.33.38a.51.51,0,0,1-.4-.62C111,85,111.18,84.92,111.44,84.93Z" transform="translate(-2.06 -2.1)"/><path class="cls-130" d="M109,122.6a1.14,1.14,0,0,1,0-1.43h.36c.39,0,.77,0,1,.47s-.11.67-.3,1C109.76,123.06,109.39,122.74,109,122.6Z" transform="translate(-2.06 -2.1)"/><path class="cls-132" d="M279.49,110.84c-.06.29-.17.5-.53.47s-.46,0-.69,0c-.2-.29-.72-.4-.4-.94a.82.82,0,0,1,.84-.5C279.36,109.9,279.46,110.33,279.49,110.84Z" transform="translate(-2.06 -2.1)"/><path class="cls-145" d="M118.62,120a.68.68,0,0,1-.84.45.33.33,0,0,1-.31-.4.54.54,0,0,1,.63-.53A.5.5,0,0,1,118.62,120Z" transform="translate(-2.06 -2.1)"/><path class="cls-140" d="M247.77,66.94a1,1,0,0,1,1.4.28c-.43,1-.72,1.12-1.36.61C247.42,67.52,247.57,67.25,247.77,66.94Z" transform="translate(-2.06 -2.1)"/><path class="cls-146" d="M85.76,166l.67.07c.43.4.74.82.28,1.41-.49.15-.86.67-1.51.31-.44-.24-.75-.38-.48-.93,0-.06-.09-.2-.14-.31C85,166.35,85.22,165.86,85.76,166Z" transform="translate(-2.06 -2.1)"/><path class="cls-147" d="M265.05,154.76a1.19,1.19,0,0,1-1.16.46.44.44,0,0,0-.06-.1.6.6,0,0,1-.05-.93c.21-.26.43-.25.79-.18C265.11,154.11,265,154.42,265.05,154.76Z" transform="translate(-2.06 -2.1)"/><path class="cls-133" d="M88.65,133.89c-.33-.16-.5-.34-.48-.66s.27-.32.51-.31.45.11.43.41A.69.69,0,0,1,88.65,133.89Z" transform="translate(-2.06 -2.1)"/><path class="cls-51" d="M198.28,141.58a1.61,1.61,0,0,1,0,1.2,2.43,2.43,0,0,1-.78.22c-.42,0-.39-.33-.54-.53s.05-.41.19-.59C197.49,141.52,197.89,141.57,198.28,141.58Z" transform="translate(-2.06 -2.1)"/><path class="cls-52" d="M42.11,24.19c-.48-.57-.15-1,.26-1.4a.8.8,0,0,1,.86.48.88.88,0,0,1-.16,1C42.71,24.62,42.42,24.33,42.11,24.19Z" transform="translate(-2.06 -2.1)"/><path class="cls-105" d="M239.56,105.82c.89.8.91.86.52,1.9-.64.7-1.28.4-1.92,0C237.62,106.31,238,105.79,239.56,105.82Z" transform="translate(-2.06 -2.1)"/><path class="cls-108" d="M10.2,47.23a.43.43,0,0,1,.32-.42c.26-.08.36.1.37.31a.32.32,0,0,1-.34.37A.31.31,0,0,1,10.2,47.23Z" transform="translate(-2.06 -2.1)"/><path class="cls-148" d="M307,129.11c.28.11.53.21.5.49s-.28.43-.58.43-.34-.12-.34-.36S306.82,129.24,307,129.11Z" transform="translate(-2.06 -2.1)"/><path class="cls-55" d="M83.47,42.21c.13,0,.32,0,.32.23a.45.45,0,0,1-.43.44c-.21,0-.22-.17-.23-.32S83.21,42.2,83.47,42.21Z" transform="translate(-2.06 -2.1)"/><path class="cls-149" d="M308.47,131.67c0,.25-.21.29-.42.29s-.44-.21-.43-.35a.46.46,0,0,1,.53-.36A.34.34,0,0,1,308.47,131.67Z" transform="translate(-2.06 -2.1)"/><path class="cls-150" d="M256.4,92.32c.74.24.77.29.52,1a.26.26,0,0,1-.07.1c-.36.25-.87.3-1.06,0C255.48,92.88,256,92.61,256.4,92.32Z" transform="translate(-2.06 -2.1)"/><path class="cls-151" d="M108.53,87c-.23.34-.6.28-.93.33-.41-.29-.23-.68-.21-1.06C107.9,86.35,108.49,86.25,108.53,87Z" transform="translate(-2.06 -2.1)"/><path class="cls-152" d="M269.13,162.2c-.06-.48-.5-.95-.05-1.44.58-.27.84-.22,1.15.23s.06.66-.23.93A1,1,0,0,1,269.13,162.2Z" transform="translate(-2.06 -2.1)"/><path class="cls-138" d="M314,54.24c.91.22.91.22,1,1.4a.67.67,0,0,1-1,.09c-.3-.2-.22-.56-.16-.85S314,54.48,314,54.24Z" transform="translate(-2.06 -2.1)"/><path class="cls-141" d="M52.12,110.66a.87.87,0,0,1-.69.61c-.2,0-.23-.17-.22-.32a.59.59,0,0,1,.7-.56C52,110.4,52.13,110.46,52.12,110.66Z" transform="translate(-2.06 -2.1)"/><path class="cls-51" d="M112.14,123.54a.55.55,0,0,1-.54.49.31.31,0,0,1-.39-.31.49.49,0,0,1,.43-.58C111.88,123.11,112.06,123.28,112.14,123.54Z" transform="translate(-2.06 -2.1)"/><path class="cls-101" d="M270.57,138.47A1.55,1.55,0,0,1,272,138c.36.43.11.82-.16,1.13s-.66.32-1-.12A3.63,3.63,0,0,1,270.57,138.47Z" transform="translate(-2.06 -2.1)"/><path class="cls-153" d="M9.44,108l-.12,0-.12,0v-.71c.19,0,.39-.08.45.17S9.72,107.88,9.44,108Z" transform="translate(-2.06 -2.1)"/><path class="cls-125" d="M9.2,107.27V108c-.11.3-.19.15-.28,0S8.38,107.2,9.2,107.27Z" transform="translate(-2.06 -2.1)"/><path class="cls-147" d="M6.93,88.26c.14,0,.28,0,.25.16a.35.35,0,0,1-.42.3.19.19,0,0,1-.16-.25A.28.28,0,0,1,6.93,88.26Z" transform="translate(-2.06 -2.1)"/><path class="cls-154" d="M28.89,130l-.26,0h0c0-.33,0-.69.33-.91s.46-.07.58.43C29.25,129.58,28.85,129.43,28.89,130Z" transform="translate(-2.06 -2.1)"/><path class="cls-121" d="M28.89,130c0-.56.36-.41.66-.42C29.65,130.21,29.18,130,28.89,130Z" transform="translate(-2.06 -2.1)"/><path class="cls-37" d="M117.2,147.56c-.71.34-.71.34-1.23-.24,0-.27-.13-.68.36-.7S117.09,146.92,117.2,147.56Z" transform="translate(-2.06 -2.1)"/><path class="cls-52" d="M48.1,141.53c.69-1.18.93-1.23,2.14-.45,0,.38.14.82-.29,1.07s-.91,0-1.31-.19C48.45,141.85,48.34,141.6,48.1,141.53Z" transform="translate(-2.06 -2.1)"/><path class="cls-51" d="M64.88,120.64c.56,0,.5.4.5.76-.31.39-.63.31-.87,0S64.66,120.83,64.88,120.64Z" transform="translate(-2.06 -2.1)"/><path class="cls-155" d="M91.83,40.29c.16,0,.33,0,.36.2a.35.35,0,0,1-.31.41c-.09,0-.26-.18-.31-.32S91.64,40.3,91.83,40.29Z" transform="translate(-2.06 -2.1)"/><path class="cls-156" d="M269.57,156.68a.78.78,0,0,1,1.26,0c0,.54-.19.79-.77.76S269.62,157,269.57,156.68Z" transform="translate(-2.06 -2.1)"/><path class="cls-157" d="M132.07,74.1c-.22,0-.37.37-.62.18s-.57-.42-.59-.83a1.42,1.42,0,0,1,.3-.75c.73-.32,1.06-.23.94-.07-.36.46.57.53.23.94A2,2,0,0,0,132.07,74.1Z" transform="translate(-2.06 -2.1)"/><path class="cls-24" d="M187.75,105.8c.27.32,0,.64,0,1a.94.94,0,0,1-1.2,0C186.43,105.83,186.84,105.5,187.75,105.8Z" transform="translate(-2.06 -2.1)"/><path class="cls-120" d="M99.65,84.86c-.83.4-1.27.24-1.63-.62a3.71,3.71,0,0,1,.47-.5.94.94,0,0,1,1-.21c.36.17.15.56.19.86A2.5,2.5,0,0,1,99.65,84.86Z" transform="translate(-2.06 -2.1)"/><path class="cls-50" d="M11.39,105.55c-.13-.22-.33-.41-.26-.69a1.6,1.6,0,0,1,.23,0c.25,0,.62-.15.66.24S11.73,105.55,11.39,105.55Z" transform="translate(-2.06 -2.1)"/><path class="cls-100" d="M87.23,136.26a.74.74,0,0,0,.21,0c.39.93.28,1.17-.58,1.22-.2,0-.4,0-.6,0l-.25-.26a1.68,1.68,0,0,0,.23-1.18h0C86.6,136,86.86,136.38,87.23,136.26Z" transform="translate(-2.06 -2.1)"/><path class="cls-158" d="M26,130.73c.85.13.85.13.49,1-.23.05-.46.44-.7.06S25.45,131,26,130.73Z" transform="translate(-2.06 -2.1)"/><path class="cls-140" d="M268.87,34.77a.64.64,0,0,0,.05.23c-.33.92-.58,1-1.28.24a.35.35,0,0,1,0-.11C268.09,34.3,268.12,34.3,268.87,34.77Z" transform="translate(-2.06 -2.1)"/><path class="cls-140" d="M51.42,152.16c.23,1.07,0,1.31-1.12,1.38C50,152.49,50.27,152.16,51.42,152.16Z" transform="translate(-2.06 -2.1)"/><path class="cls-123" d="M288.59,52.33c.91-.47,1.18-.3,1.38.84C288.94,53.72,288.62,53.52,288.59,52.33Z" transform="translate(-2.06 -2.1)"/><path class="cls-52" d="M26.24,73.12c.75.09.75.09.43,1C25.85,74,25.79,73.91,26.24,73.12Z" transform="translate(-2.06 -2.1)"/><path class="cls-52" d="M170,83.47a.48.48,0,0,1-.12,0c-.28-.07-.48.46-.81.11s-.2-.69,0-1a3.09,3.09,0,0,1,.68,0C170.2,82.66,170.25,82.88,170,83.47Z" transform="translate(-2.06 -2.1)"/><path class="cls-143" d="M62.46,126.69c0,.17.2.26.13.5-.11.4-.28.45-.59.21-.06-.23-.36-.4-.12-.71S62.27,126.65,62.46,126.69Z" transform="translate(-2.06 -2.1)"/><path class="cls-55" d="M86.24,136a1.68,1.68,0,0,1-.23,1.18c-.57-.38-.13-.78,0-1.18Z" transform="translate(-2.06 -2.1)"/><path class="cls-55" d="M87.23,136.26c-.37.12-.63-.3-1-.22C86.71,135.68,86.74,135.69,87.23,136.26Z" transform="translate(-2.06 -2.1)"/><path class="cls-122" d="M81,89c0,.52-.38.52-.75.5a.58.58,0,0,1,0-1C80.9,88.24,80.9,88.24,81,89Z" transform="translate(-2.06 -2.1)"/><path class="cls-159" d="M136.64,179.5l.26.5c-.27.29-.53.37-.74-.06A.62.62,0,0,1,136.64,179.5Z" transform="translate(-2.06 -2.1)"/><path class="cls-160" d="M156.14,159.8c-.52,0-.82-.27-.78-.65a1.06,1.06,0,0,1,1-.79.65.65,0,0,1,.66.78C157,159.64,156.76,159.82,156.14,159.8Zm.36-.61c.05-.21,0-.28-.14-.31s-.28.09-.38.2a.13.13,0,0,0,.08.23C156.23,159.32,156.45,159.38,156.5,159.19Z" transform="translate(-2.06 -2.1)"/><path class="cls-161" d="M237.2,142.37a.57.57,0,0,1-.58.62.59.59,0,1,1,0-1.18C237,141.79,237.14,142,237.2,142.37Z" transform="translate(-2.06 -2.1)"/><path class="cls-162" d="M156.5,159.19c-.05.19-.27.13-.44.12a.13.13,0,0,1-.08-.23c.1-.11.19-.26.38-.2S156.55,159,156.5,159.19Z" transform="translate(-2.06 -2.1)"/></svg>