<?xml version="1.0" encoding="utf-8"?>
<!-- Generator: Adobe Illustrator 23.0.1, SVG Export Plug-In . SVG Version: 6.00 Build 0)  -->
<svg version="1.1" id="Layer_1" xmlns="http://www.w3.org/2000/svg" xmlns:xlink="http://www.w3.org/1999/xlink" x="0px" y="0px"
	 viewBox="0 0 198 64" style="enable-background:new 0 0 198 64;" xml:space="preserve">
<style type="text/css">
	.st0{fill:#C38682;}
	.st1{fill:#C68B88;}
	.st2{fill:#E1C4C2;}
	.st3{fill:#E4C9C7;}
	.st4{fill:#C38581;}
	.st5{fill:#C38481;}
	.st6{fill:#F1E4E3;}
	.st7{fill:#F6EEED;}
</style>
<g>
	<g>
		<path class="st0" d="M7.9,42.9c4.4-1,8.8-2.1,13.3-2.8c7.7-1.2,15.4-2.1,23.5-3.1c-5.2-2.7-10-5.1-15.4-7.9c1-4,1.9-7.4,2.8-10.9
			c5.2-0.9,9.6-1.6,14.5-2.4c0.2,2.1,0.3,3.5,0.4,5c-2.1,1.7-4,3.2-5.6,4.4c4.6,3.3,9.1,6.5,13.1,9.3c1,4.6-0.1,7.5-3,10.6
			C37,46.4,22,47.7,7,49c0-0.7,0-1.3,0-2C7.3,45.6,7.6,44.3,7.9,42.9z"/>
		<path class="st0" d="M88.1,29c-3.2,1.6-6.4,3.2-10.3,5.1c0.3,6.1,0.4,12.3,1,18.5c0.3,2.8-0.4,5.2-1.8,7.5c-0.3,0-0.7,0-1,0
			c-1.6-1.8-2.1-3.8-2.1-6.3c-0.2-6.1-0.7-12.2-1.1-18.5c-1.9,0-3.7,0-5.6,0c-1.7,3.1-3.4,6.2-5.7,10.2c-3.5-5.6-4.8-10.6-4.4-16.4
			c5.5-1.4,8-5.5,10.1-10.2c1.3-3,3-5.9,6.9-7.3c2,5.1,4,10.1,6.2,15.6c2.2,0.3,4.4,0.5,6.7,0.8C87.3,28.3,87.7,28.6,88.1,29z
			 M73.9,26.8c-0.1-2.7,0.6-5-0.8-8.2c-2,3.1-3.4,5.4-5.2,8.2C70.2,26.8,71.8,26.8,73.9,26.8z"/>
		<path class="st1" d="M187,6c0.6,1,1.2,1.9,1.9,3c-0.6,3.3-2.3,5.6-6.3,5.8c-1.6-3.6,0.9-6.1,2.4-8.8C185.7,6,186.3,6,187,6z"/>
		<path class="st2" d="M191,43c-0.3,0.1-0.5,0.1-0.8,0.1c0-2.4-0.1-4.8-0.1-7.2c0.3,0.1,0.6,0.1,0.9,0C191,38.3,191,40.7,191,43z"/>
		<path class="st3" d="M7.9,42.9C7.6,44.3,7.3,45.6,7,47c0-1.3,0-2.7,0-4C7.3,43,7.6,43,7.9,42.9z"/>
		<path class="st4" d="M88.1,29c-0.4-0.3-0.7-0.7-1.1-1c-1.2-2.6-2.4-5.1-3.8-8.1c6.4-6.8,14.4-6.5,23.1-4.4
			c1.4,1.6,3.1,3.4,4.9,5.4c-0.3,1.8-0.6,3.6-1,6.1c5,1.6,10.2,3.2,15.7,4.9c3.5-5.3,6.7-10.3,10.1-15.5c1.6,1,2.8,1.8,3.9,2.5
			c0.5,4,1,7.8,1.5,11.9c1.4,0.2,2.8,0.4,4,0.5c2.3,3.2-1,4.3-2,6.4c-1.8,3.6,1.2,8.5-1.5,12.2c-0.5,0-0.9,0-1.4,0
			c-1.4-3.6-2.7-7.2-4.3-11.2c-4.8,0.5-9.7,2.7-14.8,4.5c-5.3,1.9-10.7,3.5-16.1,5.1c-5,1.5-9.4-0.5-14-2
			C90.1,40.3,89.1,34.7,88.1,29z M93.7,29c0.6,4.2,1,7.5,1.5,10.7c6.9-0.7,13.5-1.4,21-2.2C109.2,32.6,101.4,32.2,93.7,29z M97,22
			c-0.1-0.3-0.3-0.7-0.4-1c-1.2,0.1-2.3,0.2-4,0.4c0.8,1.3,1.2,2,1.8,3.1C95.5,23.5,96.3,22.8,97,22z M133.8,30.7c1.3,0,2.1,0,3.4,0
			c-0.6-1.2-0.9-1.9-1.5-3.1C134.9,28.8,134.5,29.6,133.8,30.7z"/>
		<path class="st0" d="M148,41.6c1.9-7.3,3.8-14.4,5.7-21.5c4.2,5,0.4,10.3,1.7,15.7c7.8-0.4,15.7-2.3,23.4,1.2c0,1.9,0,3.7,0,6.2
			c-7.3,0.6-14.5,1.3-21.7,1.8C153.9,45.1,150.8,44.3,148,41.6z"/>
		<path class="st5" d="M190.1,36c0,2.4,0.1,4.8,0.1,7.2c-0.6,1.1-1.2,2.2-2,3.6c-1.6-1.1-2.8-1.8-4-2.6c0-8,0-15.7,0-24.7
			C188.2,24.9,189.3,30.4,190.1,36z"/>
		<path class="st6" d="M97,22c-0.8,0.7-1.6,1.5-2.6,2.5c-0.6-1-1.1-1.8-1.8-3.1c1.7-0.2,2.9-0.3,4-0.4C96.8,21.4,96.9,21.7,97,22z"
			/>
		<path class="st7" d="M133.8,30.7c0.7-1.1,1.2-1.9,1.9-3.1c0.6,1.2,0.9,1.9,1.5,3.1C135.9,30.7,135.1,30.7,133.8,30.7z"/>
	</g>
</g>
</svg>
