<?xml version="1.0" encoding="utf-8"?>
<!-- Generator: Adobe Illustrator 23.0.1, SVG Export Plug-In . SVG Version: 6.00 Build 0)  -->
<svg version="1.1" id="Layer_1" xmlns="http://www.w3.org/2000/svg" xmlns:xlink="http://www.w3.org/1999/xlink" x="0px" y="0px"
	 viewBox="0 0 151.92 31.44" style="enable-background:new 0 0 151.92 31.44;" xml:space="preserve">
<style type="text/css">
	.st0{fill:#D37575;}
</style>
<g>
	<g>
		<path class="st0" d="M38.12,11.48c3.7-0.24,7.42-0.77,11.06,0.82c-0.43,1.09-0.8,1.98-2.07,2.25c-2.2,0.46-4.36,1.1-6.55,1.6
			c-0.8,0.18-1.17,0.48-1.33,1.36c-0.35,1.9-0.91,3.76-1.45,5.92c2.36-0.8,4.64-1.56,6.91-2.35c2.24-0.78,4.42-1.67,5.84-3.76
			c1.3,1.93,1.05,4.27-0.23,5.96c-1.7,2.24-4.13,3.19-6.58,4.1c-2.22,0.83-4.32,1.98-6.84,1.93c-2.18-0.05-3.31-1.1-3.88-3.19
			c-0.77-2.84,0.91-5.03,1.42-7.52c0.03-0.15,0.08-0.31,0.12-0.49c-0.12-0.05-0.24-0.15-0.32-0.13c-2.42,0.52-3.68-0.42-3.82-2.89
			c-0.05-0.89,0.39-1.45,1.22-1.75c1.03-0.38,2.05-0.79,3.07-1.19c-0.33-0.96-0.73-1.92-0.99-2.93c-0.32-1.27,0.12-1.74,1.32-2.16
			c0.94-0.33,1.73-1.09,2.67-1.41c3.39-1.14,6.89-1.26,10.4-0.82c1.36,0.17,2.79,2.15,2.42,3.43c-0.13,0.44-0.89,0.89-1.43,0.98
			c-2,0.34-4.03,0.49-6.04,0.81c-1.67,0.26-3.33,0.66-4.99,0.99C38.07,11.18,38.1,11.33,38.12,11.48z"/>
		<path class="st0" d="M30.26,19.11c0.18,1.27-0.7,2.21-2.14,2.91c-3.53,1.72-7.29,2.48-11.15,2.89c-2.57,0.28-5.13,0.66-7.7,1
			C8.66,26,8.23,26.19,7.98,26.91c-0.43,1.25-1.65,1.49-2.36,0.35c-0.75-1.19-1.37-2.68-1.4-4.06c-0.05-2.48,0.33-4.98,0.62-7.46
			c0.13-1.13,0.17-1.97-0.81-2.95C3.23,12,3.09,10.52,2.81,9.3C2.75,9.05,3.3,8.39,3.64,8.34c2.77-0.44,5.56-1.12,8.33-1.08
			c3.29,0.05,6.58,0.73,9.52,2.39c1.86,1.05,3.79,2.05,5.47,3.36C28.76,14.41,30.26,16.15,30.26,19.11z M25.99,17.32
			c-2.43-3.6-12.66-6.43-16.81-4.66c-0.13,2.13-0.19,4.24-0.4,6.33c-0.14,1.41-0.03,1.67,1.35,1.5c2.95-0.37,5.92-0.67,8.84-1.24
			C21.28,18.8,23.53,18.01,25.99,17.32z"/>
		<path class="st0" d="M74.42,8.34c0.65,2.92,1.23,5.75,1.92,8.55c0.43,1.72,1.13,3.38,1.51,5.11c0.14,0.63-0.15,1.5-0.54,2.04
			c-0.22,0.29-1.08,0.2-1.63,0.11c-0.26-0.04-0.59-0.43-0.68-0.72c-1.04-3.5-2.07-7-3.06-10.52c-0.37-1.3-0.61-2.63-0.98-3.93
			c-0.07-0.26-0.41-0.6-0.67-0.63c-2.25-0.28-4.5-0.5-6.76-0.74c-0.12-0.01-0.24,0-0.36-0.01c-2.49-0.1-3.79-1.27-4.11-3.68
			c-0.14-1.05,1-1.79,2.52-1.74c4.29,0.13,8.58,0.37,12.87,0.28c3.69-0.08,7.37-0.61,11.06-0.84c1.98-0.12,3.97-0.09,5.95-0.02
			c1.44,0.05,2.86,1.95,2.52,3.36c-0.09,0.37-0.56,0.86-0.91,0.91c-2.98,0.48-5.98,0.87-8.97,1.3c-1.61,0.23-3.21,0.56-4.83,0.76
			C77.68,8.12,76.05,8.21,74.42,8.34z"/>
		<path class="st0" d="M106.28,16.93c2.09,1.31,4.17,1.06,6.17,1.19c4.33,0.29,8.67,0.54,13,0.75c1,0.05,2.01-0.17,3.05-0.28
			c0.3,1.58,0.09,3.07-1.32,4.19c-0.24,0.19-0.55,0.38-0.83,0.4c-3.21,0.27-6.42,0.6-9.64,0.71c-2.61,0.08-5.27,0.12-7.84-0.28
			c-1.74-0.27-3.45-1.18-4.98-2.11c-0.7-0.42-1.07-1.56-1.35-2.44c-0.83-2.62,0.13-5.52,2.48-6.96c2.37-1.45,4.84-2.75,7.37-3.9
			c1.19-0.54,2.61-0.62,3.94-0.77c0.78-0.09,1.63,0.15,1.83,1.06c0.19,0.86,0.25,1.77,0.22,2.64c-0.01,0.24-0.6,0.68-0.87,0.65
			c-2.91-0.34-5.27,0.94-7.54,2.46C108.76,15.06,107.61,15.96,106.28,16.93z"/>
		<path class="st0" d="M133.05,17.69c0.23,1.85,0.47,3.5,0.61,5.16c0.07,0.79-0.14,1.54-1.12,1.7c-0.76,0.13-1.35-0.07-1.56-0.89
			c-0.48-1.88-1-3.76-1.41-5.66c-0.18-0.84-0.62-1.28-1.39-1.4c-1.27-0.21-1.87-0.75-2.15-2.56c-0.11-0.75-0.18-1.55-0.02-2.27
			c0.09-0.41,0.41-1.31,1.52,0.01c-0.45-1.85-0.98-3.22,0.6-4.08c1.45,0.43,1.81,1.77,2.26,2.98c0.36,0.98,1.01,1.35,1.95,1.42
			c3.12,0.25,6.14-0.13,8.98-1.5c0.84-0.4,1.43-0.99,1.03-2.1c-0.21-0.58-0.23-1.25-0.27-1.88c-0.09-1.34,0.73-1.88,2.05-2.06
			c0.96,1.6,2.04,3.1,2.11,5.3c0.09,2.68,0.82,5.33,1.29,7.99c0.12,0.67,0.2,1.35,0.4,1.99c0.41,1.26,0.92,2.49,1.32,3.75
			c0.15,0.48,0.23,1.02,0.19,1.52c-0.09,0.97-0.5,1.83-1.57,1.99c-0.96,0.14-1.42-0.51-1.85-1.33c-1.25-2.39-1.21-5.07-1.8-7.6
			c-0.19-0.81-0.2-1.66-0.29-2.49c-0.07-0.66-0.47-0.86-0.99-0.56C139.89,16.89,136.58,17.58,133.05,17.69z"/>
		<path class="st0" d="M89.56,14.97c2.17,0.86,4.13,1.54,6.02,2.39c2.25,1.01,4.46,2.07,6.17,3.99c1.16,1.31,1.39,2.76,1.12,4.33
			c-0.07,0.42-0.67,1-1.1,1.07c-1.32,0.23-2.68,0.39-4.02,0.34c-1.84-0.08-2.98-1.55-2.65-3.34c0.17-0.92,0.02-1.37-0.92-1.68
			c-1.59-0.51-3.14-1.16-4.7-1.76c-1.8-0.69-3.43-1.6-4.59-3.22c-0.96-1.34-0.79-2.9-0.84-4.36c-0.02-0.51,0.72-1.31,1.29-1.53
			c2.15-0.83,4.37-1.47,6.56-2.19c0.34-0.11,0.69-0.19,1.01-0.34c1.81-0.86,4.52,1.69,4.57,3.14c0.05,1.37-0.66,2.09-2.02,1.73
			c-1.81-0.48-3.38,0.17-4.99,0.74C90.19,14.39,89.97,14.65,89.56,14.97z"/>
		<path class="st0" d="M51.87,13.73c0.22-0.81,0.37-1.76,0.75-2.6c0.24-0.54,0.95-1.36,1.23-1.28c0.62,0.17,1.34,0.74,1.57,1.32
			c0.35,0.88,0.35,1.91,0.43,2.88c0.03,0.42-0.13,0.86-0.17,1.29c-0.23,3.16-0.33,3.04,3.11,3.44c1.09,0.13,2.39-0.35,3.38-0.91
			c1.51-0.86,1.03-2.54,1.1-3.94c0.03-0.55-0.5-1.3,0.35-1.49c0.48-0.1,1.17,0.17,1.58,0.51c1.44,1.18,1.88,2.79,1.7,4.61
			c-0.09,0.95-0.01,1.95-0.27,2.85c-0.24,0.83-0.68,1.77-1.32,2.29c-2.31,1.87-6.06,2.69-9.16,0.86c-1.53-0.9-2.39-2.19-3.02-3.72
			c-0.3-0.73-0.46-1.52-0.62-2.3C52.28,16.33,52.1,15.12,51.87,13.73z"/>
	</g>
</g>
</svg>
