<?xml version="1.0" encoding="utf-8"?>
<!-- Generator: Adobe Illustrator 23.0.1, SVG Export Plug-In . SVG Version: 6.00 Build 0)  -->
<svg version="1.1" id="Layer_1" xmlns="http://www.w3.org/2000/svg" xmlns:xlink="http://www.w3.org/1999/xlink" x="0px" y="0px"
	 viewBox="0 0 160.44 24.53" style="enable-background:new 0 0 160.44 24.53;" xml:space="preserve">
<style type="text/css">
	.st0{fill:#FFFFFF;}
</style>
<title>english-wit</title>
<path class="st0" d="M33.37,11.87c0.18,2.34-0.21,4.41,0.27,6.46c0.16,0.69-0.25,1.12-0.81,1.46c-0.55,0.31-1.24,0.16-1.61-0.34
	c-0.6-0.54-1.05-1.23-1.29-2c-0.35,0.69-1.15,0.84-1.17,1.67c0,0.21-0.36,0.27-0.59,0.34c-3.31,1.05-6.7,1.81-10.08,2.6
	c-3.71,0.86-7.43,1.64-11.17,2.34c-1.57,0.37-3.21,0.14-4.62-0.64C0.9,22.59,0.18,20.81,0.36,19c0.31-1.28,0.37-2.66,1.27-3.75
	c0.18-0.23,0.13-0.55-0.09-0.73c-0.01-0.01-0.02-0.01-0.03-0.02l-0.42-0.43c-0.64-0.73-1.39-1.6-1-2.52
	c0.53-0.75,1.37-1.21,2.29-1.24C3.21,10.18,3.9,9.96,4.04,9.1c0.17-1,1.18-2,0-3.17c-1.06-0.8-1.35-2.27-0.67-3.41
	C3.51,2.27,3.73,2.09,4,2c2.6-0.95,5.3-1.57,8.05-1.85c2.15-0.23,4.32-0.2,6.46,0.09C19.03,0.32,19.53,0.48,20,0.7
	c0.51,0.22,0.74,0.81,0.52,1.31c-0.08,0.19-0.23,0.36-0.41,0.47c-0.44,0.26-0.9,0.48-1.38,0.65C16.28,3.78,13.84,4.4,11.41,5
	C9.14,5.56,9.17,5.54,8.92,7.79c-0.12,1.09,0,1.72,1.36,1.58c1.18-0.11,2.37-0.23,3.54-0.41c0.51-0.06,1.03-0.09,1.55-0.09
	c0.28-0.04,0.56,0.11,0.68,0.37c0.08,0.3-0.23,0.42-0.44,0.48c-0.72,0.19-1,0.91-1.47,1.34c-1.91,1.6-4.17,2.72-6.59,3.28
	c-0.75,0.2-0.67,0.78-0.94,1.21c-0.49,0.8-1.23,2-0.8,2.55s1.87,0.27,2.76,0.05c3.11-0.78,6.27-1.29,9.43-1.8
	c1.78-0.45,3.61-0.65,5.45-0.59c1.28,0.04,2.56-0.12,3.8-0.46c0.49-0.09,0.88,0.38,1.51-0.09s0.65-0.49,0.64-1.09
	c-0.06-1.63-0.03-3.26,0.11-4.88c0.29-1.5,0.18-3.04-0.34-4.48c-0.43-0.93,0-1.76,0.21-2.62c0.07-0.33,0.39-0.5,0.83-0.26
	c1.09,0.6,2.22,1.15,2.59,2.46c0.63,2.16,2.24,3.7,3.45,5.49c1.27,1.96,3.01,3.56,5.07,4.66c0.93,0.5,1.95,0.84,3,1
	c2.26,0.26,4.56,0.57,6.73-0.46c1.15-0.54,2.42-1.17,2.55-2.6c0.16-1.63-0.93-2.73-2.22-3.51S49,7,47.43,6.51
	c-0.29-0.08-0.68-0.75-1.15-1c-0.29-0.18-0.17-0.6-0.12-0.89s0.43-0.07,0.54-0.14c1.17-0.71,2.45,0.24,3.62-0.27
	c0.12-0.02,0.23,0.02,0.32,0.1c1.07,1,2.68,1.32,3.61,2.53c1.19,1.56,2.68,2.87,3.28,4.9c1.44,4.92,0.14,6.58-4.09,8.37
	c-4.36,1.92-9.43,1.3-13.2-1.62c-2.35-1.55-4.4-3.51-6.06-5.78C33.93,12.41,33.66,12.13,33.37,11.87z"/>
<path class="st0" d="M80,15.45c-0.87-0.06-1.69-0.13-2.5-0.17c-0.2,0-0.33,0.09-0.56-0.11c-0.73-0.62-2.23,0-2.43-1.55
	c0-0.28-0.18-0.63,0-0.79c0.93-0.83,1.65-2.1,3.09-2c3.28,0.2,6,1.4,7.53,4.58c0.47,0.94,0.36,2.06-0.28,2.89
	c-1.07,1.7-2.85,2.5-4.63,3.22c-4.04,1.69-8.46,2.3-12.81,1.76c-3.55-0.44-6.53-2.88-7.66-6.28c-0.97-3.06-0.21-6.4,2-8.73
	c2.26-2.51,4.9-4.66,7.82-6.36c1.2-0.7,3.08,0.34,3.68,2c0.55,1.07,0.13,2.38-0.94,2.94c-0.04,0.02-0.09,0.04-0.13,0.06
	c-0.63,0.4-1.32,0.71-2,1.1c-2.8,1.71-5.12,4.13-6.71,7c-0.8,1.42-0.51,2,1,2.53c2.36,0.66,4.81,0.91,7.25,0.76
	c2.26-0.15,4.45-0.8,6.43-1.9C78.81,16.09,79.64,16.42,80,15.45z"/>
<path class="st0" d="M139.91,6.8c-0.86-1.48-1.3-3.17-1.28-4.88c0-0.44,0.06-0.68,0.42-0.57c0.91,0.28,1.89,0.5,2.36,1.5
	c0.6,1.11,1.13,2.26,1.59,3.44c0.26,0.81,0.65,1,1.36,0.89c1.82-0.17,3.6-0.6,5.29-1.27c1.46-0.68,3-1.2,4.46-1.83
	c0.36-0.15,0.65-0.44,0.8-0.8c0.62-1.33,1.63-1.54,2.61-0.45s2,2.29,1,4c-0.69,1.15-0.11,2.45,0,3.63c0.22,2.33,0.58,4.64,1.08,6.92
	c0.1,0.46,0.25,0.91,0.46,1.34c0.2,0.43,0.32,0.9,0.35,1.37c0.09,0.72-0.32,1.41-1,1.66c-0.55,0.24-1.13-0.2-1.55-0.67
	c-0.86-1.17-1.38-2.55-1.51-4c-0.42-2.12-0.68-4.28-1-6.42c-0.2-1.28-0.37-1.32-1.49-0.74c-2.09,0.95-4.3,1.62-6.57,2
	c-0.24,0.02-0.48,0.02-0.72,0c-1.67,0.25-1.67,0.25-1.3,1.89c0.45,1.89,0.7,3.83,0.72,5.78c-0.01,0.08-0.01,0.16,0,0.24
	c0.23,0.94,0.15,1.83-0.91,2.1s-1.74-0.44-2.2-1.36c-0.57-1.3-0.89-2.71-0.94-4.13c-0.08-0.91-0.29-1.8-0.34-2.71
	c0.08-0.75-0.46-1.42-1.2-1.5c-0.04,0-0.09-0.01-0.13-0.01c-1.9-0.29-2.9-3.94-1.61-5.35C139.07,6.5,139.47,7.22,139.91,6.8z"/>
<path class="st0" d="M128.63,5c-2.32-0.07-4.6,0.57-6.54,1.84c-0.72,0.41-0.69,0.59,0,1c1.23,0.65,2.5,1.2,3.82,1.64
	c2.85,1.2,5.8,2.16,8.63,3.4c1.79,0.71,3.07,2.31,3.36,4.21c0.2,0.85-0.27,1.72-1.1,2c-2.66,0.95-5.52,1.23-8.31,0.81
	c-1.42-0.26-2.36-1.63-2.1-3.05c0.02-0.13,0.06-0.25,0.1-0.38c0.54-1.77,0.54-1.75-1.19-2.37c-2.72-1-5.27-2.22-6.94-4.73
	c-1.77-2.67-1.7-5.89,1.89-7.13c2.6-1.03,5.37-1.55,8.17-1.54c1.71-0.06,3.14,1.28,3.19,2.98c0,0.14,0,0.28-0.01,0.42
	c-0.07,0.67-0.33,0.93-0.95,0.93L128.63,5z"/>
<path class="st0" d="M103.5,13.68c0.28,0.01,0.56-0.02,0.84-0.07c0.74-0.2,1.56-0.47,2,0.36c0.42,0.82,0.38,1.79-0.09,2.58
	c-1,2-2.93,2.51-4.62,3.27c-2.02,1-4.21,1.63-6.45,1.87c-3.61,0.25-6.07-1.21-7-5c-0.65-2.52-0.11-5,0.08-7.43
	c0.11-1.4,0-2.78,0.14-4.17c0-0.44-0.11-1,0.11-1.28s-0.32-1,0.27-0.88s1-0.19,1.59,0.52c2.34,3,1.85,6.29,1.3,9.62
	c-0.44,2.69,0.15,3.14,2.9,2.74s5.29-1.52,8-2.11C102.86,14.09,103.18,14,103.5,13.68z"/>
<path class="st0" d="M108,2.47c0.1-0.42-0.1-1,0.24-1c0.71-0.09,1.42,0.09,2,0.51c0.97,0.94,1.77,2.06,2.33,3.29
	c1.84,3.63,2.55,7.62,3.54,11.52c0.22,0.85,0.31,1.7,0.46,2.55c0.15,0.77-0.2,1.54-0.88,1.93c-0.72,0.44-1.19-0.12-1.7-0.56
	c-1.47-1.25-1.48-3.08-1.85-4.74c-0.76-3.45-1.1-7-2.92-10.17C108.65,4.76,108.24,3.63,108,2.47z"/>
<path class="st0" d="M103.5,13.68c-0.32,0.29-0.64,0.41-1,0C102.83,13.19,103.18,13.77,103.5,13.68z"/>
</svg>
