<?xml version="1.0" encoding="utf-8"?>
<!-- Generator: Adobe Illustrator 23.0.1, SVG Export Plug-In . SVG Version: 6.00 Build 0)  -->
<svg version="1.1" id="Layer_1" xmlns="http://www.w3.org/2000/svg" xmlns:xlink="http://www.w3.org/1999/xlink" x="0px" y="0px"
	 viewBox="0 0 226.35 25.2" style="enable-background:new 0 0 226.35 25.2;" xml:space="preserve">
<style type="text/css">
	.st0{fill:#FFFFFF;}
</style>
<g>
	<g>
		<path class="st0" d="M38.2,18.57c5.65,0.56,11.25-0.39,16.87-0.49c1.47-0.03,1.43-0.07,1.18-1.5c-0.34-1.98-0.74-3.94-1.16-5.91
			c-0.25-1.15-1.23-1.59-1.75-2.45c-0.44-0.74-0.6-2.69-0.08-3.36c0.14-0.18,0.3-0.43,0.57-0.31c1.26,0.55,2.51,0.03,3.75-0.08
			c1.84-0.16,3.64,0.06,5.44,0.36c2.35,0.39,4.68,1.02,6.75,2.08c2.4,1.23,4.78,2.8,5.62,5.68c0.85,2.91,0.32,4-2.16,5.88
			c-3.19,2.42-6.86,3.06-10.68,3.19c-0.85,0.03-1.4,0.09-1.57,1.08c-0.13,0.76-1.69,1-2.22,0.31c-1.03-1.33-2.07-1.34-3.63-0.81
			c-1.32,0.45-2.87,0.49-4.32,0.64c-3.79,0.37-7.58,0.63-11.36,1.08c-2.09,0.25-4.15,0.74-6.21,1.19c-1.61,0.35-3.71-1.18-3.69-2.87
			c0.01-0.47-0.26-0.87-0.13-1.38c0.16-0.64-0.05-1.42,1-1.42c0.21,0,0.26-0.19,0.24-0.44c-0.3-3.11-0.57-6.23-0.89-9.34
			c-0.06-0.55-0.31-1.07-0.76-1.44c-1.11-0.93-0.8-2.11-0.58-3.26c0.05-0.27,0.36-0.64,0.7-0.54c1.78,0.49,3.41-0.33,5.09-0.6
			c3.25-0.52,6.47-1.14,9.77-0.62c1.82,0.29,3.58,0.76,4.31,2.77c0.58,1.58,0.26,2.02-1.39,1.76c-3.03-0.47-5.99-0.03-8.98,0.4
			c-1.3,0.19-2.54,0.55-3.81,0.82c-0.28,0.06-0.69,0.18-0.65,0.57c0.04,0.4,0.45,0.38,0.76,0.42c1.57,0.18,3.11,0.53,4.7,0.44
			c1.04-0.06,2.07,0.05,3.09,0.24c1.18,0.22,1.73,0.86,1.71,2c-0.02,1.49-0.59,2.22-1.81,2.41c-2.09,0.33-4.21,0.11-6.31,0.21
			c-1.1,0.05-1.14,0.5-1.03,1.34c0.26,1.95,0.25,1.95,2.27,1.95C37.32,18.57,37.76,18.57,38.2,18.57z M61.69,9.2
			c-0.73,0.08-1.59,0.15-2.45,0.27c-0.43,0.06-0.64,0.21-0.49,0.8c0.5,1.97,0.9,3.98,1.3,5.97c0.12,0.57,0.52,0.41,0.83,0.37
			c1.32-0.15,2.65-0.27,3.93-0.69c2.15-0.71,4.21-1.58,6.01-2.98c0.54-0.42,0.7-0.68-0.1-1.17C67.97,10.09,64.97,9.42,61.69,9.2z"/>
		<path class="st0" d="M123.89,8.36c0-0.72-0.03-1.44,0.01-2.16c0.03-0.52-0.29-1.29,0.38-1.49c0.69-0.21,1.46-0.16,2.16,0.28
			c1.42,0.88,1.38,2.36,1.51,3.72c0.12,1.31,0.05,2.64,0.01,3.96c-0.02,0.56,0.18,0.87,0.69,1.08c2.38,0.97,4.8,1.2,7.34,0.71
			c1.98-0.38,3.89-1.26,5.99-0.95c0.56,0.08,0.52-0.38,0.66-0.78c1.14-3.33,2.27-6.64,4.84-9.26c1.91-1.95,4.41-1.09,5.69,0.48
			c1.68,2.05,2.3,4.61,2.69,7.24c0.25,1.7,0.34,3.43,0.34,5.11c0,1.77-0.01,3.58-0.18,5.36c-0.12,1.22-1.52,1.62-2.58,0.79
			c-0.51-0.4-1.09-1.02-1.17-1.61c-0.19-1.37-1.18-1.41-2.11-1.51c-0.87-0.1-1.71-0.28-2.56-0.45c-0.8-0.16-1.67-0.22-2.46,0.21
			c-0.33,0.18-0.63,0.25-1.01,0.05c-0.53-0.29-1.07-0.36-1.71-0.13c-0.48,0.18-1.14,0.21-1.53-0.35c-0.52-0.74-0.99-0.45-1.58-0.06
			c-3.16,2.12-6.48,2.92-10.09,1.1c-2.45-1.24-3.74-3.32-4.64-5.82C123.93,12.06,123.82,10.23,123.89,8.36z M152.1,15.6
			c0.34-2.33-0.01-6.01-0.68-7.81c-0.29-0.77-0.6-0.79-1.12-0.24c-1.53,1.62-2.65,3.5-3.5,5.55c-0.21,0.52-0.03,0.76,0.42,0.88
			C148.88,14.41,150.4,15.27,152.1,15.6z"/>
		<path class="st0" d="M114.2,13.64c1.77,1.57,3.44,3.15,5.21,4.59c0.8,0.65,1.85,0.91,2.92,0.81c0.59-0.06,1.04,0.12,1.27,0.66
			c0.22,0.5-0.11,0.9-0.4,1.24c-0.44,0.52-0.93,1-1.43,1.47c-0.47,0.43-0.96,0.44-1.63,0.31c-1.91-0.36-3.24-1.61-4.59-2.79
			c-2.18-1.89-4.58-3.35-7.23-4.47c-1.15-0.49-1.87-1.52-1.95-2.85c-0.02-0.32-0.1-0.61-0.18-0.92c-0.22-0.83,0.56-1.7,1.4-1.76
			c3.28-0.25,6.19-1.48,8.8-3.44c0.3-0.22,0.8-0.49,0.69-0.89c-0.09-0.35-0.6-0.4-0.99-0.48c-3.02-0.55-5.98-0.25-8.88,0.71
			c-0.93,0.31-1.83,0.68-2.72,1.13c-0.82,0.42-0.93,0.97-0.72,1.61c0.29,0.93,0.47,1.94,0.57,2.83c0.28,2.57,1.24,4.98,1.56,7.53
			c0.09,0.75,0.25,1.48,0.23,2.24c-0.02,0.48,0.04,1.08-0.53,1.19c-0.55,0.1-1.16,0.23-1.67-0.32c-0.87-0.92-1.36-2.02-1.63-3.2
			c-0.69-3.06-1.31-6.15-1.93-9.22c-0.07-0.35-0.21-0.49-0.57-0.63c-1.62-0.65-2.24-2.25-1.56-4.04c0.07-0.18,0.16-0.38,0.31-0.48
			c3.6-2.4,7.42-4.15,11.84-4.42c2.6-0.16,5.07,0.08,7.3,1.45c3.14,1.93,4.37,4.67,2.52,7.87c-1.05,1.82-2.99,2.76-4.85,3.65
			C115.01,13.19,114.64,13.31,114.2,13.64z"/>
		<path class="st0" d="M86.18,9.11c1.66-0.18,3.26,0.46,4.9,0.26c0.94-0.11,1.73,0.55,2.65,0.6c0.3,0.02,0.27,0.35,0.12,0.57
			c-1.18,1.83-2.78,3.08-4.96,3.45c-1.64,0.28-3.31,0.21-4.93,0.71c-1.3,0.4-2.23,1.92-1.84,3.25c0.09,0.3,0.26,0.35,0.51,0.37
			c1.03,0.08,2.05,0.18,3.08,0.24c3.37,0.19,6.73,0,10.1-0.09c0.54-0.01,0.98-0.28,1.42-0.52c0.89-0.48,0.88-0.5,1.33,0.29
			c1.2,2.11,0.28,4.26-2.14,4.88c-4.12,1.06-8.28,1.56-12.53,0.74c-3.66-0.71-6.62-4.99-5.89-8.61c0.09-0.43,0.05-0.81-0.25-1.22
			c-0.65-0.91-0.54-2.68,0.12-3.46c0.07-0.08,0.2-0.11,0.31-0.15c0.75-0.29,1.22-1.26,0.72-1.81c-0.42-0.46-0.26-0.94-0.43-1.35
			c-0.42-1.04,0.2-1.32,0.93-1.51c2.5-0.64,4.73-2.04,7.28-2.55c2.02-0.4,4.04-0.82,6.09-0.85c0.92-0.02,1.85,0.34,2.4,1.28
			c1.12,1.9-0.38,2.98-2.5,3.38C90.42,7.44,88.27,8.08,86.18,9.11z"/>
		<path class="st0" d="M8.89,8.32c-0.4,1.76,0.79,2.92,1.73,4.03c2.05,2.44,4.5,4.46,7.38,5.91c2.25,1.13,3.38,0.44,3.41-2.09
			c0.04-3.13-1.43-5.68-3.03-8.21c-0.5-0.79-1.47-1.32-1.13-2.64c0.29-1.14,0.78-0.97,1.45-0.6c1.62,0.89,3.06,2,3.87,3.71
			c1.11,2.35,2.47,4.6,3.02,7.19c0.42,2,0.37,3.98-0.52,5.84c-1.43,2.95-3.3,3.32-5.93,2.08c-5.06-2.38-9.22-5.87-12.14-10.72
			c-0.1-0.17-0.22-0.34-0.34-0.49c-0.04-0.06-0.13-0.08-0.22-0.15c-0.77,3.36-1.56,6.7-2.3,10.05c-0.11,0.5,0.02,1.04-0.04,1.55
			c-0.13,1.05-1.18,1.57-2.02,0.98c-1.27-0.89-2.26-1.91-2.07-3.71c0.25-2.36,0.71-4.66,1.44-6.92c0.64-1.95,0.74-4.02,1.2-6.02
			c0.26-1.13-0.43-2.16-0.48-3.27c-0.05-1,0.47-1.16,1.21-1.01C3.76,3.9,4.06,3.87,4.42,3.79C5.67,3.5,6.27,4.3,6.77,5.26
			c0.54,1.01,1.11,1.99,1.68,2.98C8.56,8.48,8.75,8.28,8.89,8.32z"/>
		<path class="st0" d="M212.3,9.28c1.02,0.38,2.04,0.79,3.07,1.14c3.83,1.28,7.34,3.06,10.08,6.15c1.5,1.69,1.05,4.78-0.96,5.82
			c-1.54,0.8-3.24,1.05-4.92,1.17c-3.36,0.25-6.7,0.1-9.99-0.83c-0.87-0.25-1.39-0.88-1.84-1.5c-0.68-0.93-0.15-1.77,1.21-2.19
			c1.93-0.58,3.93-0.64,5.9-0.69c1.63-0.04,3.25-0.2,4.87-0.31c0.26-0.02,0.51-0.16,0.86-0.27c-1.68-1.02-3.48-1.49-5.22-2.13
			c-2.17-0.8-4.5-1.32-6.1-3.24c-1.22-1.46-1.76-3.17-1.84-5.01c-0.06-1.47,1.65-3.11,3.43-3.45c1.9-0.36,3.8-0.67,5.74-0.86
			c1.33-0.13,1.62,0.54,2.32,1.18c0.76,0.68,1.25,1.32,1.17,2.37c-0.09,1.29-0.99,2-2.24,1.75c-1.92-0.39-3.76,0.06-5.58,0.57
			C212.29,9.06,212.3,9.17,212.3,9.28z"/>
		<path class="st0" d="M195.34,21.08c-0.62-0.24-1.66-0.09-2.68-0.11c-0.48-0.01-0.81,0.12-0.69,0.67c0.26,1.1-0.57,1.4-1.3,1.65
			c-0.88,0.31-1.3-0.37-1.65-1.01c-0.98-1.8-1.29-3.78-1.52-5.78c-0.17-1.51-0.63-2.92-1.21-4.31c-0.18-0.42-0.42-0.72-0.9-0.83
			c-1.87-0.41-2.74-1.91-2.57-3.89c0.08-0.92,0.59-1.52,1.07-2.08c0.41-0.47,1.39-0.18,1.65,0.21c0.84,1.24,2.14,0.84,3.19,1.03
			c4.04,0.7,8.15,1.12,11.7,3.43c1.59,1.03,3.04,2.28,4.17,3.81c1.06,1.44,0,4.8-1.69,5.62C200.65,20.59,198.25,21.15,195.34,21.08z
			 M189.69,11.61c0.29,0.86,0.55,1.64,0.81,2.42c0.27,0.82,0.32,1.82,0.85,2.4c0.64,0.72,1.65-0.1,2.5-0.02
			c0.08,0.01,0.16,0,0.24-0.01c2.17-0.31,4.33-0.72,6.57-1.8C197.13,12.61,193.62,11.53,189.69,11.61z"/>
		<path class="st0" d="M177.8,20.73c-3.23-0.12-6.12-1.35-8.9-2.86c-1.18-0.64-2.32-1.34-3.47-2.04c-0.51-0.31-0.73-0.19-0.71,0.39
			c0.05,1.48-0.3,2.9-0.5,4.35c-0.08,0.62-0.26,0.99-0.89,1.22c-0.64,0.24-1.06,0.08-1.47-0.38c-1.35-1.55-2.31-3.29-2.45-5.38
			c-0.11-1.55-0.36-3.09-0.24-4.65c0.04-0.51-0.14-0.95-0.47-1.3c-0.72-0.76-0.71-1.8-0.81-2.68c-0.05-0.44,0.88-1.24,1.5-1.42
			c0.49-0.15,1.42-0.08,1.78,0.6c1.1,2.08,3.02,3.28,4.88,4.5c2.21,1.46,4.56,2.67,7.09,3.5c1.1,0.36,2.22,0.56,3.37,0.66
			c1.18,0.1,1.28-0.52,1.09-1.36c-0.23-1.03-0.54-2.05-0.94-3.04c-0.28-0.7-0.59-1.33,0.07-2.22c0.65-0.89,0.97-0.46,1.38-0.08
			c2.36,2.2,3.49,4.92,3.37,8.15c-0.01,0.32-0.07,0.67,0.04,0.95c0.86,2.2-0.66,2.79-2.53,3.09
			C178.61,20.78,178.2,20.73,177.8,20.73z"/>
		<path class="st0" d="M8.89,8.32C8.75,8.28,8.56,8.48,8.45,8.24c0.02-0.18-0.06-0.38,0.13-0.51C8.68,7.92,8.79,8.12,8.89,8.32z"/>
	</g>
</g>
</svg>
