<?xml version="1.0" encoding="utf-8"?>
<!-- Generator: Adobe Illustrator 23.0.1, SVG Export Plug-In . SVG Version: 6.00 Build 0)  -->
<svg version="1.1" id="Layer_1" xmlns="http://www.w3.org/2000/svg" xmlns:xlink="http://www.w3.org/1999/xlink" x="0px" y="0px"
	 viewBox="0 0 160.44 24.53" style="enable-background:new 0 0 160.44 24.53;" xml:space="preserve">
<style type="text/css">
	.st0{fill:#C36262;}
	.st1{fill:#F5E8E8;}
</style>
<g>
	<g>
		<path class="st0" d="M33.37,11.87c0.18,2.34-0.2,4.41,0.27,6.46c0.16,0.69-0.25,1.12-0.81,1.45c-0.65,0.39-1.2,0.08-1.61-0.34
			c-0.52-0.53-1.04-1.1-1.29-2.02c-0.35,0.69-1.15,0.83-1.17,1.66c-0.01,0.21-0.35,0.27-0.58,0.34c-3.31,1.05-6.7,1.81-10.08,2.6
			c-3.7,0.86-7.43,1.64-11.17,2.34c-1.56,0.29-3.19,0.24-4.62-0.64c-1.21-0.74-2.27-3.33-1.94-4.69c0.31-1.29,0.37-2.66,1.27-3.76
			c0.2-0.25,0.12-0.53-0.11-0.75c-0.14-0.14-0.29-0.28-0.42-0.43c-0.64-0.73-1.4-1.6-0.97-2.52c0.36-0.77,1.41-1.1,2.29-1.24
			c0.83-0.13,1.52-0.35,1.67-1.2C4.25,8.11,5.26,7.1,4.03,5.97C3.06,5.09,2.62,3.92,3.36,2.56C3.53,2.24,3.71,2.06,4,1.96
			c2.61-0.92,5.26-1.56,8.05-1.81c2.18-0.2,4.31-0.23,6.46,0.09c0.5,0.07,1,0.24,1.46,0.46c0.83,0.39,0.92,1.36,0.11,1.78
			C19.63,2.7,19.19,3,18.7,3.13c-2.43,0.65-4.86,1.29-7.3,1.88C9.14,5.57,9.17,5.55,8.92,7.8C8.8,8.89,8.89,9.52,10.28,9.38
			c1.18-0.12,2.37-0.24,3.54-0.42c0.52-0.08,1.03-0.08,1.55-0.09c0.29-0.01,0.59,0.09,0.68,0.38c0.09,0.3-0.23,0.42-0.43,0.47
			c-0.72,0.19-0.98,0.91-1.47,1.34c-1.93,1.69-4.18,2.66-6.59,3.29c-0.75,0.2-0.67,0.78-0.94,1.21c-0.5,0.81-1.23,2.01-0.81,2.55
			c0.5,0.64,1.87,0.27,2.76,0.05c3.11-0.78,6.27-1.29,9.43-1.8c1.79-0.29,3.56-0.8,5.46-0.59c1.24,0.14,2.55-0.2,3.8-0.45
			c0.49-0.1,0.88,0.38,1.51-0.09c0.49-0.37,0.65-0.5,0.64-1.09c-0.04-1.62-0.05-3.25,0.11-4.88c0.15-1.48,0.33-3.04-0.34-4.48
			c-0.43-0.93,0.02-1.76,0.21-2.62c0.07-0.33,0.39-0.51,0.83-0.26c1.09,0.6,2.22,1.15,2.59,2.46c0.62,2.17,2.24,3.71,3.45,5.49
			c1.3,1.93,2.93,3.58,5.06,4.66c0.96,0.48,1.98,0.84,3.03,0.96c2.26,0.26,4.57,0.57,6.74-0.46c1.15-0.54,2.42-1.18,2.55-2.6
			c0.15-1.63-0.93-2.74-2.22-3.51c-1.32-0.79-2.42-1.93-3.98-2.38c-0.29-0.08-0.68-0.75-1.15-1.05c-0.29-0.19-0.17-0.6-0.12-0.9
			c0.07-0.37,0.42-0.07,0.54-0.14c1.17-0.71,2.45,0.24,3.62-0.26c0.08-0.03,0.25,0.03,0.32,0.1c1.07,1.04,2.68,1.31,3.61,2.53
			c1.2,1.56,2.68,2.87,3.28,4.9c1.45,4.91,0.15,6.58-4.08,8.37c-4.57,1.93-9.07,1.29-13.2-1.62c-2.32-1.63-4.43-3.44-6.06-5.78
			C34.03,12.44,33.79,12.28,33.37,11.87z"/>
		<path class="st0" d="M80,15.45c-0.88-0.06-1.69-0.13-2.5-0.16c-0.2-0.01-0.33,0.08-0.57-0.12c-0.73-0.62-2.23-0.01-2.43-1.54
			c-0.04-0.28-0.18-0.63,0-0.79c0.93-0.82,1.64-2.1,3.08-2.02c3.29,0.2,5.98,1.4,7.53,4.58c0.54,1.11,0.29,1.97-0.28,2.9
			c-1.07,1.75-2.86,2.52-4.63,3.23c-4.11,1.66-8.39,2.33-12.81,1.76c-3.65-0.47-6.71-3.07-7.67-6.27c-0.96-3.22-0.23-6.22,2-8.73
			c2.25-2.53,4.89-4.64,7.82-6.36c1.2-0.7,3.08,0.33,3.68,2.01c0.49,1.37,0.19,2.22-1.06,3c-0.64,0.39-1.33,0.71-1.95,1.1
			c-2.81,1.75-5.09,4.05-6.71,6.95c-0.79,1.42-0.51,2.02,1.05,2.53c2.36,0.77,4.8,0.81,7.25,0.77c2.32-0.04,4.4-0.93,6.42-1.9
			C78.81,16.09,79.64,16.42,80,15.45z"/>
		<path class="st0" d="M139.91,6.8c-1.01-1.45-1.16-3.15-1.29-4.88c-0.03-0.44,0.06-0.68,0.43-0.57c0.91,0.28,1.89,0.5,2.35,1.5
			c0.53,1.14,1.18,2.25,1.56,3.44c0.26,0.81,0.66,1.01,1.37,0.89c1.8-0.28,3.63-0.5,5.29-1.27c1.46-0.68,2.98-1.2,4.46-1.83
			c0.37-0.16,0.62-0.4,0.8-0.8c0.61-1.33,1.63-1.53,2.61-0.45c1.02,1.12,2.03,2.3,0.99,4.04c-0.69,1.15-0.11,2.45,0.06,3.63
			c0.33,2.31,0.46,4.65,1.08,6.92c0.13,0.46,0.22,0.93,0.46,1.34c0.24,0.43,0.28,0.89,0.35,1.37c0.11,0.87-0.45,1.39-1.04,1.66
			c-0.54,0.24-1.13-0.2-1.54-0.67c-1-1.13-1.23-2.57-1.51-3.96c-0.42-2.12-0.68-4.28-1.01-6.42c-0.2-1.28-0.36-1.32-1.49-0.74
			c-2.06,1.06-4.33,1.48-6.57,1.98c-0.23,0.05-0.48,0.01-0.72,0.05c-1.68,0.25-1.67,0.25-1.3,1.88c0.43,1.91,0.72,3.83,0.72,5.79
			c0,0.08-0.01,0.16,0.01,0.24c0.23,0.93,0.16,1.82-0.91,2.09c-1.09,0.28-1.74-0.44-2.2-1.35c-0.66-1.3-0.81-2.74-0.94-4.14
			c-0.08-0.91-0.3-1.79-0.34-2.71c-0.03-0.76-0.26-1.34-1.34-1.51c-1.9-0.29-2.89-3.94-1.6-5.35C139.07,6.5,139.47,7.22,139.91,6.8z
			"/>
		<path class="st0" d="M128.63,5.03c-2.25-0.19-4.43,0.63-6.54,1.84c-0.72,0.41-0.69,0.59-0.04,0.99c1.19,0.74,2.55,1.11,3.82,1.64
			c2.85,1.19,5.8,2.16,8.63,3.4c1.77,0.78,3.05,2.18,3.36,4.21c0.13,0.88-0.17,1.74-1.09,2.02c-2.71,0.84-5.47,1.35-8.31,0.81
			c-1.6-0.3-2.49-1.86-2.01-3.43c0.54-1.77,0.53-1.76-1.2-2.38c-2.72-0.97-5.26-2.22-6.93-4.73c-1.78-2.67-1.71-5.89,1.89-7.13
			c2.67-0.92,5.34-1.73,8.21-1.59c2.03,0.1,3.39,1.57,3.19,3.4c-0.07,0.67-0.33,0.93-0.95,0.93C130.05,5.03,129.45,5.03,128.63,5.03
			z"/>
		<path class="st0" d="M103.5,13.68c0.28-0.02,0.57,0.01,0.83-0.06c0.74-0.21,1.56-0.48,2.01,0.35c0.44,0.81,0.37,1.66-0.08,2.59
			c-0.97,1.96-2.94,2.51-4.62,3.27c-2.02,0.92-4.17,1.7-6.46,1.86c-3.61,0.26-6.07-1.21-7.04-5c-0.65-2.53-0.11-4.97,0.08-7.43
			c0.11-1.4,0.04-2.78,0.14-4.17c0.03-0.44-0.11-1,0.11-1.28c0.26-0.32-0.32-1,0.27-0.89c0.5,0.09,1.04-0.18,1.59,0.52
			c2.34,3,1.85,6.3,1.3,9.62c-0.44,2.7,0.15,3.15,2.9,2.74c2.76-0.4,5.29-1.52,7.98-2.1C102.86,14.09,103.18,13.97,103.5,13.68z"/>
		<path class="st0" d="M108.01,2.47c0.1-0.42-0.11-0.96,0.24-0.96c0.68-0.01,1.43,0.01,2,0.52c1.02,0.92,1.72,2.08,2.33,3.28
			c1.84,3.64,2.55,7.62,3.55,11.52c0.22,0.85,0.3,1.71,0.45,2.56c0.14,0.8-0.18,1.51-0.87,1.93c-0.72,0.44-1.2-0.13-1.71-0.56
			c-1.47-1.25-1.48-3.08-1.84-4.74c-0.76-3.46-1.1-7.04-2.92-10.17C108.58,4.73,108.27,3.57,108.01,2.47z"/>
		<path class="st1" d="M103.5,13.68c-0.32,0.3-0.64,0.41-0.98,0.03C102.83,13.19,103.18,13.77,103.5,13.68z"/>
	</g>
</g>
</svg>
