<?xml version="1.0" encoding="utf-8"?>
<!-- Generator: Adobe Illustrator 23.0.1, SVG Export Plug-In . SVG Version: 6.00 Build 0)  -->
<svg version="1.1" id="Layer_1" xmlns="http://www.w3.org/2000/svg" xmlns:xlink="http://www.w3.org/1999/xlink" x="0px" y="0px"
	 viewBox="0 0 157.8 29.6" style="enable-background:new 0 0 157.8 29.6;" xml:space="preserve">
<style type="text/css">
	.st0{fill:#FFFFFF;}
</style>
<g>
	<g>
		<path class="st0" d="M13.1,23.1c1.9,0,4.5,0,7.1,0c1.7,0,3.4-0.2,5.1-0.2c1.3,0,2.5,0.3,3.8,0.4c1.8,0.1,3.6,0.2,5.5,0.4
			c0.3,0,0.7,0.2,0.7,0.4c0,0.3-0.1,0.7-0.4,0.9c-1.1,0.7-2.2,1.4-3.3,2c-0.4,0.2-0.8,0.3-1.2,0.3c-2.6,0.3-5.2,0.7-7.8,1
			c-2.7,0.3-5.4,0.7-8.2,0.9c-2.1,0.1-4.2,0.1-6.2-0.2c-2.3-0.4-4.7-0.8-6.5-2.7c-1.7-1.8-2.1-3.9-1.5-6.2c0.5-2.1,1.9-3.9,3.3-5.5
			C8.4,9,14.2,5,20.7,1.7c1.4-0.7,3-1.2,4.5-1.6c0.8-0.3,1.6,0.2,2,0.9C28,2.3,28,3.7,28,5.2c0,0.5-0.9,1.2-1.4,1.2
			c-2.1,0-3.9,1-5.6,2c-3.1,1.8-6,3.8-9,5.7c-2.7,1.7-4.8,3.9-6.6,6.4c-0.7,1-0.4,1.6,0.8,1.8C8.3,22.6,10.3,22.8,13.1,23.1z"/>
		<path class="st0" d="M75.3,21.9c2.4-0.5,4.5-1,6.7-1.3c1.7-0.3,3.5-0.3,5.2-0.4c1.4-0.1,2.8-0.3,4.2-0.4c0.5,0,1.3,0.1,1.4,0.2
			c0.2,0.6,0.3,1.5,0,2c-1.3,2.1-3.5,2.9-5.6,3.7c-2,0.7-4,1.4-6,2c-2.3,0.7-4.6,1.4-7,1.9c-1.2,0.2-2.1-0.6-2.6-1.6
			c-1.1-2.2-2-4.4-1.1-6.9c0.4-1.2,0.8-2.5,1-3.8c0.1-0.8-0.3-1.7-0.6-2.5c-0.5-1.8,0-2.8,1.8-3.2c0.2,0,0.5-0.4,0.5-0.6
			c0.3-1.3,0.5-2.7,0.7-4c0.1-1.3,0.1-2.7,0.1-4c0-0.8,0.8-1.3,1.6-0.8c0.9,0.5,1.4,0.1,2.2-0.3c1.6-0.7,3.3-1.4,5-1.6
			c2.3-0.3,4.6-0.3,6.9,0.6c0.5,0.2,0.9,0.7,1.3,1.1c0.1,0.1,0.1,0.4,0.2,0.6c0.8,1.7-0.1,3.1-2,3c-2.2-0.1-4.3,0.1-6.3,0.9
			c-1.3,0.6-2.8,1.1-4,1.9C78,8.8,78,9.9,77.9,10.6c0,0.1,0.7,0.3,1.1,0.5c0.3,0.1,0.6,0,0.8,0c1.8,0.2,2.5,1.9,1.5,3.4
			c-0.8,1.2-1.7,2.1-3.2,2.4c-1.4,0.3-2,1.1-2.3,2.4C75.8,20.1,75.5,20.9,75.3,21.9z"/>
		<path class="st0" d="M123.4,6.3c0.6-0.5,1,0,1.3,0.4c1.8,2.6,3.6,5.2,3.8,8.5c0.1,0.8,0.3,1.6,0.3,2.4c0.1,2.5-1.8,3.7-3.6,4.8
			c-3.9,2.2-8,2.3-12.3,1.6c-5.3-0.9-9.7-3.3-13.3-7.3c-0.2-0.2-0.4-0.3-0.7-0.4c-0.1,0.3-0.2,0.5-0.3,0.8c0,0.8,0,1.5,0,2.3
			c0,0.8-0.1,1.7-1.1,1.9c-0.9,0.1-1.5-0.5-1.9-1.2c-1.2-2.2-1.4-4.6-1.1-7.1c0.2-1.8,0.2-3.7,0.1-5.6c-0.1-1.2,0.5-2,1.2-2.9
			c0.1-0.1,0.7-0.1,0.9,0.1c0.9,0.7,1.6,1.5,1.9,2.6c1.1,3.7,3.4,6.6,6.7,8.6c2.9,1.8,6.2,2.5,9.6,2.5c2.1,0,4.4,0.2,6.4-0.9
			c1-0.5,2-1.2,2.8-2c0.8-0.7,0.4-3-0.6-4.1c-0.4-0.5-1-1-1.6-1.2c-1.9-0.8-3-2.5-4.4-3.9C117,5.4,117.4,5,118.1,5
			c1.3-0.1,2.7-0.1,3.9,0.6C122.5,5.9,123,6.1,123.4,6.3C123.5,6.4,123.5,6.4,123.4,6.3c0.1,0.1,0.1,0.1,0.2,0.1
			C123.5,6.4,123.5,6.4,123.4,6.3z"/>
		<path class="st0" d="M144.2,8.2c0.7,4.3,1.4,8.5,2.2,12.8c0.1,0.3,0.1,0.7,0,0.9c-0.2,0.5-0.5,1.3-1,1.4c-0.5,0.1-1.4-0.1-1.8-0.5
			c-0.5-0.5-0.7-1.3-1.1-2c-0.2-0.4-0.5-0.8-0.7-1.2c-0.1-0.2-0.2-0.3-0.2-0.5c-0.1-1.3-0.2-2.5-0.4-3.8c-0.3-2.1-0.7-4.2-0.9-6.4
			c-0.1-0.8-0.5-1-1.2-1c-2.5-0.2-5.1-0.3-7.6-0.5c-1.6-0.1-3-1.4-3.2-3c-0.1-1.8,0-2.2,1.3-3.3c0.2-0.2,0.6-0.2,0.9-0.2
			c2,0.1,4,0.3,6,0.4c4.2,0.1,8.5,0.1,12.7,0.1c2,0,3.9-0.1,5.9,0c1.4,0.1,2,1.3,2.5,2.3c0.4,0.7,0.2,1.8,0.2,2.7
			c0,0.8-0.7,1.2-1.4,1.2C152.3,7.9,148.2,8.1,144.2,8.2C144.2,8.2,144.2,8.2,144.2,8.2z"/>
		<path class="st0" d="M38.9,26c-1.1-0.1-1.7-0.6-2.3-1.5c-2-2.8-1.6-5.8-0.6-8.8c0.9-2.9,1.8-5.9,2.6-8.8c0.2-0.8,0.2-1.7,0.4-2.6
			c0.1-0.6,0.2-1.2,0.4-1.7c0.2-0.6,0.4-0.7,1-0.3c2.2,1.3,2.4,3.4,2.4,5.6c-0.1,2.6-0.9,5-1.7,7.4c-0.2,0.6-0.4,1.3-0.6,1.9
			c-0.3,0.8-0.1,1,0.8,0.8c1.9-0.5,3.8-1,5.7-1.2c2.2-0.2,4.4,0,6.5,0c1.5,0.1,3,0.2,4.5,0.4c0.3,0,0.7,0.2,1,0.4
			c-0.2,0.5-0.2,1.1-0.6,1.3c-1.7,1.3-3.5,2.4-5.7,2.8c-2.9,0.6-5.7,1.6-8.5,2.4C42.3,24.9,40.6,25.4,38.9,26z"/>
		<path class="st0" d="M64,6.2c0-1.1-0.1-2.2,0-3.3c0-0.4,0.4-0.9,0.7-1c0.3-0.1,1,0,1.3,0.3c2.3,1.9,2.4,4.5,2.2,7.2
			c-0.2,3.4-0.5,6.7-0.7,10.1c0,0.2,0,0.3,0,0.5c-0.1,0.8,0.1,1.9-1.1,2.1c-1.2,0.3-1.7-0.7-2.1-1.4c-0.9-1.8-1.6-3.6-1.2-5.7
			C63.7,12,63.8,9.1,64,6.2C64,6.2,64,6.2,64,6.2z"/>
		<path class="st0" d="M147.6,15.7c0,0.1,0,0.1,0.1,0.2c0,0,0,0-0.1,0.1C147.5,15.9,147.5,15.8,147.6,15.7
			C147.5,15.8,147.5,15.7,147.6,15.7z"/>
	</g>
</g>
</svg>
