<?xml version="1.0" encoding="utf-8"?>
<!-- Generator: Adobe Illustrator 23.0.1, SVG Export Plug-In . SVG Version: 6.00 Build 0)  -->
<svg version="1.1" id="Layer_1" xmlns="http://www.w3.org/2000/svg" xmlns:xlink="http://www.w3.org/1999/xlink" x="0px" y="0px"
	 viewBox="0 0 51.12 7.92" style="enable-background:new 0 0 51.12 7.92;" xml:space="preserve">
<style type="text/css">
	.st0{display:none;}
	.st1{display:inline;fill:#DB8686;}
	.st2{fill:#DB8686;}
</style>
<g class="st0">
	<rect class="st1" width="51.12" height="7.92"/>
</g>
<g>
	<g>
		<g>
			<path class="st2" d="M3.94,4.01c2.24,0.45,4.22,0.44,6.19,0.34c0.92-0.05,1.18-0.73,0.76-1.53c-0.29-0.55-0.32-0.94,0.27-1.3
				c1.5-0.93,4.72-0.58,5.96,0.67c1.19,1.2,1.18,2.4-0.12,3.49c-0.95,0.8-1.99,1.45-3.25,1.67c-1.41,0.25-2.44-0.28-3.01-1.56
				c-0.27-0.61-0.5-0.57-1.08-0.38c-2.18,0.7-4.44,0.88-6.71,0.56C2.13,5.86,1.27,5.55,1.08,4.55c-0.2-1.06,0.69-1.33,1.36-1.7
				C4.17,1.91,6.08,1.43,7.9,0.72c0.68-0.27,1.09,0.04,1.29,0.65c0.22,0.68-0.23,0.91-0.8,1.06C6.95,2.81,5.52,3.22,3.94,4.01z
				 M14.08,2.58c-1.17-0.07-1.53,0.85-2,1.62c-0.21,0.35-0.4,0.76-0.01,1.09c0.66,0.56,1.37,0.15,2.05,0.02
				c0.16-0.03,0.3-0.1,0.45-0.16c0.85-0.35,2.09-0.75,1.91-1.65C16.33,2.76,15,2.66,14.08,2.58z"/>
			<path class="st2" d="M44.34,3.18c-0.52-0.03-0.93,0-1.31-0.08c-0.58-0.11-0.68-0.57-0.71-1.09c-0.03-0.53,0.24-0.69,0.71-0.73
				c2.22-0.2,4.43-0.41,6.64-0.62c0.41-0.04,0.81-0.11,1.01,0.38c0.21,0.5-0.2,0.76-0.47,1c-0.71,0.64-1.6,0.86-2.55,0.84
				C47,2.86,46.71,3.09,46.92,3.81c0.2,0.73,0.34,1.47,0.48,2.21c0.07,0.35,0.16,0.77-0.26,0.94c-0.48,0.19-0.63-0.25-0.74-0.57
				c-0.22-0.6-0.46-1.21-0.52-1.83C45.79,3.48,45.54,2.74,44.34,3.18z"/>
			<path class="st2" d="M20.57,5.11c0.09,0.48,0.15,0.78,0.19,1.09c0.04,0.32-0.12,0.57-0.4,0.66c-0.32,0.1-0.51-0.12-0.64-0.4
				c-0.63-1.4-0.35-2.91-0.56-4.36c-0.01-0.1,0.17-0.31,0.29-0.32c0.38-0.06,0.61,0.25,0.71,0.53c0.63,1.69,2.08,1.97,3.59,2.05
				c0.9,0.05,1.65-0.2,1.09-1.43c-0.18-0.4-0.42-1.07,0.09-1.3c0.72-0.33,0.62,0.51,0.83,0.86c0.57,0.95,1.37,1.97,0.18,2.98
				c-1.12,0.95-2.43,1.13-3.79,0.46C21.7,5.69,21.24,5.46,20.57,5.11z"/>
			<path class="st2" d="M32.61,1.5c0.57,0.06,1.42-0.23,1.55,0.65c0.12,0.83-0.71,0.92-1.29,1.14c-0.84,0.33-2.08-0.07-2.52,0.75
				c-0.38,0.71,0.21,1.68,0.46,2.52c0.1,0.33,0.07,0.67-0.31,0.79c-0.4,0.13-0.58-0.21-0.69-0.51c-0.2-0.56-0.39-1.13-0.52-1.71
				c-0.15-0.69-0.19-1.35-1.19-1.45c-0.58-0.05-0.89-0.76-0.86-1.3c0.03-0.64,0.68-0.36,1.07-0.41C29.73,1.8,31.15,1.66,32.61,1.5z"
				/>
			<path class="st2" d="M33.68,4.27c1.27-0.71,0.79-2.38,1.78-3.33c0.35-0.34,0.57,0.04,0.78,0.25c0.9,0.94,0.79,2.21,1,3.36
				c0.11,0.57,0.05,1.18,0.31,1.74c0.15,0.34,0.18,0.74-0.23,0.94c-0.5,0.23-0.6-0.24-0.76-0.53c-0.15-0.28-0.22-0.6-0.38-0.88
				c-0.34-0.58-0.66-0.47-0.91,0.08c-0.12,0.27-0.08,0.71-0.54,0.63c-0.38-0.06-0.42-0.44-0.52-0.74C34.04,5.35,33.9,4.9,33.68,4.27
				z"/>
			<path class="st2" d="M40.78,6.83c-1.27-0.18-2.19-0.82-2.47-2.18c-0.26-1.28,0.59-1.98,1.44-2.66c0.21-0.17,0.51-0.28,0.76-0.01
				c0.27,0.29,0.19,0.55-0.04,0.84c-0.38,0.48-1.18,0.97-0.83,1.57c0.32,0.56,1.23,0.37,1.89,0.44c0.51,0.05,1.04,0.01,1.56,0.01
				c0.35,0,0.78-0.15,0.87,0.36c0.09,0.48-0.12,0.84-0.58,1.06C42.58,6.66,41.68,6.64,40.78,6.83z"/>
		</g>
	</g>
</g>
</svg>
